<svg width="19" height="21" viewBox="0 0 19 21" fill="none" xmlns="http://www.w3.org/2000/svg">
<path d="M9.93298 5.5C11.0376 5.5 11.933 4.60457 11.933 3.5C11.933 2.39543 11.0376 1.5 9.93298 1.5C8.82838 1.5 7.93298 2.39543 7.93298 3.5C7.93298 4.60457 8.82838 5.5 9.93298 5.5ZM9.93298 5.5V10.5M9.93298 10.5H7.43298M9.93298 10.5H12.433M9.93298 10.5L9.93288 19.5M9.93288 19.5C12.5501 19.5 14.8738 18.2432 16.3333 16.3003M9.93288 19.5C7.31577 19.5 4.99213 18.2433 3.53259 16.3003M3.93298 15.5C3.93298 16.0523 3.48526 16.5 2.93298 16.5C2.3807 16.5 1.93298 16.0523 1.93298 15.5C1.93298 14.9477 2.3807 14.5 2.93298 14.5C3.48526 14.5 3.93298 14.9477 3.93298 15.5ZM17.933 15.5C17.933 16.0523 17.4853 16.5 16.933 16.5C16.3807 16.5 15.933 16.0523 15.933 15.5C15.933 14.9477 16.3807 14.5 16.933 14.5C17.4853 14.5 17.933 14.9477 17.933 15.5Z" stroke="white" stroke-width="2" stroke-linecap="round"/>
</svg>
