<svg width="218" height="9" viewBox="0 0 218 9" fill="none" xmlns="http://www.w3.org/2000/svg">
<path d="M1.00702 8.23301L10.007 3.23301C15.6041 0.1235 22.4099 0.123497 28.007 3.23301V3.23301C33.6041 6.34252 40.4099 6.34252 46.007 3.23301V3.23301C51.6041 0.123502 58.4099 0.123498 64.007 3.23301V3.23301C69.6041 6.34252 76.4099 6.34252 82.007 3.23301V3.23301C87.6041 0.123496 94.4099 0.123496 100.007 3.23301V3.23301C105.604 6.34252 112.41 6.34251 118.007 3.23301V3.23301C123.604 0.123497 130.41 0.123493 136.007 3.233V3.233C141.604 6.34252 148.41 6.34251 154.007 3.233V3.233C159.604 0.123491 166.41 0.123487 172.007 3.233V3.233C177.604 6.34251 184.41 6.34251 190.007 3.233V3.233C195.604 0.123485 202.41 0.123484 208.007 3.23299L217.007 8.233" stroke="#B7E8FB"/>
</svg>
