<svg width="217" height="9" viewBox="0 0 217 9" fill="none" xmlns="http://www.w3.org/2000/svg">
<path d="M0.737122 0.508474L9.73712 5.50848C15.3342 8.61799 22.14 8.61799 27.7371 5.50848V5.50848C33.3342 2.39896 40.14 2.39897 45.7371 5.50848V5.50848C51.3342 8.61798 58.14 8.61799 63.7371 5.50848V5.50848C69.3342 2.39897 76.14 2.39897 81.7371 5.50848V5.50848C87.3342 8.61799 94.14 8.61799 99.7371 5.50848V5.50848C105.334 2.39897 112.14 2.39897 117.737 5.50848V5.50848C123.334 8.61799 130.14 8.61799 135.737 5.50848V5.50848C141.334 2.39897 148.14 2.39897 153.737 5.50848V5.50848C159.334 8.61799 166.14 8.618 171.737 5.50849V5.50849C177.334 2.39898 184.14 2.39898 189.737 5.50849V5.50849C195.334 8.618 202.14 8.618 207.737 5.50849L216.737 0.50849" stroke="#B7E8FB"/>
</svg>
