<svg width="589" height="561" viewBox="0 0 589 561" fill="none" xmlns="http://www.w3.org/2000/svg">
<mask id="path-1-inside-1_317_10160" fill="white">
<path fill-rule="evenodd" clip-rule="evenodd" d="M588.374 50.6049C588.374 22.9907 565.988 0.604919 538.374 0.604919H50.3735C22.7593 0.604919 0.373535 22.9907 0.373535 50.6049V411.368C0.636725 411.355 0.901636 411.348 1.16811 411.348C9.76986 411.348 16.743 418.305 16.743 426.886C16.743 435.468 9.76986 442.424 1.16811 442.424C0.901636 442.424 0.636725 442.417 0.373535 442.404V510.605C0.373535 538.219 22.7593 560.605 50.3735 560.605H538.374C565.988 560.605 588.374 538.219 588.374 510.605V442.422C588.278 442.423 588.183 442.424 588.088 442.424C579.486 442.424 572.513 435.468 572.513 426.886C572.513 418.305 579.486 411.348 588.088 411.348C588.183 411.348 588.278 411.349 588.374 411.351V50.6049Z"/>
</mask>
<path fill-rule="evenodd" clip-rule="evenodd" d="M588.374 50.6049C588.374 22.9907 565.988 0.604919 538.374 0.604919H50.3735C22.7593 0.604919 0.373535 22.9907 0.373535 50.6049V411.368C0.636725 411.355 0.901636 411.348 1.16811 411.348C9.76986 411.348 16.743 418.305 16.743 426.886C16.743 435.468 9.76986 442.424 1.16811 442.424C0.901636 442.424 0.636725 442.417 0.373535 442.404V510.605C0.373535 538.219 22.7593 560.605 50.3735 560.605H538.374C565.988 560.605 588.374 538.219 588.374 510.605V442.422C588.278 442.423 588.183 442.424 588.088 442.424C579.486 442.424 572.513 435.468 572.513 426.886C572.513 418.305 579.486 411.348 588.088 411.348C588.183 411.348 588.278 411.349 588.374 411.351V50.6049Z" fill="white"/>
<path d="M0.373535 411.368H-0.626465V412.42L0.423564 412.367L0.373535 411.368ZM0.373535 442.404L0.423564 441.405L-0.626465 441.353V442.404H0.373535ZM588.374 442.422H589.374V441.403L588.356 441.422L588.374 442.422ZM588.374 411.351L588.356 412.351L589.374 412.369V411.351H588.374ZM538.374 1.60492C565.435 1.60492 587.374 23.543 587.374 50.6049H589.374C589.374 22.4384 566.54 -0.395081 538.374 -0.395081V1.60492ZM50.3735 1.60492H538.374V-0.395081H50.3735V1.60492ZM1.37354 50.6049C1.37354 23.543 23.3116 1.60492 50.3735 1.60492V-0.395081C22.207 -0.395081 -0.626465 22.4384 -0.626465 50.6049H1.37354ZM1.37354 411.368V50.6049H-0.626465V411.368H1.37354ZM0.423564 412.367C0.67013 412.355 0.91836 412.348 1.16811 412.348V410.348C0.884913 410.348 0.60332 410.356 0.323506 410.37L0.423564 412.367ZM1.16811 412.348C9.21982 412.348 15.743 418.859 15.743 426.886H17.743C17.743 417.75 10.3199 410.348 1.16811 410.348V412.348ZM15.743 426.886C15.743 434.913 9.21982 441.424 1.16811 441.424V443.424C10.3199 443.424 17.743 436.022 17.743 426.886H15.743ZM1.16811 441.424C0.91836 441.424 0.67013 441.418 0.423564 441.405L0.323506 443.403C0.60332 443.417 0.884913 443.424 1.16811 443.424V441.424ZM1.37354 510.605V442.404H-0.626465V510.605H1.37354ZM50.3735 559.605C23.3116 559.605 1.37354 537.667 1.37354 510.605H-0.626465C-0.626465 538.771 22.207 561.605 50.3735 561.605V559.605ZM538.374 559.605H50.3735V561.605H538.374V559.605ZM587.374 510.605C587.374 537.667 565.435 559.605 538.374 559.605V561.605C566.54 561.605 589.374 538.771 589.374 510.605H587.374ZM587.374 442.422V510.605H589.374V442.422H587.374ZM588.088 443.424C588.189 443.424 588.29 443.423 588.391 443.421L588.356 441.422C588.266 441.423 588.177 441.424 588.088 441.424V443.424ZM571.513 426.886C571.513 436.022 578.936 443.424 588.088 443.424V441.424C580.036 441.424 573.513 434.913 573.513 426.886H571.513ZM588.088 410.348C578.936 410.348 571.513 417.75 571.513 426.886H573.513C573.513 418.859 580.036 412.348 588.088 412.348V410.348ZM588.391 410.351C588.29 410.349 588.189 410.348 588.088 410.348V412.348C588.177 412.348 588.266 412.349 588.356 412.351L588.391 410.351ZM587.374 50.6049V411.351H589.374V50.6049H587.374Z" fill="#E9E9E9" mask="url(#path-1-inside-1_317_10160)"/>
</svg>
