<svg width="26" height="35" viewBox="0 0 26 35" fill="none" xmlns="http://www.w3.org/2000/svg">
<path d="M5.44444 23.9722H12.5556M5.44444 27.5277H17.8889M3.66667 33.75H22.3333C23.806 33.75 25 32.556 25 31.0833V4.41664C25 2.94387 23.806 1.74997 22.3333 1.74997H3.66667C2.1939 1.74997 1 2.94387 1 4.41664V31.0833C1 32.556 2.1939 33.75 3.66667 33.75ZM5.44444 1.74997H13.4444V13.75C13.4444 14.1771 12.9008 14.3583 12.6444 14.0166L11.5778 12.5944C10.5111 11.1722 8.37778 11.1722 7.31111 12.5944L6.24444 14.0166C5.98818 14.3583 5.44444 14.1771 5.44444 13.75V1.74997Z" stroke="#07ACEC" stroke-width="2" stroke-linecap="round"/>
</svg>
