<svg width="26" height="35" viewBox="0 0 26 35" fill="none" xmlns="http://www.w3.org/2000/svg">
<path d="M14.2443 28.7722C11.1012 28.7722 8.55545 25.9064 8.55545 22.3722C8.55545 18.8379 11.1012 15.9722 14.2443 15.9722H15.3821C18.9305 15.9722 21.3097 15.2746 24.1186 12.4975C24.1703 12.4463 24.1999 12.3758 24.1999 12.3031V12.3031C24.1999 12.1648 24.0966 12.0483 23.9596 12.0297C21.8486 11.7432 20.5677 11.267 20.1169 11.0767C20.0027 11.0285 19.9332 10.9161 19.9332 10.7921V10.7921C19.9332 10.695 19.9751 10.604 20.0515 10.5439C20.5138 10.1804 22.2748 8.86459 24.3195 8.22081C24.4586 8.17702 24.5554 8.0494 24.5554 7.90358V7.90358C24.5554 7.83271 24.5324 7.76356 24.4893 7.70732C22.3183 4.87656 19.0439 3.17216 15.3821 3.17216H14.2443C12.8087 3.1707 11.3832 3.4111 10.0274 3.88327M14.2443 28.7722C10.8496 28.7722 7.59383 27.4236 5.19337 25.0231C2.7929 22.6227 1.44434 19.3669 1.44434 15.9722M14.2443 28.7722C15.7414 26.0906 18.509 23.8998 21.6931 23.7981C21.8207 23.794 21.9243 23.8978 21.9243 24.0254V24.0254C21.9243 24.1031 21.8866 24.1748 21.8237 24.2206C21.3339 24.5766 19.2221 26.2576 19.2221 28.7722C19.2221 31.2867 21.3339 32.9677 21.8237 33.3238C21.8866 33.3695 21.9243 33.4412 21.9243 33.5189V33.5189C21.9243 33.6465 21.8207 33.7503 21.6931 33.7462C18.509 33.6445 15.7414 31.4538 14.2443 28.7722ZM10.0274 3.88327H9.97767C7.39899 3.88327 5.16623 2.40075 4.49466 1.90744C4.35869 1.80757 4.19655 1.74994 4.02785 1.74994V1.74994C3.75195 1.74994 3.50261 1.90408 3.40024 2.16029C2.88821 3.44185 1.44434 7.78184 1.44434 15.9722M10.0274 3.88327C7.51965 4.75919 5.34631 6.3933 3.80848 8.55926C2.27066 10.7252 1.44446 13.3158 1.44434 15.9722M17.0888 8.86105V7.43883" stroke="#FF9218" stroke-width="2" stroke-linecap="round"/>
</svg>
