<svg width="34" height="35" viewBox="0 0 34 35" fill="none" xmlns="http://www.w3.org/2000/svg">
<path d="M18.1106 28.9216C17.1451 29.8872 13.6228 27.9304 10.2436 24.5512C6.86429 21.1718 4.90754 17.6497 5.87306 16.6842C6.38851 16.1687 7.63268 16.4862 9.19476 17.4082M18.1106 28.9216C18.6206 28.4117 18.3152 27.1883 17.4156 25.6494M18.1106 28.9216C17.3938 29.6384 7.94438 32.3422 3.12412 33.6877C1.89312 34.0313 0.769206 32.898 1.11093 31.6664L1.45543 30.425M12.7098 30.6819C11.253 30.3905 9.87894 29.5992 7.46517 27.1855C5.05138 24.7717 3.96874 23.1063 3.96874 21.9409M8.20401 31.8354C7.3299 31.544 6.44722 31.244 4.99895 29.7957C3.55068 28.3475 3.25074 27.4648 2.95936 26.5907M12.7604 21.1167C16.0569 16.172 23.886 14.1118 27.1825 14.1118M11.9363 15.76C14.4087 12.0515 12.7604 7.93088 11.5242 6.28264M16.8811 22.3529C21.0016 20.7047 24.7102 22.3529 26.7705 25.2373M27.1825 3.39823V4.22235M27.1825 7.51882V8.34293M29.6549 5.87058H28.8307M25.5343 5.87058H24.7102M29.6549 26.4735V27.2976M29.6549 30.5941V31.4182M32.1272 28.9459H31.3031M28.0066 28.9459H27.1825M20.5896 9.16705C20.5896 10.0773 19.8515 10.8153 18.9413 10.8153C18.031 10.8153 17.2931 10.0773 17.2931 9.16705C17.2931 8.25676 18.031 7.51882 18.9413 7.51882C19.8515 7.51882 20.5896 8.25676 20.5896 9.16705ZM31.3029 19.8806C31.3029 20.7909 30.565 21.5288 29.6547 21.5288C28.7445 21.5288 28.0065 20.7909 28.0065 19.8806C28.0065 18.9703 28.7445 18.2323 29.6547 18.2323C30.565 18.2323 31.3029 18.9703 31.3029 19.8806ZM9.87614 2.57412C9.87614 3.02926 9.50717 3.39823 9.05203 3.39823C8.59688 3.39823 8.22791 3.02926 8.22791 2.57412C8.22791 2.11897 8.59688 1.75 9.05203 1.75C9.50717 1.75 9.87614 2.11897 9.87614 2.57412ZM32.9513 14.1118C32.9513 14.5669 32.5825 14.9359 32.1272 14.9359C31.6721 14.9359 31.3031 14.5669 31.3031 14.1118C31.3031 13.6566 31.6721 13.2876 32.1272 13.2876C32.5825 13.2876 32.9513 13.6566 32.9513 14.1118Z" stroke="#07ACEC" stroke-width="2" stroke-linecap="round"/>
</svg>
