<svg width="320" height="798" viewBox="0 0 320 798" fill="none" xmlns="http://www.w3.org/2000/svg">
<mask id="path-1-inside-1_339_8742" fill="white">
<path fill-rule="evenodd" clip-rule="evenodd" d="M320 30.1056C320 13.5371 306.569 0.105652 290 0.105652H30C13.4315 0.105652 0 13.5371 0 30.1056V604.851C0.0730845 604.85 0.146329 604.849 0.219727 604.849C6.84714 604.849 12.2197 610.209 12.2197 616.821C12.2197 623.432 6.84714 628.792 0.219727 628.792C0.146329 628.792 0.0730845 628.791 0 628.79V767.304C0 783.873 13.4315 797.304 30 797.304H290C306.569 797.304 320 783.873 320 767.304V628.739C313.907 628.167 309.139 623.049 309.139 616.821C309.139 610.592 313.907 605.475 320 604.902V30.1056Z"/>
</mask>
<path fill-rule="evenodd" clip-rule="evenodd" d="M320 30.1056C320 13.5371 306.569 0.105652 290 0.105652H30C13.4315 0.105652 0 13.5371 0 30.1056V604.851C0.0730845 604.85 0.146329 604.849 0.219727 604.849C6.84714 604.849 12.2197 610.209 12.2197 616.821C12.2197 623.432 6.84714 628.792 0.219727 628.792C0.146329 628.792 0.0730845 628.791 0 628.79V767.304C0 783.873 13.4315 797.304 30 797.304H290C306.569 797.304 320 783.873 320 767.304V628.739C313.907 628.167 309.139 623.049 309.139 616.821C309.139 610.592 313.907 605.475 320 604.902V30.1056Z" fill="white"/>
<path d="M0 604.851H-1V605.869L0.017535 605.851L0 604.851ZM0 628.79L0.017535 627.79L-1 627.772V628.79H0ZM320 628.739H321V627.828L320.094 627.743L320 628.739ZM320 604.902L320.094 605.898L321 605.813V604.902H320ZM290 1.10565C306.016 1.10565 319 14.0894 319 30.1056H321C321 12.9848 307.121 -0.894348 290 -0.894348V1.10565ZM30 1.10565H290V-0.894348H30V1.10565ZM1 30.1056C1 14.0894 13.9837 1.10565 30 1.10565V-0.894348C12.8792 -0.894348 -1 12.9848 -1 30.1056H1ZM1 604.851V30.1056H-1V604.851H1ZM0.017535 605.851C0.0850313 605.85 0.152425 605.849 0.219727 605.849V603.849C0.140233 603.849 0.0611378 603.85 -0.017535 603.851L0.017535 605.851ZM0.219727 605.849C6.2971 605.849 11.2197 610.763 11.2197 616.821H13.2197C13.2197 609.654 7.39718 603.849 0.219727 603.849V605.849ZM11.2197 616.821C11.2197 622.878 6.29711 627.792 0.219727 627.792V629.792C7.39718 629.792 13.2197 623.987 13.2197 616.821H11.2197ZM0.219727 627.792C0.152425 627.792 0.0850313 627.792 0.017535 627.79L-0.017535 629.79C0.0611378 629.791 0.140233 629.792 0.219727 629.792V627.792ZM1 767.304V628.79H-1V767.304H1ZM30 796.304C13.9837 796.304 1 783.321 1 767.304H-1C-1 784.425 12.8792 798.304 30 798.304V796.304ZM290 796.304H30V798.304H290V796.304ZM319 767.304C319 783.321 306.016 796.304 290 796.304V798.304C307.121 798.304 321 784.425 321 767.304H319ZM319 628.739V767.304H321V628.739H319ZM308.139 616.821C308.139 623.572 313.306 629.115 319.906 629.734L320.094 627.743C314.507 627.219 310.139 622.526 310.139 616.821H308.139ZM319.906 603.907C313.306 604.527 308.139 610.069 308.139 616.821H310.139C310.139 611.115 314.507 606.423 320.094 605.898L319.906 603.907ZM319 30.1056V604.902H321V30.1056H319Z" fill="#E9E9E9" mask="url(#path-1-inside-1_339_8742)"/>
</svg>
