<svg width="34" height="35" viewBox="0 0 34 35" fill="none" xmlns="http://www.w3.org/2000/svg">
<path d="M1 26.2207C1 24.1414 2.68551 22.456 4.7647 22.456H8.52941C10.6086 22.456 12.2941 24.1414 12.2941 26.2207V29.9854C12.2941 32.0646 10.6086 33.7501 8.52941 33.7501H4.7647C2.68551 33.7501 1 32.0646 1 29.9854V26.2207Z" stroke="#07ACEC" stroke-width="2" stroke-linecap="round"/>
<path d="M21.7051 26.2207C21.7051 24.1414 23.3905 22.456 25.4698 22.456H29.2345C31.3137 22.456 32.9992 24.1414 32.9992 26.2207V29.9854C32.9992 32.0646 31.3137 33.7501 29.2345 33.7501H25.4698C23.3905 33.7501 21.7051 32.0646 21.7051 29.9854V26.2207Z" stroke="#07ACEC" stroke-width="2" stroke-linecap="round"/>
<path d="M1 5.51476C1 3.43557 2.68551 1.75006 4.7647 1.75006H8.52941C10.6086 1.75006 12.2941 3.43557 12.2941 5.51476V9.27947C12.2941 11.3587 10.6086 13.0442 8.52941 13.0442H4.7647C2.68551 13.0442 1 11.3587 1 9.27947V5.51476Z" stroke="#07ACEC" stroke-width="2" stroke-linecap="round"/>
<path d="M21.7051 5.51476C21.7051 3.43557 23.3905 1.75006 25.4698 1.75006H29.2345C31.3137 1.75006 32.9992 3.43557 32.9992 5.51476V9.27947C32.9992 11.3587 31.3137 13.0442 29.2345 13.0442H25.4698C23.3905 13.0442 21.7051 11.3587 21.7051 9.27947V5.51476Z" stroke="#07ACEC" stroke-width="2" stroke-linecap="round"/>
</svg>
