<svg width="51" height="51" viewBox="0 0 51 51" fill="none" xmlns="http://www.w3.org/2000/svg">
<path d="M9.83094 20.7325L21.2008 3.46589C23.2769 0.313372 27.8525 0.313372 29.9286 3.46589L41.2986 20.7325M9.83094 20.7325H41.2986M9.83094 20.7325H6.82946M41.2986 20.7325H44.2998M8.11706 27.4625L14.3463 43.2321M44.2998 20.7325C47.9395 20.7325 50.4727 24.3937 49.2287 27.8567L42.5539 46.4404C41.8002 48.5385 39.8304 49.9355 37.625 49.9355H13.5044C11.299 49.9355 9.32924 48.5385 8.57557 46.4404L1.90062 27.8567C0.656844 24.3937 3.1899 20.7325 6.82946 20.7325M44.2998 20.7325H6.82946" stroke="#07ACEC" stroke-width="2" stroke-linecap="round"/>
</svg>
