<svg width="39" height="39" viewBox="0 0 39 39" fill="none" xmlns="http://www.w3.org/2000/svg">
<path d="M7.97828 16.0901L16.36 3.36129C17.8905 1.03728 21.2636 1.03728 22.7941 3.36129L31.176 16.0901M7.97828 16.0901H31.176M7.97828 16.0901H5.76561M31.176 16.0901H33.3884M6.71482 21.0514L11.307 32.6766M33.3884 16.0901C36.0716 16.0901 37.939 18.7891 37.0219 21.342L32.1013 35.0418C31.5458 36.5885 30.0936 37.6183 28.4678 37.6183H10.6863C9.06052 37.6183 7.60843 36.5885 7.05283 35.0418L2.13212 21.342C1.21522 18.7891 3.08256 16.0901 5.76561 16.0901M33.3884 16.0901H5.76561" stroke="white" stroke-width="2" stroke-linecap="round"/>
</svg>
