<svg width="1441" height="803" viewBox="0 0 1441 803" fill="none" xmlns="http://www.w3.org/2000/svg">
<mask id="path-1-inside-1_241_4187" fill="white">
<path fill-rule="evenodd" clip-rule="evenodd" d="M491.547 5.3072C487.948 1.11806 482.112 1.11806 478.513 5.30719L469.975 15.2454C464.796 21.2732 457.245 24.741 449.298 24.741C441.351 24.741 433.725 21.186 428.547 15.1582C424.948 10.9691 419.112 10.9691 415.513 15.1582C410.287 21.2414 402.667 24.741 394.647 24.741H50.27C22.6558 24.741 0.27002 47.1269 0.27002 74.7411V752.316C0.27002 779.93 22.6558 802.316 50.27 802.316H1390.27C1417.88 802.316 1440.27 779.93 1440.27 752.316V74.741C1440.27 47.1268 1417.88 24.741 1390.27 24.741H560.978C555.431 24.741 550.161 22.3207 546.547 18.1136C542.948 13.9244 537.112 13.9244 533.513 18.1136C529.899 22.3207 524.628 24.741 519.082 24.741H518.031C511.818 24.741 505.913 22.0296 501.864 17.3165L491.547 5.3072Z"/>
</mask>
<path fill-rule="evenodd" clip-rule="evenodd" d="M491.547 5.3072C487.948 1.11806 482.112 1.11806 478.513 5.30719L469.975 15.2454C464.796 21.2732 457.245 24.741 449.298 24.741C441.351 24.741 433.725 21.186 428.547 15.1582C424.948 10.9691 419.112 10.9691 415.513 15.1582C410.287 21.2414 402.667 24.741 394.647 24.741H50.27C22.6558 24.741 0.27002 47.1269 0.27002 74.7411V752.316C0.27002 779.93 22.6558 802.316 50.27 802.316H1390.27C1417.88 802.316 1440.27 779.93 1440.27 752.316V74.741C1440.27 47.1268 1417.88 24.741 1390.27 24.741H560.978C555.431 24.741 550.161 22.3207 546.547 18.1136C542.948 13.9244 537.112 13.9244 533.513 18.1136C529.899 22.3207 524.628 24.741 519.082 24.741H518.031C511.818 24.741 505.913 22.0296 501.864 17.3165L491.547 5.3072Z" fill="white"/>
<path d="M478.513 5.30719L476.996 4.00387V4.00387L478.513 5.30719ZM491.547 5.3072L490.029 6.61051V6.61052L491.547 5.3072ZM501.864 17.3165L500.347 18.6198L501.864 17.3165ZM546.547 18.1136L545.029 19.4169V19.4169L546.547 18.1136ZM415.513 15.1582L413.996 13.8549V13.8549L415.513 15.1582ZM428.547 15.1582L427.029 16.4616V16.4616L428.547 15.1582ZM469.975 15.2454L468.458 13.9421L469.975 15.2454ZM480.03 6.61052C482.831 3.35028 487.229 3.35029 490.029 6.61051L493.064 4.00388C488.666 -1.11417 481.393 -1.11416 476.996 4.00387L480.03 6.61052ZM471.492 16.5487L480.03 6.61052L476.996 4.00387L468.458 13.9421L471.492 16.5487ZM417.03 16.4616C419.831 13.2013 424.229 13.2013 427.029 16.4616L430.064 13.8549C425.666 8.73688 418.393 8.73689 413.996 13.8549L417.03 16.4616ZM50.27 26.741H394.647V22.741H50.27V26.741ZM2.27002 752.316V74.7411H-1.72998V752.316H2.27002ZM1390.27 800.316H50.27V804.316H1390.27V800.316ZM1438.27 74.741V752.316H1442.27V74.741H1438.27ZM560.978 26.741H1390.27V22.741H560.978V26.741ZM535.03 19.4169C537.831 16.1567 542.229 16.1567 545.029 19.4169L548.064 16.8103C543.667 11.6922 536.393 11.6922 531.996 16.8103L535.03 19.4169ZM518.031 26.741H519.082V22.741H518.031V26.741ZM490.029 6.61052L500.347 18.6198L503.381 16.0132L493.064 4.00387L490.029 6.61052ZM518.031 22.741C512.401 22.741 507.05 20.284 503.381 16.0132L500.347 18.6198C504.776 23.7752 511.234 26.741 518.031 26.741V22.741ZM560.978 22.741C556.014 22.741 551.298 20.5751 548.064 16.8103L545.029 19.4169C549.024 24.0662 554.848 26.741 560.978 26.741V22.741ZM1442.27 74.741C1442.27 46.0222 1418.99 22.741 1390.27 22.741V26.741C1416.78 26.741 1438.27 48.2314 1438.27 74.741H1442.27ZM1390.27 804.316C1418.99 804.316 1442.27 781.034 1442.27 752.316H1438.27C1438.27 778.825 1416.78 800.316 1390.27 800.316V804.316ZM413.996 13.8549C409.15 19.4958 402.083 22.741 394.647 22.741V26.741C403.25 26.741 411.424 22.9869 417.03 16.4616L413.996 13.8549ZM-1.72998 752.316C-1.72998 781.034 21.5512 804.316 50.27 804.316V800.316C23.7603 800.316 2.27002 778.825 2.27002 752.316H-1.72998ZM531.996 16.8102C528.762 20.5751 524.045 22.741 519.082 22.741V26.741C525.211 26.741 531.036 24.0662 535.03 19.4169L531.996 16.8102ZM449.298 22.741C441.943 22.741 434.868 19.4473 430.064 13.8549L427.029 16.4616C432.582 22.9248 440.759 26.741 449.298 26.741V22.741ZM50.27 22.741C21.5512 22.741 -1.72998 46.0223 -1.72998 74.7411H2.27002C2.27002 48.2314 23.7604 26.741 50.27 26.741V22.741ZM468.458 13.9421C463.659 19.5276 456.662 22.741 449.298 22.741V26.741C457.828 26.741 465.933 23.0188 471.492 16.5487L468.458 13.9421Z" fill="#07ACEC" mask="url(#path-1-inside-1_241_4187)"/>
<path d="M450.694 2.25165C450.522 1.99323 450.209 1.8731 449.907 1.94349C449.605 2.01388 449.379 2.26996 449.336 2.5792L449.177 3.73512C448.682 3.78875 448.213 3.89907 447.783 4.04013C447.359 4.18047 446.962 4.35297 446.61 4.54061L444.978 2.62647C444.759 2.36926 444.394 2.29346 444.089 2.44269C443.784 2.59192 443.617 2.92795 443.679 3.2631L444.072 5.39389L442.451 6.83136C442.196 7.05752 442.123 7.42609 442.272 7.73125C442.42 8.0364 442.752 8.20054 443.086 8.13331L445.55 7.62852C445.715 7.9918 445.918 8.37316 446.167 8.74512C446.419 9.12081 446.72 9.49605 447.078 9.84336L446.492 10.8524C446.336 11.1223 446.359 11.4617 446.552 11.7024C446.745 11.9431 447.065 12.0409 447.362 11.9437L449.515 11.2348C450.753 11.5612 451.955 11.4016 452.946 11.0749C454.033 10.7168 454.92 10.1424 455.427 9.69903C455.63 9.52241 455.724 9.24845 455.673 8.98404C455.546 8.32265 455.198 7.3237 454.563 6.3729C453.981 5.50499 453.134 4.64074 451.957 4.1361L450.694 2.25165ZM451.42 7.92194C451.485 7.73291 451.622 7.57713 451.8 7.48888C451.978 7.40064 452.182 7.38715 452.369 7.45139C452.556 7.51563 452.709 7.65233 452.795 7.83142C452.881 8.01051 452.893 8.21732 452.828 8.40636C452.763 8.59539 452.626 8.75117 452.448 8.83942C452.27 8.92766 452.065 8.94115 451.879 8.87691C451.692 8.81267 451.539 8.67597 451.453 8.49688C451.367 8.31779 451.355 8.11098 451.42 7.92194Z" fill="#07ACEC"/>
</svg>
