<svg width="24" height="24" viewBox="0 0 24 24" fill="none" xmlns="http://www.w3.org/2000/svg">
<path d="M19.1596 3.51472L12.0001 10.6742L4.84065 3.51472C4.47452 3.14859 3.88095 3.14859 3.51482 3.51472C3.1487 3.88085 3.1487 4.47442 3.51482 4.84054L10.6743 12L3.51482 19.1595C3.1487 19.5256 3.1487 20.1192 3.51482 20.4853C3.88095 20.8514 4.47452 20.8514 4.84065 20.4853L12.0001 13.3258L19.1596 20.4853C19.5257 20.8514 20.1193 20.8514 20.4854 20.4853C20.8515 20.1192 20.8515 19.5256 20.4854 19.1595L13.3259 12L20.4854 4.84054C20.8515 4.47442 20.8515 3.88085 20.4854 3.51472C20.1193 3.14859 19.5257 3.14859 19.1596 3.51472Z" fill="#ffffff"/>
</svg>
