<svg width="17" height="18" viewBox="0 0 17 18" fill="none" xmlns="http://www.w3.org/2000/svg">
<path d="M0.890625 1.01904L2.72675 1.66709C3.43752 1.91795 3.91285 2.58976 3.91285 3.34351V7.24127C3.91285 9.69584 5.9027 11.6857 8.35729 11.6857H11.6462C14.0517 11.6857 16.0017 9.73567 16.0017 7.33015C16.0017 4.92465 14.0517 2.9746 11.6462 2.9746H6.93507M7.11285 15.2413C7.11285 16.2231 6.31691 17.019 5.33507 17.019C4.35323 17.019 3.55729 16.2231 3.55729 15.2413C3.55729 14.2594 4.35323 13.4635 5.33507 13.4635C6.31691 13.4635 7.11285 14.2594 7.11285 15.2413ZM16.0017 15.2413C16.0017 16.2231 15.2058 17.019 14.224 17.019C13.2421 17.019 12.4462 16.2231 12.4462 15.2413C12.4462 14.2594 13.2421 13.4635 14.224 13.4635C15.2058 13.4635 16.0017 14.2594 16.0017 15.2413Z" stroke="#ABABAB" stroke-width="1.25" stroke-linecap="round"/>
</svg>
