<svg width="18" height="15" viewBox="0 0 18 15" fill="none" xmlns="http://www.w3.org/2000/svg">
<path d="M3.03675 6.86842H15.6683M3.03675 6.86842C2.10659 6.86842 1.35254 7.62244 1.35254 8.55263V11.9211H2.35254M3.03675 6.86842L4.59868 2.13058C4.82629 1.44015 5.47123 0.973686 6.19821 0.973686H12.5069C13.2339 0.973686 13.8788 1.44015 14.1064 2.13058L15.6683 6.86842M15.6683 6.86842C16.5985 6.86842 17.3525 7.62244 17.3525 8.55263V11.9211H16.3525M2.35254 11.9211V13.2632C2.35254 13.6847 2.69421 14.0263 3.1157 14.0263C3.53718 14.0263 3.87885 13.6847 3.87885 13.2632V11.9211M2.35254 11.9211H3.87885M16.3525 11.9211V13.2632C16.3525 13.6847 16.0109 14.0263 15.5893 14.0263C15.1679 14.0263 14.8262 13.6847 14.8262 13.2632V11.9211M16.3525 11.9211H14.8262M14.8262 11.9211H3.87885M5.14201 9.39474C5.14201 9.62724 4.9535 9.81579 4.72096 9.81579C4.48842 9.81579 4.29991 9.62724 4.29991 9.39474C4.29991 9.16223 4.48842 8.97369 4.72096 8.97369C4.9535 8.97369 5.14201 9.16223 5.14201 9.39474ZM14.4052 9.39474C14.4052 9.62724 14.2166 9.81579 13.9841 9.81579C13.7516 9.81579 13.5631 9.62724 13.5631 9.39474C13.5631 9.16223 13.7516 8.97369 13.9841 8.97369C14.2166 8.97369 14.4052 9.16223 14.4052 9.39474Z" stroke="#07ACEC" stroke-width="1.25" stroke-linecap="round"/>
</svg>
