<svg width="15" height="12" viewBox="0 0 15 12" fill="none" xmlns="http://www.w3.org/2000/svg">
<path d="M9.41987 1.28742C9.248 1.029 8.93504 0.908868 8.63281 0.979255C8.33058 1.04964 8.10469 1.30572 8.06226 1.61496L7.9032 2.77089C7.40745 2.82451 6.93894 2.93484 6.50906 3.0759C6.08434 3.21624 5.68793 3.38874 5.33552 3.57638L3.70356 1.66224C3.48452 1.40502 3.11941 1.32923 2.81466 1.47846C2.5099 1.62769 2.34262 1.96372 2.40445 2.29887L2.79814 4.42966L1.17673 5.86713C0.921781 6.09328 0.849093 6.46186 0.997512 6.76701C1.14593 7.07217 1.47819 7.23631 1.81131 7.16908L4.27554 6.66428C4.44086 7.02757 4.64425 7.40893 4.8927 7.78088C5.14478 8.15658 5.44623 8.53182 5.80403 8.87912L5.21819 9.88821C5.06137 10.1581 5.08484 10.4975 5.27758 10.7382C5.47032 10.9789 5.79094 11.0767 6.08763 10.9795L8.24076 10.2705C9.47915 10.597 10.6806 10.4374 11.6713 10.1107C12.759 9.75252 13.6455 9.17819 14.1523 8.73479C14.3558 8.55818 14.45 8.28421 14.3983 8.0198C14.2716 7.35842 13.9239 6.35946 13.2891 5.40867C12.7069 4.54076 11.8602 3.6765 10.6832 3.17187L9.41987 1.28742ZM10.1457 6.95771C10.2108 6.76867 10.3473 6.6129 10.5253 6.52465C10.7033 6.4364 10.9082 6.42292 11.0949 6.48715C11.2816 6.55139 11.4349 6.68809 11.5209 6.86718C11.6069 7.04628 11.6187 7.25309 11.5537 7.44212C11.4886 7.63116 11.3521 7.78694 11.1741 7.87518C10.9961 7.96343 10.7912 7.97692 10.6045 7.91268C10.4178 7.84844 10.2645 7.71174 10.1785 7.53265C10.0925 7.35356 10.0807 7.14674 10.1457 6.95771Z" fill="#07ACEC"/>
</svg>
