<svg width="22" height="18" viewBox="0 0 22 18" fill="none" xmlns="http://www.w3.org/2000/svg">
<path d="M15.6264 2.64265C15.4375 2.17187 14.9778 1.88386 14.4723 1.90851C13.9669 1.93316 13.522 2.28211 13.3523 2.77184L12.7171 4.60233C11.9084 4.54232 11.1245 4.58251 10.3921 4.68407C9.6681 4.78601 8.9787 4.94859 8.3545 5.14881L6.38219 1.5552C6.11757 1.07239 5.56003 0.840916 5.02455 0.992892C4.48906 1.14487 4.11129 1.64108 4.09936 2.20384L4.02449 5.78192L0.963217 7.6358C0.481815 7.9275 0.244233 8.50465 0.380361 9.04438C0.516489 9.58412 0.992458 9.94934 1.54616 9.93899L5.64447 9.85025C5.78839 10.4894 5.98708 11.1693 6.26077 11.8472C6.53903 12.5323 6.89619 13.2313 7.35249 13.9016L6.08483 15.3669C5.74557 15.7588 5.67104 16.317 5.89916 16.7652C6.12727 17.2134 6.60654 17.4675 7.112 17.3976L10.7813 16.8849C12.6495 17.7827 14.619 17.8799 16.3076 17.6432C18.1612 17.3842 19.7651 16.7143 20.7201 16.1445C21.103 15.918 21.3438 15.5009 21.3485 15.0561C21.3645 13.9441 21.1394 12.2182 20.4402 10.4854C19.7977 8.90278 18.7319 7.24764 17.0203 6.07862L15.6264 2.64265ZM14.9138 12.0689C15.0799 11.7811 15.3492 11.5686 15.6623 11.478C15.9755 11.3875 16.3068 11.4264 16.5835 11.5862C16.8602 11.7459 17.0596 12.0134 17.1377 12.3299C17.2159 12.6463 17.1665 12.9858 17.0004 13.2735C16.8342 13.5613 16.565 13.7738 16.2518 13.8643C15.9387 13.9549 15.6073 13.916 15.3306 13.7562C15.0539 13.5965 14.8546 13.329 14.7764 13.0125C14.6982 12.6961 14.7476 12.3566 14.9138 12.0689Z" fill="#07ACEC"/>
</svg>
