<svg width="31" height="24" viewBox="0 0 31 24" fill="none" xmlns="http://www.w3.org/2000/svg">
<path d="M13.2558 0.327702C12.6566 0.0215696 11.9459 0.134105 11.4619 0.599174C10.978 1.06424 10.8371 1.80086 11.0941 2.4385L12.0539 4.82249C11.1929 5.46712 10.444 6.19038 9.80003 6.93015C9.16489 7.66291 8.61712 8.4262 8.16737 9.17032L3.06373 7.29518C2.3784 7.04294 1.61915 7.29726 1.21608 7.91584C0.813 8.53442 0.867586 9.35981 1.34602 9.93297L4.3889 13.5764L2.94292 18.0977C2.71568 18.8089 2.98099 19.5931 3.58742 20.0142C4.19384 20.4354 4.98806 20.3859 5.53276 19.8931L9.55386 16.2333C10.2547 16.747 11.0458 17.2538 11.9102 17.6932C12.7854 18.1359 13.7517 18.5237 14.7921 18.7964L14.8012 21.3664C14.8033 22.0538 15.2152 22.6771 15.8339 22.9265C16.4525 23.1759 17.1532 23.0124 17.5978 22.5021L20.8205 18.7921C23.471 18.0621 25.5253 16.4432 27.0077 14.7351C28.6356 12.861 29.6559 10.7935 30.1143 9.39156C30.2999 8.8314 30.1773 8.20452 29.7943 7.75555C28.8415 6.6296 27.1125 5.09983 24.9034 3.97618C22.8819 2.95341 20.3739 2.22688 17.6436 2.54921L13.2558 0.327702ZM20.7566 10.3751C20.672 9.94258 20.7561 9.49544 20.9903 9.13207C21.2246 8.76869 21.5899 8.51885 22.0058 8.43751C22.4217 8.35616 22.8541 8.44998 23.2081 8.69832C23.562 8.94665 23.8083 9.32917 23.8929 9.76172C23.9775 10.1943 23.8934 10.6414 23.6592 11.0048C23.4249 11.3682 23.0596 11.618 22.6437 11.6993C22.2278 11.7807 21.7954 11.6869 21.4414 11.4385C21.0875 11.1902 20.8412 10.8077 20.7566 10.3751Z" fill="#07ACEC"/>
</svg>
