<svg width="14" height="12" viewBox="0 0 14 12" fill="none" xmlns="http://www.w3.org/2000/svg">
<path d="M7.01892 1.09701C6.78305 0.89529 6.4492 0.865101 6.17764 1.01528C5.90608 1.16545 5.75863 1.47345 5.80218 1.78253L5.96453 2.938C5.50222 3.12485 5.08158 3.35882 4.7065 3.61181C4.33619 3.86271 4.00188 4.13682 3.71403 4.41349L1.62174 3.01723C1.34084 2.82954 0.9689 2.85623 0.716422 3.08295C0.463943 3.30967 0.394689 3.67859 0.545613 3.98415L1.50573 5.92669L0.338034 7.752C0.154456 8.03913 0.185088 8.41356 0.411133 8.66664C0.637178 8.91972 1.00161 8.98698 1.30376 8.83142L3.53676 7.67344C3.79493 7.97784 4.09465 8.28924 4.43516 8.57929C4.78018 8.87196 5.17257 9.15072 5.61156 9.38722L5.32326 10.5179C5.24602 10.8203 5.36119 11.1404 5.61229 11.3194C5.86339 11.4983 6.19854 11.505 6.45746 11.3305L8.33546 10.061C9.61594 10.0372 10.7282 9.55587 11.5922 8.97123C12.5409 8.32992 13.2371 7.53551 13.6037 6.97065C13.7513 6.74523 13.7672 6.45594 13.6453 6.21567C13.3429 5.61395 12.7359 4.74775 11.8658 4.00623C11.0689 3.33009 10.0185 2.72963 8.74842 2.56529L7.01892 1.09701ZM9.26431 6.35413C9.27531 6.15452 9.36417 5.9674 9.51135 5.83393C9.65853 5.70047 9.85196 5.63159 10.0491 5.64245C10.2463 5.65331 10.431 5.74302 10.5626 5.89185C10.6942 6.04067 10.762 6.23642 10.751 6.43603C10.74 6.63564 10.6511 6.82276 10.5039 6.95623C10.3568 7.08969 10.1633 7.15857 9.96618 7.14771C9.76904 7.13685 9.58434 7.04714 9.45271 6.89831C9.32108 6.74949 9.25331 6.55374 9.26431 6.35413Z" fill="#07ACEC"/>
</svg>
