<svg width="23" height="18" viewBox="0 0 23 18" fill="none" xmlns="http://www.w3.org/2000/svg">
<path d="M13.9814 1.25628C13.6999 0.834296 13.1909 0.646757 12.7012 0.774611C12.2116 0.902466 11.8478 1.33529 11.7822 1.84943L11.5362 3.77131C10.7324 3.87854 9.97341 4.07875 9.27742 4.32847C8.5898 4.57681 7.94843 4.8774 7.37861 5.20146L4.71079 2.08911C4.35271 1.67088 3.75954 1.55875 3.26664 1.81738C2.77374 2.07602 2.50584 2.63919 2.60966 3.19242L3.27069 6.70971L0.655032 9.15237C0.243742 9.53666 0.12966 10.1503 0.373656 10.6506C0.617653 11.1509 1.15844 11.4107 1.69823 11.2869L5.6911 10.359C5.96313 10.955 6.29711 11.5796 6.7041 12.187C7.11703 12.8004 7.61004 13.4112 8.1942 13.9736L7.25424 15.6679C7.00262 16.121 7.04424 16.6827 7.35948 17.0745C7.67471 17.4663 8.19592 17.6167 8.67629 17.4446L12.1623 16.1897C14.1749 16.685 16.1225 16.376 17.7266 15.7978C19.4875 15.1639 20.9198 14.1791 21.7376 13.4254C22.0658 13.1251 22.2159 12.6675 22.1292 12.2312C21.9167 11.1396 21.3422 9.49666 20.3022 7.94418C19.3486 6.52714 17.9659 5.12594 16.0508 4.33306L13.9814 1.25628ZM15.2184 10.6281C15.322 10.3124 15.5419 10.0491 15.8298 9.89624C16.1177 9.74339 16.45 9.71345 16.7536 9.81301C17.0572 9.91258 17.3072 10.1335 17.4486 10.4272C17.5901 10.7208 17.6114 11.0632 17.5078 11.3789C17.4043 11.6947 17.1844 11.9579 16.8965 12.1108C16.6086 12.2636 16.2763 12.2936 15.9727 12.194C15.6691 12.0945 15.4191 11.8735 15.2776 11.5799C15.1362 11.2862 15.1149 10.9438 15.2184 10.6281Z" fill="white"/>
</svg>
