<svg width="15" height="11" viewBox="0 0 15 11" fill="none" xmlns="http://www.w3.org/2000/svg">
<path d="M9.41987 0.527198C9.248 0.268776 8.93504 0.148645 8.63281 0.219032C8.33058 0.289419 8.10469 0.545501 8.06226 0.85474L7.9032 2.01067C7.40745 2.06429 6.93894 2.17462 6.50906 2.31567C6.08434 2.45602 5.68793 2.62852 5.33552 2.81615L3.70356 0.902012C3.48452 0.644801 3.11941 0.569002 2.81466 0.718234C2.5099 0.867466 2.34262 1.2035 2.40445 1.53864L2.79814 3.66944L1.17673 5.10691C0.921781 5.33306 0.849093 5.70164 0.997512 6.00679C1.14593 6.31194 1.47819 6.47608 1.81131 6.40885L4.27554 5.90406C4.44086 6.26734 4.64425 6.6487 4.8927 7.02066C5.14478 7.39635 5.44623 7.7716 5.80403 8.1189L5.21819 9.12799C5.06137 9.39787 5.08484 9.73725 5.27758 9.97794C5.47032 10.2186 5.79094 10.3165 6.08763 10.2193L8.24076 9.5103C9.47915 9.83675 10.6806 9.67717 11.6713 9.35044C12.759 8.9923 13.6455 8.41797 14.1523 7.97457C14.3558 7.79796 14.45 7.52399 14.3983 7.25958C14.2716 6.5982 13.9239 5.59924 13.2891 4.64844C12.7069 3.78053 11.8602 2.91628 10.6832 2.41164L9.41987 0.527198ZM10.1457 6.19748C10.2108 6.00845 10.3473 5.85267 10.5253 5.76443C10.7033 5.67618 10.9082 5.66269 11.0949 5.72693C11.2816 5.79117 11.4349 5.92787 11.5209 6.10696C11.6069 6.28605 11.6187 6.49286 11.5537 6.6819C11.4886 6.87094 11.3521 7.02671 11.1741 7.11496C10.9961 7.2032 10.7912 7.21669 10.6045 7.15245C10.4178 7.08822 10.2645 6.95152 10.1785 6.77242C10.0925 6.59333 10.0807 6.38652 10.1457 6.19748Z" fill="white"/>
</svg>
