<svg width="30" height="24" viewBox="0 0 30 24" fill="none" xmlns="http://www.w3.org/2000/svg">
<path d="M13.4313 0.436981C12.8488 0.100137 12.1333 0.175606 11.6258 0.614906C11.1183 1.05421 10.9394 1.78252 11.1629 2.43265L11.9976 4.86327C11.1043 5.46231 10.3188 6.14569 9.63726 6.85101C8.96491 7.54978 8.37824 8.28359 7.89044 9.00334L2.89109 6.86563C2.21979 6.57813 1.44836 6.79268 1.0137 7.38948C0.579031 7.98628 0.590669 8.8134 1.03869 9.41064L3.8882 13.2072L2.20931 17.6473C1.94544 18.3458 2.16966 19.1427 2.75339 19.5947C3.33712 20.0468 4.13284 20.0386 4.7024 19.5747L8.90817 16.1288C9.58141 16.6783 10.3451 17.2254 11.1855 17.7092C12.0365 18.1967 12.9813 18.6342 14.0062 18.9606L13.8818 21.5275C13.8482 22.2142 14.2272 22.858 14.832 23.1392C15.4369 23.4204 16.1451 23.2935 16.6156 22.807L20.0266 19.2694C22.7115 18.678 24.8472 17.1681 26.4162 15.5393C28.1393 13.7523 29.2656 11.7406 29.7963 10.3643C30.0107 9.81455 29.9208 9.18214 29.5617 8.71389C28.6686 7.53997 27.0215 5.92245 24.8737 4.68556C22.908 3.55917 20.4411 2.70334 17.6978 2.88341L13.4313 0.436981ZM20.4001 10.8605C20.3381 10.4241 20.4453 9.98194 20.6981 9.63123C20.9509 9.28051 21.3287 9.04998 21.7482 8.99035C22.1678 8.93072 22.5948 9.04688 22.9353 9.31326C23.2759 9.57965 23.502 9.97444 23.564 10.4108C23.626 10.8472 23.5189 11.2893 23.266 11.64C23.0132 11.9908 22.6355 12.2213 22.2159 12.2809C21.7963 12.3405 21.3693 12.2244 21.0288 11.958C20.6882 11.6916 20.4621 11.2968 20.4001 10.8605Z" fill="white"/>
</svg>
