<svg width="14" height="11" viewBox="0 0 14 11" fill="none" xmlns="http://www.w3.org/2000/svg">
<path d="M7.12409 0.337417C6.89241 0.130903 6.55925 0.0938794 6.28467 0.238459C6.01008 0.383039 5.85636 0.687949 5.89356 0.99786L6.0322 2.15641C5.56616 2.33375 5.14082 2.55905 4.76063 2.8043C4.38525 3.04755 4.0454 3.31476 3.75194 3.58547L1.6887 2.14662C1.4117 1.95322 1.03929 1.97228 0.782223 2.19378C0.525152 2.41527 0.448351 2.7827 0.592982 3.09129L1.51308 5.0531L0.30823 6.85409C0.118807 7.13741 0.141759 7.51238 0.36257 7.77004C0.583381 8.0277 0.946357 8.10242 1.25163 7.95307L3.5079 6.84111C3.75977 7.15072 4.05305 7.4682 4.38754 7.76518C4.7265 8.06485 5.11309 8.35159 5.54714 8.59704L5.23573 9.72154C5.15231 10.0223 5.2609 10.3447 5.50827 10.5288C5.75565 10.7129 6.09059 10.7264 6.35303 10.5573L8.25666 9.32651C9.53735 9.32894 10.6593 8.87052 11.5351 8.30371C12.4967 7.68197 13.209 6.90199 13.5871 6.34477C13.7393 6.12242 13.7611 5.83351 13.6442 5.5908C13.3542 4.98301 12.7651 4.10455 11.9103 3.34536C11.1274 2.65302 10.0896 2.03116 8.82314 1.84083L7.12409 0.337417ZM9.26128 5.63944C9.27636 5.4401 9.36904 5.25484 9.51892 5.12442C9.66881 4.994 9.86362 4.9291 10.0605 4.944C10.2574 4.9589 10.4402 5.05238 10.5688 5.20387C10.6973 5.35536 10.761 5.55246 10.746 5.7518C10.7309 5.95114 10.6382 6.1364 10.4883 6.26682C10.3384 6.39724 10.1436 6.46214 9.94674 6.44724C9.74986 6.43234 9.56703 6.33887 9.43848 6.18737C9.30994 6.03588 9.24619 5.83879 9.26128 5.63944Z" fill="white"/>
</svg>
