<svg width="256" height="49" viewBox="0 0 256 49" fill="none" xmlns="http://www.w3.org/2000/svg">
<path d="M64.9745 31.3783C64.4145 31.3783 64.1345 31.0583 64.1345 30.4183V19.1183C64.1345 18.465 64.4011 18.1383 64.9345 18.1383C65.2611 18.1383 65.5478 18.3083 65.7945 18.6483L69.4945 23.8283L73.2145 18.6483C73.4545 18.3083 73.7345 18.1383 74.0545 18.1383C74.6011 18.1383 74.8745 18.465 74.8745 19.1183V30.4183C74.8745 31.0583 74.5945 31.3783 74.0345 31.3783C73.4745 31.3783 73.1945 31.0383 73.1945 30.3583V21.0383L70.2245 25.2583C70.1111 25.425 70.0011 25.535 69.8945 25.5883C69.7878 25.635 69.6611 25.6583 69.5145 25.6583C69.3611 25.6583 69.2278 25.635 69.1145 25.5883C69.0078 25.535 68.8978 25.425 68.7845 25.2583L65.8145 21.0383V30.3583C65.8145 31.0383 65.5345 31.3783 64.9745 31.3783ZM82.7217 31.2383C81.4417 31.2383 80.4217 31.125 79.6617 30.8983C78.9083 30.665 78.365 30.2816 78.0317 29.7483C77.705 29.2083 77.5417 28.4783 77.5417 27.5583V25.4583C77.5417 24.5383 77.705 23.8116 78.0317 23.2783C78.365 22.7383 78.9083 22.355 79.6617 22.1283C80.4217 21.895 81.4417 21.7783 82.7217 21.7783H83.3017C84.5817 21.7783 85.5983 21.895 86.3517 22.1283C87.105 22.3616 87.645 22.7483 87.9717 23.2883C88.2983 23.8216 88.4617 24.545 88.4617 25.4583V27.5583C88.4617 28.4716 88.2983 29.1983 87.9717 29.7383C87.645 30.2716 87.105 30.655 86.3517 30.8883C85.5983 31.1216 84.5817 31.2383 83.3017 31.2383H82.7217ZM82.7217 29.5583H83.3017C84.3017 29.5583 85.0483 29.5116 85.5417 29.4183C86.0417 29.3183 86.3717 29.1216 86.5317 28.8283C86.6983 28.5283 86.7817 28.085 86.7817 27.4983V25.5183C86.7817 24.925 86.6983 24.4816 86.5317 24.1883C86.3717 23.895 86.0417 23.7016 85.5417 23.6083C85.0483 23.5083 84.3017 23.4583 83.3017 23.4583H82.7217C81.715 23.4583 80.9617 23.5083 80.4617 23.6083C79.9617 23.7016 79.6283 23.895 79.4617 24.1883C79.3017 24.4816 79.2217 24.925 79.2217 25.5183V27.4983C79.2217 28.085 79.3017 28.5283 79.4617 28.8283C79.6283 29.1216 79.9617 29.3183 80.4617 29.4183C80.9617 29.5116 81.715 29.5583 82.7217 29.5583ZM91.7667 34.8783C91.22 34.8783 90.9467 34.5383 90.9467 33.8583V22.5983C90.9467 21.9583 91.2333 21.6383 91.8067 21.6383C92.1067 21.6383 92.3133 21.7316 92.4267 21.9183C92.5467 22.105 92.6067 22.425 92.6067 22.8783V23.4783L92.3067 23.0783C92.7267 22.6183 93.2567 22.2883 93.8967 22.0883C94.5433 21.8816 95.2867 21.7783 96.1267 21.7783H96.7067C97.9867 21.7783 99.0033 21.895 99.7567 22.1283C100.51 22.3616 101.05 22.7483 101.377 23.2883C101.703 23.8216 101.867 24.545 101.867 25.4583V27.5583C101.867 28.4716 101.703 29.1983 101.377 29.7383C101.05 30.2716 100.513 30.655 99.7667 30.8883C99.0267 31.1216 98.0267 31.2383 96.7667 31.2383H92.6267V33.8583C92.6267 34.5383 92.34 34.8783 91.7667 34.8783ZM92.6267 29.5583H96.7667C97.7533 29.5583 98.49 29.5116 98.9767 29.4183C99.4633 29.3183 99.7867 29.1216 99.9467 28.8283C100.107 28.5283 100.187 28.085 100.187 27.4983V25.5183C100.187 24.925 100.103 24.4816 99.9367 24.1883C99.7767 23.895 99.4467 23.7016 98.9467 23.6083C98.4533 23.5083 97.7067 23.4583 96.7067 23.4583H96.1267C94.92 23.4583 94.0333 23.705 93.4667 24.1983C92.9067 24.685 92.6267 25.445 92.6267 26.4783V29.5583ZM109.245 31.2383C107.965 31.2383 106.945 31.125 106.185 30.8983C105.432 30.665 104.888 30.2816 104.555 29.7483C104.228 29.2083 104.065 28.4783 104.065 27.5583V25.4583C104.065 24.5383 104.228 23.8116 104.555 23.2783C104.888 22.7383 105.432 22.355 106.185 22.1283C106.945 21.895 107.965 21.7783 109.245 21.7783H109.825C111.105 21.7783 112.122 21.895 112.875 22.1283C113.628 22.3616 114.168 22.7483 114.495 23.2883C114.822 23.8216 114.985 24.545 114.985 25.4583V26.5383H105.745V27.4983C105.745 28.085 105.825 28.5283 105.985 28.8283C106.152 29.1216 106.485 29.3183 106.985 29.4183C107.485 29.5116 108.238 29.5583 109.245 29.5583H112.325C112.638 29.5583 112.845 29.5016 112.945 29.3883C113.052 29.275 113.105 29.0516 113.105 28.7183C113.105 28.385 113.178 28.125 113.325 27.9383C113.478 27.7516 113.688 27.6583 113.955 27.6583C114.228 27.665 114.435 27.7683 114.575 27.9683C114.715 28.1616 114.785 28.4383 114.785 28.7983C114.785 29.3516 114.702 29.8116 114.535 30.1783C114.368 30.5383 114.112 30.805 113.765 30.9783C113.425 31.1516 112.992 31.2383 112.465 31.2383H109.245ZM105.755 24.8583H113.295C113.222 24.2716 112.985 23.8983 112.585 23.7383C112.345 23.645 111.988 23.575 111.515 23.5283C111.048 23.4816 110.485 23.4583 109.825 23.4583H109.245C108.525 23.4583 107.928 23.485 107.455 23.5383C106.988 23.585 106.645 23.6583 106.425 23.7583C106.025 23.925 105.802 24.2916 105.755 24.8583ZM118.232 31.3783C117.672 31.3783 117.392 31.0583 117.392 30.4183V21.7783H127.512V30.4183C127.512 31.0583 127.232 31.3783 126.672 31.3783C126.112 31.3783 125.832 31.0583 125.832 30.4183V23.4583H119.072V30.4183C119.072 31.0583 118.792 31.3783 118.232 31.3783ZM131.103 34.8783C130.556 34.8783 130.283 34.5383 130.283 33.8583V22.5983C130.283 21.9583 130.569 21.6383 131.143 21.6383C131.443 21.6383 131.649 21.7316 131.763 21.9183C131.883 22.105 131.943 22.425 131.943 22.8783V23.4783L131.643 23.0783C132.063 22.6183 132.593 22.2883 133.233 22.0883C133.879 21.8816 134.623 21.7783 135.463 21.7783H136.043C137.323 21.7783 138.339 21.895 139.093 22.1283C139.846 22.3616 140.386 22.7483 140.713 23.2883C141.039 23.8216 141.203 24.545 141.203 25.4583V27.5583C141.203 28.4716 141.039 29.1983 140.713 29.7383C140.386 30.2716 139.849 30.655 139.103 30.8883C138.363 31.1216 137.363 31.2383 136.103 31.2383H131.963V33.8583C131.963 34.5383 131.676 34.8783 131.103 34.8783ZM131.963 29.5583H136.103C137.089 29.5583 137.826 29.5116 138.313 29.4183C138.799 29.3183 139.123 29.1216 139.283 28.8283C139.443 28.5283 139.523 28.085 139.523 27.4983V25.5183C139.523 24.925 139.439 24.4816 139.273 24.1883C139.113 23.895 138.783 23.7016 138.283 23.6083C137.789 23.5083 137.043 23.4583 136.043 23.4583H135.463C134.256 23.4583 133.369 23.705 132.803 24.1983C132.243 24.685 131.963 25.445 131.963 26.4783V29.5583ZM148.581 31.2383C147.301 31.2383 146.281 31.125 145.521 30.8983C144.768 30.665 144.224 30.2816 143.891 29.7483C143.564 29.2083 143.401 28.4783 143.401 27.5583V25.4583C143.401 24.5383 143.564 23.8116 143.891 23.2783C144.224 22.7383 144.768 22.355 145.521 22.1283C146.281 21.895 147.301 21.7783 148.581 21.7783H149.161C150.441 21.7783 151.458 21.895 152.211 22.1283C152.964 22.3616 153.504 22.7483 153.831 23.2883C154.158 23.8216 154.321 24.545 154.321 25.4583V27.5583C154.321 28.4716 154.158 29.1983 153.831 29.7383C153.504 30.2716 152.964 30.655 152.211 30.8883C151.458 31.1216 150.441 31.2383 149.161 31.2383H148.581ZM148.581 29.5583H149.161C150.161 29.5583 150.908 29.5116 151.401 29.4183C151.901 29.3183 152.231 29.1216 152.391 28.8283C152.558 28.5283 152.641 28.085 152.641 27.4983V25.5183C152.641 24.925 152.558 24.4816 152.391 24.1883C152.231 23.895 151.901 23.7016 151.401 23.6083C150.908 23.5083 150.161 23.4583 149.161 23.4583H148.581C147.574 23.4583 146.821 23.5083 146.321 23.6083C145.821 23.7016 145.488 23.895 145.321 24.1883C145.161 24.4816 145.081 24.925 145.081 25.5183V27.4983C145.081 28.085 145.161 28.5283 145.321 28.8283C145.488 29.1216 145.821 29.3183 146.321 29.4183C146.821 29.5116 147.574 29.5583 148.581 29.5583ZM156.466 33.0783C155.906 33.0783 155.626 32.7383 155.626 32.0583V31.1183C155.626 30.0583 156.119 29.5383 157.106 29.5583H157.626L156.726 29.9583C158.186 27.7183 158.906 24.9916 158.886 21.7783H165.186V29.5583H165.726C166.619 29.5583 167.066 30.0783 167.066 31.1183V32.0583C167.066 32.7383 166.786 33.0783 166.226 33.0783C165.666 33.0783 165.386 32.7383 165.386 32.0583V31.2383H157.306V32.0583C157.306 32.7383 157.026 33.0783 156.466 33.0783ZM158.896 29.5583H163.446V23.4583H160.706C160.626 25.6383 160.023 27.6716 158.896 29.5583ZM171.096 35.3383C170.57 35.3383 170.133 35.2483 169.786 35.0683C169.446 34.895 169.193 34.625 169.026 34.2583C168.86 33.8916 168.776 33.4316 168.776 32.8783C168.776 32.5183 168.846 32.2416 168.986 32.0483C169.133 31.855 169.343 31.7583 169.616 31.7583C169.896 31.7583 170.106 31.8416 170.246 32.0083C170.386 32.175 170.456 32.4183 170.456 32.7383C170.456 33.1116 170.506 33.3583 170.606 33.4783C170.713 33.5983 170.923 33.6583 171.236 33.6583H177.416C177.683 33.6583 177.85 33.6216 177.916 33.5483C177.983 33.475 178.016 33.285 178.016 32.9783V30.3583C177.183 30.945 176.016 31.2383 174.516 31.2383H173.936C172.663 31.2383 171.646 31.1216 170.886 30.8883C170.133 30.655 169.593 30.2716 169.266 29.7383C168.94 29.1983 168.776 28.4716 168.776 27.5583V22.5983C168.776 21.9583 169.056 21.6383 169.616 21.6383C170.176 21.6383 170.456 21.9583 170.456 22.5983V27.4983C170.456 28.085 170.536 28.5283 170.696 28.8283C170.863 29.1216 171.193 29.3183 171.686 29.4183C172.186 29.5116 172.936 29.5583 173.936 29.5583H174.516C175.69 29.5583 176.566 29.305 177.146 28.7983C177.726 28.285 178.016 27.5116 178.016 26.4783V22.5983C178.016 21.9583 178.296 21.6383 178.856 21.6383C179.416 21.6383 179.696 21.9583 179.696 22.5983V32.6583C179.696 33.6316 179.536 34.3216 179.216 34.7283C178.896 35.135 178.343 35.3383 177.556 35.3383H171.096ZM183.271 31.3783C183.024 31.3783 182.824 31.2916 182.671 31.1183C182.524 30.945 182.451 30.725 182.451 30.4583V22.5583C182.451 22.2783 182.531 22.055 182.691 21.8883C182.851 21.7216 183.064 21.6383 183.331 21.6383C183.571 21.6383 183.764 21.725 183.911 21.8983C184.057 22.065 184.131 22.285 184.131 22.5583V25.6583H186.051C186.184 25.6583 186.344 25.5583 186.531 25.3583C186.724 25.1583 186.997 24.795 187.351 24.2683C187.624 23.875 187.934 23.4783 188.281 23.0783C188.634 22.6783 189.084 22.335 189.631 22.0483C190.184 21.7616 190.797 21.6183 191.471 21.6183C191.784 21.6183 192.034 21.6916 192.221 21.8383C192.414 21.985 192.511 22.1916 192.511 22.4583C192.511 22.7383 192.421 22.9483 192.241 23.0883C192.067 23.2283 191.811 23.2983 191.471 23.2983C191.124 23.2983 190.784 23.4316 190.451 23.6983C190.124 23.965 189.724 24.435 189.251 25.1083C189.131 25.275 189.014 25.4316 188.901 25.5783C188.794 25.7183 188.691 25.8483 188.591 25.9683C188.497 26.0816 188.404 26.185 188.311 26.2783C188.831 26.505 189.301 26.8183 189.721 27.2183C190.147 27.6183 190.434 28.025 190.581 28.4383C190.741 28.8516 190.897 29.165 191.051 29.3783C191.204 29.5916 191.344 29.6983 191.471 29.6983C191.784 29.6983 192.034 29.775 192.221 29.9283C192.414 30.0816 192.511 30.285 192.511 30.5383C192.511 31.0983 192.164 31.3783 191.471 31.3783C191.004 31.3783 190.601 31.3083 190.261 31.1683C189.921 31.0283 189.651 30.815 189.451 30.5283C189.251 30.255 189.087 29.9883 188.961 29.7283C188.834 29.4683 188.687 29.205 188.521 28.9383C188.354 28.665 188.111 28.3883 187.791 28.1083C187.237 27.595 186.284 27.3383 184.931 27.3383H184.131V30.4783C184.131 30.7516 184.054 30.9683 183.901 31.1283C183.747 31.295 183.537 31.3783 183.271 31.3783ZM198.279 31.3783C197.665 31.3783 197.359 31.0783 197.359 30.4783V23.4583H194.479C193.825 23.4583 193.499 23.1783 193.499 22.6183C193.499 22.0583 193.825 21.7783 194.479 21.7783H202.099C202.752 21.7783 203.079 22.0583 203.079 22.6183C203.079 23.1783 202.752 23.4583 202.099 23.4583H199.239V30.4783C199.239 30.7516 199.152 30.9683 198.979 31.1283C198.805 31.295 198.572 31.3783 198.279 31.3783ZM204.717 31.2383V22.6183C204.717 21.965 204.997 21.6383 205.557 21.6383C206.117 21.6383 206.397 21.965 206.397 22.6183V25.5183H210.697C211.463 25.5183 212.11 25.6316 212.637 25.8583C213.17 26.0783 213.577 26.4016 213.857 26.8283C214.137 27.2483 214.277 27.765 214.277 28.3783C214.277 28.985 214.137 29.5016 213.857 29.9283C213.583 30.3483 213.18 30.6683 212.647 30.8883C212.113 31.1083 211.463 31.225 210.697 31.2383H204.717ZM206.397 29.5583H210.517C211.057 29.5583 211.537 29.4916 211.957 29.3583C212.383 29.2183 212.597 28.925 212.597 28.4783C212.597 28.1116 212.517 27.8383 212.357 27.6583C212.203 27.4716 211.97 27.3483 211.657 27.2883C211.35 27.2283 210.97 27.1983 210.517 27.1983H206.397V29.5583ZM215.637 31.6783C215.09 31.6783 214.817 31.3583 214.817 30.7183V22.3183C214.817 22.0183 214.89 21.7816 215.037 21.6083C215.19 21.4283 215.397 21.3383 215.657 21.3383C215.917 21.3383 216.12 21.4283 216.267 21.6083C216.42 21.7816 216.497 22.0183 216.497 22.3183V30.7183C216.497 31.3583 216.21 31.6783 215.637 31.6783ZM227.057 31.1183C226.497 31.1183 226.217 30.8383 226.217 30.2783V18.3983C226.217 17.8383 226.497 17.5583 227.057 17.5583C227.344 17.5583 227.624 17.725 227.897 18.0583L235.937 28.4183H235.517V18.3983C235.517 17.8383 235.797 17.5583 236.357 17.5583C236.917 17.5583 237.197 17.8383 237.197 18.3983V30.2783C237.197 30.8383 236.917 31.1183 236.357 31.1183C236.057 31.1183 235.777 30.9516 235.517 30.6183L227.477 20.2583H227.897V30.2783C227.897 30.8383 227.617 31.1183 227.057 31.1183ZM240.917 25.0783C239.95 25.0783 239.22 24.835 238.727 24.3483C238.24 23.855 237.997 23.125 237.997 22.1583V20.9583C237.997 19.9783 238.24 19.2483 238.727 18.7683C239.22 18.2883 239.95 18.045 240.917 18.0383H242.237C243.21 18.0383 243.94 18.2816 244.427 18.7683C244.914 19.255 245.157 19.985 245.157 20.9583V22.1383C245.157 23.1183 244.914 23.855 244.427 24.3483C243.94 24.835 243.21 25.0783 242.237 25.0783H240.917ZM240.917 23.3983H242.237C242.75 23.3983 243.084 23.3183 243.237 23.1583C243.397 22.9983 243.477 22.6583 243.477 22.1383V20.9583C243.477 20.4583 243.397 20.1283 243.237 19.9683C243.084 19.8016 242.75 19.7183 242.237 19.7183H240.917C240.41 19.725 240.077 19.805 239.917 19.9583C239.757 20.1116 239.677 20.445 239.677 20.9583V22.1583C239.677 22.665 239.757 22.9983 239.917 23.1583C240.077 23.3183 240.41 23.3983 240.917 23.3983ZM239.117 27.8783C238.557 27.8783 238.277 27.5983 238.277 27.0383C238.277 26.4783 238.557 26.1983 239.117 26.1983H244.177C244.737 26.1983 245.017 26.4783 245.017 27.0383C245.017 27.5983 244.737 27.8783 244.177 27.8783H239.117ZM252.182 31.1183C251.622 31.1183 251.342 30.8383 251.342 30.2783V19.9583L251.802 19.6383L249.602 21.6983C249.436 21.8583 249.259 21.955 249.072 21.9883C248.886 22.015 248.702 21.9383 248.522 21.7583C248.162 21.3983 248.182 21.0183 248.582 20.6183L251.262 17.9783C251.542 17.6983 251.889 17.5583 252.302 17.5583C252.782 17.5583 253.022 17.8383 253.022 18.3983V30.2783C253.022 30.8383 252.742 31.1183 252.182 31.1183Z" fill="white"/>
<path d="M42.763 24.9961L42.763 24.9961C42.8146 24.9422 42.8576 24.8702 42.8578 24.782C42.858 24.6937 42.8152 24.6215 42.7637 24.5675M42.763 24.9961L42.7636 24.5675C42.7636 24.5675 42.7637 24.5675 42.7637 24.5675M42.763 24.9961C42.7572 25.0022 42.7541 25.0053 42.7471 25.0118C42.673 25.0804 41.4602 26.1927 39.5296 27.3128C37.6 28.4323 34.9434 29.5652 31.9836 29.6627C28.9755 29.7617 26.2119 28.6931 24.1537 27.6072C23.1235 27.0638 22.2672 26.5145 21.6432 26.1022C21.5373 26.0322 21.4385 25.9665 21.3468 25.9056C21.1673 25.7861 21.0152 25.6849 20.8906 25.6058C20.7967 25.5461 20.7222 25.5015 20.6663 25.4722C20.6382 25.4575 20.6176 25.4482 20.6034 25.4428C20.6 25.4416 20.5974 25.4407 20.5955 25.4401M42.763 24.9961L42.7637 24.5675M42.7637 24.5675C42.7573 24.5608 42.7539 24.5575 42.7465 24.5506L42.7465 24.5506C42.6673 24.4777 41.3591 23.2826 39.3831 22.0786C37.4095 20.8759 34.7545 19.655 31.9845 19.5483C29.1671 19.4396 26.4007 20.6195 24.2963 21.814C23.2422 22.4124 22.3497 23.0171 21.6954 23.4709C21.5982 23.5383 21.5066 23.6022 21.4206 23.6621C21.216 23.8047 21.0434 23.925 20.9041 24.0177C20.8051 24.0835 20.7266 24.1329 20.6677 24.1654C20.6381 24.1817 20.6164 24.1921 20.6015 24.1981C20.5984 24.1993 20.596 24.2002 20.5941 24.2008C20.5706 24.1985 20.5252 24.1867 20.4521 24.1538C20.3734 24.1184 20.2772 24.0654 20.1645 23.9966C19.9391 23.8591 19.6621 23.6677 19.3498 23.4511L19.3104 23.4237C18.6983 22.999 17.9626 22.4885 17.2689 22.1444C15.4605 21.2474 14.382 20.7501 12.3828 20.372C11.0488 20.1195 10.2696 20.0482 8.9106 20.0957C8.85675 20.0976 8.80411 20.0994 8.75256 20.1011C7.90939 20.1298 7.35742 20.1486 6.4931 20.3742L6.49305 20.3742C6.41464 20.3947 6.34343 20.4277 6.2918 20.4774C6.23892 20.5283 6.19559 20.6113 6.22391 20.7063C6.25007 20.7942 6.32338 20.8423 6.38572 20.8648C6.45107 20.8885 6.52797 20.8943 6.60936 20.8856C7.27242 20.8148 8.20921 20.7336 8.91289 20.7474C10.2553 20.774 11.0114 20.874 12.3214 21.1737C14.2886 21.6239 15.3414 22.0888 17.132 23.0371L17.1321 23.0371C18.1555 23.5789 19.6255 24.6035 19.8285 24.7459C19.8269 24.747 19.8252 24.7483 19.8232 24.7497C19.6023 24.9058 18.1491 25.9265 17.1299 26.4879C15.34 27.4732 14.2975 28.0188 12.3217 28.4672L12.3217 28.4672C11.0158 28.7638 10.2568 28.8366 8.91385 28.8545C8.19715 28.864 7.26872 28.7974 6.54567 28.7315C6.43456 28.7214 6.33465 28.7282 6.25346 28.7547C6.17691 28.7796 6.08548 28.8339 6.05716 28.9393C6.02768 29.049 6.08506 29.1417 6.14469 29.1987C6.20641 29.2577 6.29452 29.3052 6.3997 29.3417L6.40864 29.3448L6.4179 29.3467C7.17384 29.506 7.97537 29.5565 8.91135 29.5845C10.2643 29.6251 11.0466 29.5946 12.3822 29.3474C13.8103 29.0836 15.4625 28.4496 17.27 27.535M17.27 27.535L17.2022 27.4012L17.2699 27.535C17.2699 27.535 17.2699 27.535 17.27 27.535ZM17.27 27.535C17.9645 27.1839 18.7003 26.6638 19.3122 26.2312L19.3515 26.2034C19.6637 25.9828 19.9405 25.7878 20.1658 25.6478C20.2784 25.5779 20.3745 25.5239 20.4531 25.4879C20.5274 25.4538 20.5728 25.4421 20.5955 25.4401M20.5955 25.4401C20.5926 25.4392 20.5913 25.4389 20.5913 25.4389C20.5913 25.4389 20.5954 25.4397 20.6025 25.4397C20.6004 25.4397 20.5981 25.4398 20.5955 25.4401ZM19.8493 24.7318L19.8485 24.733C19.8485 24.733 19.8485 24.733 19.8485 24.733L19.8493 24.7318ZM40.9393 24.7466L41.0409 24.8569L40.9393 24.7466L40.9402 24.7458C40.8798 24.6891 39.8436 23.7255 38.2122 22.7527C36.5787 21.7788 34.3597 20.8024 31.9325 20.7082C29.5782 20.6169 27.0565 21.532 25.0543 22.523C23.0557 23.5122 21.5937 24.5673 21.3641 24.7362C21.3591 24.7399 21.3551 24.743 21.3518 24.7455C21.3557 24.7484 21.3605 24.7519 21.3668 24.7563C21.6045 24.9237 22.9869 25.8743 24.9424 26.7617C26.9 27.6499 29.4189 28.4686 31.9333 28.3853C37.1192 28.2136 40.7894 24.8846 40.9393 24.7466Z" fill="white" stroke="white" stroke-width="0.3"/>
<mask id="path-3-inside-1_347_2532" fill="white">
<path d="M0.0524902 24.6183C0.0524902 37.8778 10.7965 48.627 24.0515 48.627C37.3065 48.627 48.0525 37.8778 48.0525 24.6183C48.0525 11.3586 37.3065 0.609497 24.0515 0.609497C10.7965 0.609497 0.0524902 11.3586 0.0524902 24.6183ZM46.5561 24.6183C46.5561 37.0511 36.4803 47.1299 24.0515 47.1299C11.6243 47.1299 1.54808 37.0511 1.54808 24.6183C1.54808 12.1854 11.6243 2.10652 24.0515 2.10652C36.4803 2.10652 46.5561 12.1854 46.5561 24.6183Z"/>
</mask>
<path d="M0.0524902 24.6183C0.0524902 37.8778 10.7965 48.627 24.0515 48.627C37.3065 48.627 48.0525 37.8778 48.0525 24.6183C48.0525 11.3586 37.3065 0.609497 24.0515 0.609497C10.7965 0.609497 0.0524902 11.3586 0.0524902 24.6183ZM46.5561 24.6183C46.5561 37.0511 36.4803 47.1299 24.0515 47.1299C11.6243 47.1299 1.54808 37.0511 1.54808 24.6183C1.54808 12.1854 11.6243 2.10652 24.0515 2.10652C36.4803 2.10652 46.5561 12.1854 46.5561 24.6183Z" fill="white"/>
<path d="M2.05249 24.6183C2.05249 36.774 11.9019 46.627 24.0515 46.627V50.627C9.69112 50.627 -1.94751 38.9815 -1.94751 24.6183H2.05249ZM24.0515 46.627C36.2013 46.627 46.0525 36.7738 46.0525 24.6183H50.0525C50.0525 38.9818 38.4117 50.627 24.0515 50.627V46.627ZM46.0525 24.6183C46.0525 12.4625 36.2014 2.6095 24.0515 2.6095V-1.3905C38.4117 -1.3905 50.0525 10.2546 50.0525 24.6183H46.0525ZM24.0515 2.6095C11.9019 2.6095 2.05249 12.4623 2.05249 24.6183H-1.94751C-1.94751 10.2548 9.69113 -1.3905 24.0515 -1.3905V2.6095ZM48.5561 24.6183C48.5561 38.1551 37.5855 49.1299 24.0515 49.1299V45.1299C35.3751 45.1299 44.5561 35.9471 44.5561 24.6183H48.5561ZM24.0515 49.1299C10.5191 49.1299 -0.451916 38.155 -0.451916 24.6183H3.54808C3.54808 35.9471 12.7295 45.1299 24.0515 45.1299V49.1299ZM-0.451916 24.6183C-0.451916 11.0814 10.5191 0.106524 24.0515 0.106524V4.10652C12.7295 4.10652 3.54808 13.2893 3.54808 24.6183H-0.451916ZM24.0515 0.106524C37.5855 0.106524 48.5561 11.0814 48.5561 24.6183H44.5561C44.5561 13.2893 35.3751 4.10652 24.0515 4.10652V0.106524Z" fill="white" mask="url(#path-3-inside-1_347_2532)"/>
<path d="M35.9827 24.3145C35.9827 24.6439 36.2508 24.9116 36.5799 24.9116C36.9104 24.9116 37.1772 24.6444 37.1772 24.3145C37.1772 23.9847 36.9105 23.7176 36.5799 23.7176C36.2507 23.7176 35.9827 23.9851 35.9827 24.3145Z" fill="white" stroke="white" stroke-width="0.643349"/>
</svg>
