<svg width="16" height="12" viewBox="0 0 16 12" fill="none" xmlns="http://www.w3.org/2000/svg">
<path id="Vector" opacity="0.7" d="M9.35558 0.396355C9.15668 0.131157 8.81781 0.027113 8.50294 0.128158C8.18807 0.229203 7.96627 0.524707 7.94196 0.862536L7.85063 2.12537C7.33004 2.22427 6.84202 2.38222 6.39689 2.5702C5.95717 2.75699 5.54951 2.97621 5.18938 3.20816L3.33667 1.27344C3.08797 1.01344 2.69691 0.961631 2.38461 1.14813C2.07231 1.33462 1.91779 1.71172 2.00544 2.06895L2.56334 4.34011L0.944605 6.02804C0.690079 6.29359 0.637729 6.69807 0.814939 7.01572C0.992149 7.33338 1.35435 7.48341 1.7021 7.38323L4.27396 6.63407C4.4729 7.01318 4.7133 7.40869 5.00071 7.79031C5.29222 8.17568 5.63588 8.55648 6.03727 8.90242L5.48495 10.0417C5.33708 10.3464 5.38446 10.7114 5.60425 10.9557C5.82403 11.2 6.16952 11.2794 6.47676 11.1498L8.70612 10.2056C10.0372 10.4563 11.2968 10.1846 12.3226 9.74955C13.4488 9.27257 14.3479 8.57847 14.8543 8.05726C15.0577 7.84953 15.1391 7.54555 15.0668 7.26396C14.8889 6.55938 14.4549 5.50808 13.7205 4.53255C13.0473 3.64229 12.0946 2.77781 10.8165 2.3294L9.35558 0.396355ZM10.5 6.46673C10.5562 6.25699 10.6902 6.07731 10.8726 5.96721C11.0549 5.85711 11.2706 5.82562 11.4723 5.87965C11.674 5.93369 11.8451 6.06884 11.9479 6.25535C12.0508 6.44187 12.077 6.66449 12.0208 6.87423C11.9646 7.08397 11.8306 7.26366 11.6483 7.37375C11.4659 7.48385 11.2502 7.51535 11.0485 7.46131C10.8468 7.40727 10.6757 7.27213 10.5729 7.08561C10.47 6.89909 10.4438 6.67648 10.5 6.46673Z" fill="#07ACEC"/>
</svg>
