<svg width="22" height="18" viewBox="0 0 22 18" fill="none" xmlns="http://www.w3.org/2000/svg">
<path id="Vector" opacity="0.8" d="M12.0344 1.09781C11.7143 0.744314 11.2151 0.640233 10.7775 0.826744C10.3399 1.01325 10.0614 1.46597 10.0714 1.95311L10.1081 3.77415C9.37547 3.98487 8.69737 4.27587 8.08468 4.6042C7.47959 4.93009 6.92473 5.29818 6.43964 5.67821L3.52909 3.15264C3.13836 2.8132 2.57131 2.79086 2.14871 3.09943C1.7261 3.40801 1.55478 3.96868 1.72773 4.46876L2.82818 7.64803L0.733363 10.2806C0.403999 10.6948 0.38267 11.2811 0.678651 11.7126C0.974633 12.1441 1.51337 12.311 1.9982 12.1213L5.58283 10.707C5.9181 11.2237 6.31492 11.7584 6.77725 12.2669C7.24593 12.7802 7.78872 13.2801 8.40959 13.7224L7.76956 15.4276C7.59818 15.8837 7.71446 16.4003 8.06169 16.7211C8.40893 17.0419 8.91435 17.1097 9.33725 16.8833L12.4054 15.235C14.3453 15.4175 16.1136 14.8612 17.5253 14.102C19.0752 13.2694 20.271 12.1559 20.9272 11.3421C21.191 11.0175 21.2673 10.5713 21.1265 10.1775C20.7781 9.19189 20.017 7.74354 18.8356 6.44359C17.7531 5.25766 16.2738 4.14573 14.3836 3.67296L12.0344 1.09781ZM14.479 9.6414C14.5317 9.33351 14.6998 9.05835 14.9464 8.87645C15.193 8.69455 15.4979 8.62081 15.7939 8.67147C16.09 8.72212 16.353 8.89301 16.525 9.14654C16.6971 9.40007 16.7642 9.71547 16.7115 10.0234C16.6589 10.3313 16.4907 10.6064 16.2441 10.7883C15.9976 10.9702 15.6927 11.044 15.3967 10.9933C15.1006 10.9427 14.8376 10.7718 14.6655 10.5182C14.4934 10.2647 14.4264 9.9493 14.479 9.6414Z" fill="#07ACEC"/>
</svg>
