<svg width="12" height="10" viewBox="0 0 12 10" fill="none" xmlns="http://www.w3.org/2000/svg">
<path id="Vector" opacity="0.6" d="M6.68643 9.03272C6.51013 9.23125 6.23276 9.2919 5.98811 9.19043C5.74346 9.08896 5.58595 8.83843 5.58888 8.56716L5.59946 7.55312C5.19046 7.43977 4.81135 7.28143 4.46847 7.10195C4.12983 6.92379 3.81893 6.72186 3.5468 6.51291L1.94005 7.93474C1.72436 8.12584 1.40878 8.14134 1.17183 7.97183C0.934879 7.80233 0.836462 7.49111 0.930043 7.21176L1.5255 5.43578L0.34499 3.98145C0.159379 3.75266 0.144332 3.42634 0.306781 3.1845C0.46923 2.94266 0.768261 2.84685 1.03921 2.9498L3.04257 3.7178C3.22643 3.42834 3.44446 3.12853 3.69911 2.84292C3.95726 2.55459 4.25675 2.27335 4.60002 2.02375L4.23446 1.07783C4.13658 0.824822 4.19852 0.536623 4.3901 0.356145C4.58169 0.175667 4.86271 0.135184 5.09938 0.258924L6.81646 1.15999C7.89548 1.04787 8.88298 1.34801 9.67301 1.76305C10.5404 2.21822 11.2122 2.8317 11.582 3.28121C11.7306 3.46046 11.7755 3.70848 11.6992 3.92848C11.5106 4.47911 11.0947 5.28958 10.444 6.01971C9.84772 6.68582 9.03016 7.31288 7.98035 7.58632L6.68643 9.03272ZM8.0012 4.26294C8.03219 4.43407 8.12728 4.58636 8.26555 4.68629C8.40382 4.78623 8.57394 4.82563 8.73849 4.79583C8.90304 4.76602 9.04853 4.66946 9.14297 4.52738C9.2374 4.3853 9.27305 4.20934 9.24205 4.0382C9.21106 3.86707 9.11597 3.71479 8.9777 3.61485C8.83943 3.51492 8.66931 3.47552 8.50476 3.50532C8.34021 3.53512 8.19472 3.63168 8.10028 3.77376C8.00585 3.91585 7.9702 4.09181 8.0012 4.26294Z" fill="#07ACEC"/>
</svg>
