<svg width="17" height="14" viewBox="0 0 17 14" fill="none" xmlns="http://www.w3.org/2000/svg">
<path id="Vector" opacity="0.7" d="M9.93772 13.032C9.70993 13.3338 9.32306 13.4513 8.96427 13.335C8.60549 13.2186 8.35353 12.8808 8.32698 12.4954L8.2272 11.0547C7.63376 10.9401 7.07768 10.7583 6.57062 10.5423C6.06973 10.3277 5.60552 10.0763 5.19557 9.81045L3.07566 12.0107C2.7911 12.3064 2.34487 12.3642 1.98932 12.1504C1.63376 11.9366 1.45882 11.5059 1.56004 11.0987L2.20427 8.51023L0.36382 6.57937C0.0744324 6.27561 0.016129 5.81408 0.219356 5.45238C0.422584 5.09068 0.83623 4.92082 1.23252 5.03629L4.16335 5.89971C4.39158 5.468 4.66715 5.01772 4.9963 4.58344C5.33012 4.14491 5.72342 3.71177 6.18245 3.31858L5.55644 2.01718C5.38884 1.6691 5.44415 1.25298 5.69568 0.975087C5.94722 0.697199 6.34155 0.607917 6.69153 0.75678L9.23104 1.84151C10.7501 1.56018 12.1859 1.87446 13.3544 2.37419C14.6372 2.92215 15.6603 3.71696 16.2361 4.3132C16.4673 4.55085 16.5592 4.89784 16.4758 5.21877C16.2704 6.02179 15.7717 7.21938 14.9307 8.32951C14.1597 9.34259 13.0701 10.3253 11.6108 10.8323L9.93772 13.032ZM11.2641 6.11221C11.3275 6.35163 11.4797 6.55704 11.6873 6.68325C11.8949 6.80946 12.1409 6.84614 12.3711 6.7852C12.6013 6.72427 12.7969 6.57072 12.9149 6.35834C13.0329 6.14595 13.0635 5.89213 13.0002 5.65271C12.9368 5.41328 12.7846 5.20787 12.577 5.08166C12.3694 4.95545 12.1234 4.91878 11.8932 4.97971C11.663 5.04064 11.4674 5.19419 11.3494 5.40658C11.2314 5.61896 11.2008 5.87278 11.2641 6.11221Z" fill="#07ACEC"/>
</svg>
