<svg width="236" height="142" viewBox="0 0 236 142" fill="none" xmlns="http://www.w3.org/2000/svg">
<path d="M218.65 125.396C224.256 125.348 231.012 120.373 232.7 115.161C225.288 112.709 217.83 110.52 210.324 108.568C211.403 105.712 212.482 102.832 213.584 99.9756C214.64 95.8817 214.475 93.9538 208.002 92.3591C208.189 91.526 150.747 79.6491 113.734 81.6008C76.7442 80.982 27.9097 91.8831 28.027 92.3591C21.5767 93.9538 21.389 95.8817 22.4445 99.9756C23.4531 102.856 24.4852 105.736 25.4938 108.616C18.0584 110.567 10.6698 112.733 3.32825 115.161C5.0405 120.373 11.7723 125.348 17.3781 125.396C12.8981 128.728 10.6933 137.058 11.8661 141.89C21.7643 138.629 31.7564 135.844 41.8423 133.512C48.4333 132.012 48.7148 125.562 46.0409 123.825C42.4756 121.587 41.2559 125.967 36.7524 127.038C32.7885 128.014 31.7095 120.373 37.9252 118.898C62.9758 113.066 88.4955 110.02 114.039 109.734C142.232 109.425 170.449 112.471 198.103 118.898C204.319 120.373 203.217 128.014 199.276 127.038C194.773 125.967 193.553 121.587 189.988 123.825C187.314 125.538 187.572 132.012 194.186 133.512C204.272 135.844 214.264 138.629 224.163 141.89C225.359 137.082 223.131 128.752 218.65 125.396ZM209.479 108.901C210.253 105.759 211.051 102.641 211.848 99.4995C212.083 98.5713 212.271 97.8334 212.317 97.2146C212.271 97.8334 212.106 98.5713 211.872 99.4995L209.503 108.901H209.479ZM212.224 96.4053C212.294 96.6434 212.294 96.929 212.294 97.2384C212.294 96.929 212.294 96.6672 212.224 96.4053ZM202.208 119.302C202.208 119.302 202.302 119.421 202.372 119.469C201.762 118.826 200.988 118.255 200.074 117.85C200.472 118.041 200.848 118.231 201.153 118.446C203.545 111.519 206.454 99.6899 207.767 93.9776C208.33 94.1204 208.799 94.2394 209.245 94.3822C207.791 100.523 204.835 112.186 202.208 119.302ZM198.619 117.351C200.707 110.829 203.569 98.4999 204.741 93.2397C205.328 93.3825 205.891 93.5016 206.477 93.6444C205.187 99.2853 202.372 110.996 200.05 117.827C199.558 117.612 199.042 117.422 198.479 117.303C198.526 117.303 198.572 117.327 198.643 117.351H198.619ZM24.1568 95.7151C23.9926 95.9293 23.8753 96.1435 23.805 96.3815C23.8753 96.1435 23.9926 95.9055 24.1568 95.7151ZM23.8988 98.2619C23.9692 98.6427 24.0864 99.0473 24.2037 99.5233C24.0864 99.0711 23.9926 98.6427 23.8988 98.2619ZM23.7346 97.2384C23.7346 97.5478 23.805 97.881 23.8988 98.2381C23.8284 97.8572 23.7581 97.5478 23.7346 97.2384ZM32.1552 122.016C29.1763 114.899 25.8925 102.76 24.1568 95.7389C24.7432 95.0487 25.9863 94.525 28.4023 93.9538C28.3554 93.9538 28.3084 93.9776 28.2381 94.0014C29.575 99.7137 32.4601 111.567 34.8525 118.493C34.4538 118.755 34.102 119.041 33.797 119.35C31.17 112.21 28.2146 100.547 26.7604 94.4298C26.1505 94.6202 25.658 94.7868 25.2592 94.9772C26.8307 101.427 29.9738 113.614 32.7415 120.707C32.4835 121.135 32.2959 121.587 32.1552 122.063V122.016ZM33.2341 119.945C33.2341 119.945 33.1637 120.016 33.1403 120.064C33.1637 120.016 33.2107 119.993 33.2341 119.945ZM35.955 117.85C33.6329 111.019 30.8182 99.3091 29.5281 93.6682C30.1145 93.5254 30.6775 93.3826 31.2638 93.2635C32.4366 98.5237 35.2982 110.853 37.3858 117.374C37.4327 117.374 37.4796 117.351 37.5499 117.327C36.9636 117.47 36.4475 117.66 35.9784 117.85H35.955ZM43.2731 116.042C42.1707 111.995 39.2622 98.2619 37.9252 91.764C37.7376 91.8117 37.5265 91.8593 37.3388 91.8831C38.1363 95.7151 41.4436 111.472 42.7336 116.161C42.1003 116.303 41.467 116.446 40.8572 116.565C39.1684 110.9 36.1426 97.0718 35.134 92.3591C34.8526 92.4305 34.5711 92.4781 34.3131 92.5495C35.3217 97.2622 38.324 110.9 40.0831 116.732C39.5202 116.851 38.9573 116.994 38.3943 117.113C36.3537 110.734 33.4921 98.2381 32.3428 93.0017C35.0167 92.3829 37.6907 91.7878 40.3881 91.2404C42.03 99.3567 43.6953 107.497 45.3372 115.613C44.657 115.756 43.9768 115.899 43.2966 116.042H43.2731ZM45.6421 115.542C44.0002 107.425 42.3583 99.2853 40.7164 91.169C91.6854 80.5535 144.273 80.5535 195.265 91.169C193.623 99.2853 191.981 107.425 190.34 115.542C142.607 105.617 93.3742 105.617 45.6656 115.542H45.6421ZM190.668 115.613C192.31 107.497 193.975 99.3567 195.617 91.2404C196.438 91.407 197.236 91.5736 198.056 91.764C196.72 98.2619 193.811 111.995 192.709 116.042C192.028 115.899 191.348 115.756 190.668 115.613ZM193.248 116.161C194.538 111.472 197.845 95.7151 198.643 91.8831C199.37 92.0497 200.121 92.2163 200.848 92.3591C199.839 97.0718 196.837 110.9 195.125 116.565C194.491 116.422 193.858 116.28 193.248 116.161ZM195.899 116.756C197.658 110.924 200.66 97.286 201.669 92.5733C202.325 92.7161 202.982 92.8827 203.639 93.0255C202.49 98.2857 199.628 110.758 197.587 117.136C197.024 117.017 196.462 116.875 195.899 116.756ZM202.372 119.54C202.724 119.921 203.029 120.326 203.24 120.683C206.008 113.59 209.151 101.404 210.722 94.9534C211.614 95.3819 212.036 95.8341 212.2 96.4291C212.13 96.1911 212.013 95.9531 211.848 95.7627C210.089 102.808 206.829 114.923 203.85 122.04C203.897 122.206 203.944 122.373 203.967 122.539C203.709 121.468 203.217 120.421 202.372 119.54Z" fill="#B7E8FB"/>
<path d="M63.9543 104.307C64.4234 104.236 65.9011 105.259 68.0121 104.95C69.138 104.783 70.4515 104.236 70.1935 102.617C69.7243 99.4518 62.2889 101.856 61.3507 95.5484C60.7643 91.6211 63.7197 89.5742 66.7924 89.122C69.5836 88.6936 71.6946 89.3838 71.8119 90.2883C71.9292 91.0023 71.3428 92.7398 70.7095 92.835C70.3576 92.8826 69.4429 92.3352 67.6837 92.597C65.6196 92.9064 65.3616 93.9299 65.4554 94.5487C65.9011 97.5953 73.3365 95.2152 74.2747 101.499C74.9315 105.95 72.0699 107.901 69.1849 108.354C65.174 108.949 62.7815 107.854 62.6408 106.925C62.5235 106.092 63.3679 104.379 63.9308 104.307H63.9543Z" fill="#B7E8FB"/>
<path d="M75.2365 89.2653C75.1661 88.5037 75.4476 88.1467 76.1982 88.0753L85.9088 87.0756C86.4717 87.028 86.7532 87.4088 86.847 88.3371L86.9408 89.1701C87.0347 90.1222 86.847 90.5506 86.2841 90.5982L79.5992 91.2885L79.998 95.1919L85.9557 94.5731C86.5187 94.5255 86.8001 94.9063 86.8939 95.8345L86.9878 96.6676C87.0816 97.6197 86.8939 98.0481 86.331 98.0957L80.3733 98.7145L80.8189 103.07L87.5272 102.38C88.0902 102.332 88.3716 102.713 88.4655 103.641L88.5593 104.474C88.6531 105.427 88.4655 105.855 87.9025 105.903L78.1685 106.902C77.4179 106.974 77.066 106.688 76.9957 105.926L75.3303 89.2415L75.2365 89.2653Z" fill="#B7E8FB"/>
<path d="M89.2863 104.711L94.212 87.0031C94.3527 86.5509 94.9391 86.3843 95.6897 86.3605L97.0736 86.2891C97.8476 86.2415 98.434 86.3367 98.6216 86.7651L105.424 103.807C105.494 103.997 105.518 104.164 105.541 104.283C105.541 104.664 105.166 104.902 104.251 104.949L103.078 105.021C102.304 105.068 101.718 104.973 101.554 104.545L100.31 101.308L94.0243 101.665L93.133 105.021C93.0157 105.425 92.5701 105.616 91.9368 105.663L90.8813 105.711C89.7554 105.783 89.2394 105.592 89.2159 105.211C89.2159 105.068 89.2629 104.902 89.2863 104.711ZM98.95 97.809L97.1674 93.0725C97.0266 92.7393 96.6748 91.3588 96.6748 91.3588H96.5575C96.5575 91.3588 96.3934 92.6441 96.2526 93.1201L94.9391 98.0232L98.9266 97.809H98.95Z" fill="#B7E8FB"/>
<path d="M106.761 87.0037C106.761 86.242 107.066 85.9088 107.816 85.9088L116.729 85.766C117.292 85.766 117.527 86.1706 117.55 87.0989V87.9319C117.574 88.884 117.339 89.2886 116.776 89.2886L110.912 89.3838L110.983 93.3349L116.659 93.2397C117.222 93.2397 117.456 93.6205 117.48 94.5725V95.4056C117.503 96.3576 117.269 96.7623 116.706 96.7623L111.03 96.8575L111.147 103.95C111.147 104.522 110.678 104.831 109.552 104.831H108.637C107.511 104.855 107.042 104.569 107.019 103.998L106.737 86.9561L106.761 87.0037Z" fill="#B7E8FB"/>
<path d="M128.457 85.6947C133.946 85.8375 136.901 89.3363 136.761 95.5961C136.62 101.856 133.5 105.212 127.988 105.069C122.5 104.926 119.521 101.427 119.661 95.1677C119.802 88.9079 122.969 85.5519 128.457 85.6947ZM132.538 95.4771C132.632 91.5022 131.225 89.3363 128.363 89.2649C125.502 89.1935 123.977 91.288 123.883 95.2629C123.79 99.2377 125.22 101.451 128.082 101.499C130.944 101.546 132.445 99.4519 132.538 95.4533V95.4771Z" fill="#B7E8FB"/>
<path d="M148.394 86.6942C153.86 87.1227 156.651 90.7881 156.158 97.0241C155.689 103.26 152.382 106.449 146.917 106.021C141.452 105.593 138.637 101.927 139.13 95.6912C139.599 89.4552 142.929 86.2658 148.418 86.718L148.394 86.6942ZM151.96 96.6909C152.265 92.716 150.975 90.4787 148.113 90.2407C145.251 90.0026 143.61 92.0258 143.305 96.0006C143 99.9755 144.313 102.237 147.175 102.475C150.013 102.689 151.655 100.666 151.96 96.6909Z" fill="#B7E8FB"/>
<path d="M160.333 89.0743C160.427 88.3126 160.802 88.0508 161.53 88.146L167.44 88.9791C172.882 89.7407 175.439 93.5014 174.594 99.5469C173.75 105.593 170.302 108.496 164.86 107.735L158.949 106.902C158.199 106.806 157.941 106.426 158.035 105.688L160.31 89.0743H160.333ZM165.353 104.236C168.191 104.64 169.927 102.784 170.443 98.9757C170.959 95.1675 169.786 92.9063 166.971 92.5017L164.086 92.0971L162.468 103.831L165.353 104.236Z" fill="#B7E8FB"/>
<path d="M49.8854 17.8326C49.4822 17.8326 49.1677 17.7197 48.9419 17.4939C48.7322 17.268 48.6274 16.9535 48.6274 16.5503V1.88907C48.6274 1.46972 48.7403 1.15521 48.9661 0.945528C49.1919 0.719723 49.5064 0.60682 49.9096 0.60682H55.6918C57.5305 0.60682 58.9499 1.0665 59.9499 1.98585C60.9499 2.88907 61.4499 4.16326 61.4499 5.80841C61.4499 7.4697 60.9499 8.76002 59.9499 9.67937C58.9499 10.5826 57.5305 11.0342 55.6918 11.0342H51.1435V16.5503C51.1435 16.9535 51.0386 17.268 50.829 17.4939C50.6193 17.7197 50.3048 17.8326 49.8854 17.8326ZM51.1435 9.02614H55.3289C56.5386 9.02614 57.4499 8.76002 58.0628 8.22776C58.6918 7.67937 59.0064 6.87293 59.0064 5.80841C59.0064 4.76003 58.6918 3.96971 58.0628 3.43746C57.4499 2.88907 56.5386 2.61488 55.3289 2.61488H51.1435V9.02614ZM70.2467 17.8326C69.8434 17.8326 69.5289 17.7197 69.3031 17.4939C69.0934 17.268 68.9886 16.9535 68.9886 16.5503V1.88907C68.9886 1.46972 69.1015 1.15521 69.3273 0.945528C69.5531 0.719723 69.8676 0.60682 70.2709 0.60682H76.0531C77.8918 0.60682 79.3111 1.0423 80.3111 1.91327C81.3111 2.78423 81.8111 4.0181 81.8111 5.61487C81.8111 6.64712 81.5853 7.53421 81.1337 8.27615C80.6821 9.01808 80.0208 9.58259 79.1499 9.96969C78.295 10.3568 77.2628 10.5503 76.0531 10.5503L76.2708 10.2116H76.8999C77.545 10.2116 78.1015 10.3729 78.5692 10.6955C79.0531 11.0181 79.4886 11.5342 79.8757 12.2439L81.9563 16.1148C82.1176 16.4051 82.1902 16.6874 82.174 16.9616C82.174 17.2197 82.0773 17.4293 81.8837 17.5906C81.7063 17.7519 81.4482 17.8326 81.1095 17.8326C80.7547 17.8326 80.4644 17.76 80.2386 17.6148C80.0289 17.4535 79.8353 17.2197 79.6579 16.9132L77.1176 12.2197C76.7789 11.5907 76.3918 11.1713 75.9563 10.9616C75.5208 10.7358 74.9483 10.6229 74.2386 10.6229H71.5047V16.5503C71.5047 16.9535 71.3999 17.268 71.1902 17.4939C70.9805 17.7197 70.666 17.8326 70.2467 17.8326ZM71.5047 8.73582H75.6418C76.8676 8.73582 77.795 8.47776 78.4241 7.96163C79.0531 7.4455 79.3676 6.67938 79.3676 5.66325C79.3676 4.66326 79.0531 3.90519 78.4241 3.38907C77.795 2.87294 76.8676 2.61488 75.6418 2.61488H71.5047V8.73582ZM91.5552 17.6632C91.1198 17.6632 90.7811 17.5503 90.5391 17.3245C90.3133 17.0826 90.2004 16.7439 90.2004 16.3084V1.96165C90.2004 1.52617 90.3133 1.19553 90.5391 0.969722C90.7811 0.727787 91.1198 0.60682 91.5552 0.60682H100.386C100.725 0.60682 100.983 0.69553 101.16 0.872949C101.337 1.03424 101.426 1.27617 101.426 1.59875C101.426 1.93746 101.337 2.19552 101.16 2.37294C100.983 2.55036 100.725 2.63907 100.386 2.63907H92.6198V7.98583H99.8536C100.208 7.98583 100.466 8.07453 100.628 8.25195C100.805 8.42937 100.894 8.67937 100.894 9.00195C100.894 9.34066 100.805 9.59872 100.628 9.77614C100.466 9.93743 100.208 10.0181 99.8536 10.0181H92.6198V15.631H100.386C100.725 15.631 100.983 15.7197 101.16 15.8971C101.337 16.0745 101.426 16.3245 101.426 16.6471C101.426 16.9858 101.337 17.2439 101.16 17.4213C100.983 17.5826 100.725 17.6632 100.386 17.6632H91.5552ZM110.496 17.8326C110.125 17.8326 109.834 17.7277 109.625 17.518C109.431 17.3084 109.334 17.018 109.334 16.6471V1.62295C109.334 1.23585 109.439 0.945528 109.649 0.75198C109.858 0.542304 110.141 0.437467 110.496 0.437467C110.834 0.437467 111.092 0.501982 111.27 0.631013C111.463 0.743916 111.641 0.953593 111.802 1.26004L118.141 13.0906H117.391L123.705 1.26004C123.866 0.953593 124.036 0.743916 124.213 0.631013C124.391 0.501982 124.649 0.437467 124.987 0.437467C125.342 0.437467 125.616 0.542304 125.81 0.75198C126.004 0.945528 126.1 1.23585 126.1 1.62295V16.6471C126.1 17.018 126.004 17.3084 125.81 17.518C125.633 17.7277 125.358 17.8326 124.987 17.8326C124.616 17.8326 124.334 17.7277 124.141 17.518C123.947 17.3084 123.85 17.018 123.85 16.6471V4.16326H124.383L118.77 14.5423C118.641 14.7842 118.504 14.9616 118.358 15.0745C118.213 15.1874 118.012 15.2439 117.754 15.2439C117.495 15.2439 117.286 15.1874 117.125 15.0745C116.963 14.9455 116.818 14.7681 116.689 14.5423L111.028 4.13907H111.608V16.6471C111.608 17.018 111.512 17.3084 111.318 17.518C111.141 17.7277 110.866 17.8326 110.496 17.8326ZM136.221 17.8326C135.818 17.8326 135.503 17.7197 135.278 17.4939C135.068 17.268 134.963 16.9535 134.963 16.5503V1.71972C134.963 1.30037 135.068 0.985851 135.278 0.776175C135.503 0.550369 135.818 0.437467 136.221 0.437467C136.624 0.437467 136.931 0.550369 137.14 0.776175C137.366 0.985851 137.479 1.30037 137.479 1.71972V16.5503C137.479 16.9535 137.374 17.268 137.165 17.4939C136.955 17.7197 136.64 17.8326 136.221 17.8326ZM153.17 17.8809C152.025 17.8809 151.017 17.7358 150.146 17.4455C149.275 17.139 148.541 16.6874 147.945 16.0906C147.364 15.4939 146.921 14.7519 146.614 13.8648C146.308 12.9777 146.154 11.9536 146.154 10.7923V1.69553C146.154 1.27617 146.259 0.961657 146.469 0.75198C146.695 0.542304 147.009 0.437467 147.412 0.437467C147.816 0.437467 148.122 0.542304 148.332 0.75198C148.558 0.961657 148.671 1.27617 148.671 1.69553V10.7439C148.671 12.4052 149.05 13.6471 149.808 14.4697C150.582 15.2922 151.703 15.7035 153.17 15.7035C154.654 15.7035 155.775 15.2922 156.533 14.4697C157.291 13.6471 157.67 12.4052 157.67 10.7439V1.69553C157.67 1.27617 157.775 0.961657 157.985 0.75198C158.211 0.542304 158.517 0.437467 158.904 0.437467C159.308 0.437467 159.614 0.542304 159.824 0.75198C160.033 0.961657 160.138 1.27617 160.138 1.69553V10.7923C160.138 12.3406 159.872 13.6471 159.34 14.7116C158.824 15.76 158.05 16.5503 157.017 17.0826C155.985 17.6148 154.703 17.8809 153.17 17.8809ZM170.067 17.8326C169.696 17.8326 169.406 17.7277 169.196 17.518C169.003 17.3084 168.906 17.018 168.906 16.6471V1.62295C168.906 1.23585 169.011 0.945528 169.22 0.75198C169.43 0.542304 169.712 0.437467 170.067 0.437467C170.406 0.437467 170.664 0.501982 170.841 0.631013C171.035 0.743916 171.212 0.953593 171.374 1.26004L177.712 13.0906H176.962L183.277 1.26004C183.438 0.953593 183.607 0.743916 183.785 0.631013C183.962 0.501982 184.22 0.437467 184.559 0.437467C184.914 0.437467 185.188 0.542304 185.382 0.75198C185.575 0.945528 185.672 1.23585 185.672 1.62295V16.6471C185.672 17.018 185.575 17.3084 185.382 17.518C185.204 17.7277 184.93 17.8326 184.559 17.8326C184.188 17.8326 183.906 17.7277 183.712 17.518C183.519 17.3084 183.422 17.018 183.422 16.6471V4.16326H183.954L178.341 14.5423C178.212 14.7842 178.075 14.9616 177.93 15.0745C177.785 15.1874 177.583 15.2439 177.325 15.2439C177.067 15.2439 176.857 15.1874 176.696 15.0745C176.535 14.9455 176.39 14.7681 176.261 14.5423L170.599 4.13907H171.18V16.6471C171.18 17.018 171.083 17.3084 170.89 17.518C170.712 17.7277 170.438 17.8326 170.067 17.8326Z" fill="#FFD8B5"/>
<path d="M31.7887 66.5983C32.1274 66.9532 32.2887 67.3403 32.2726 67.7596C32.2726 68.1951 32.0629 68.5983 31.6435 68.9693C30.8532 69.7112 30.0468 69.6951 29.2242 68.9209L20.9016 60.1145C20.5468 59.7435 20.3694 59.3484 20.3694 58.929C20.3694 58.4935 20.5629 58.0984 20.95 57.7435C21.7565 56.9855 22.579 57.0016 23.4178 57.7919L31.7887 66.5983ZM15.3855 65.5338C11.692 65.5338 8.95813 64.6548 7.18394 62.8967C5.42589 61.1225 4.54686 58.3887 4.54686 54.6951V43.5178C4.54686 39.792 5.43395 37.0581 7.20814 35.3162C8.98232 33.5581 11.7081 32.6952 15.3855 32.7275H21.192C24.9016 32.7275 27.6355 33.6065 29.3935 35.3646C31.1516 37.1226 32.0306 39.8565 32.0306 43.5662V54.6951C32.0306 58.3887 31.1516 61.1225 29.3935 62.8967C27.6355 64.6548 24.9016 65.5338 21.192 65.5338H15.3855ZM15.3855 61.4693H21.192C22.9178 61.4693 24.2726 61.2677 25.2565 60.8645C26.2403 60.4451 26.9339 59.7435 27.3371 58.7596C27.7564 57.7758 27.9661 56.4209 27.9661 54.6951V43.5662C27.9661 41.8565 27.7564 40.5097 27.3371 39.5258C26.9339 38.542 26.2403 37.8404 25.2565 37.421C24.2726 37.0017 22.9178 36.792 21.192 36.792H15.3855C13.6759 36.7759 12.3291 36.9694 11.3452 37.3726C10.3614 37.7759 9.65974 38.4694 9.24039 39.4533C8.82103 40.4371 8.61136 41.792 8.61136 43.5178V54.6951C8.61136 56.4209 8.81297 57.7758 9.21619 58.7596C9.63555 59.7435 10.3372 60.4451 11.321 60.8645C12.3049 61.2677 13.6597 61.4693 15.3855 61.4693ZM56.6305 65.5338C52.9369 65.5338 50.2031 64.6548 48.4289 62.8967C46.6708 61.1225 45.7918 58.3887 45.7918 54.6951V34.7597C45.7918 34.0823 45.9611 33.5743 46.2998 33.2355C46.6386 32.8968 47.1466 32.7275 47.824 32.7275C48.5015 32.7275 49.0095 32.8968 49.3482 33.2355C49.6869 33.5743 49.8563 34.0823 49.8563 34.7597V54.6951C49.8563 56.4209 50.0579 57.7758 50.4611 58.7596C50.8805 59.7435 51.5821 60.4451 52.566 60.8645C53.5498 61.2677 54.9047 61.4693 56.6305 61.4693H62.4369C64.1627 61.4693 65.5175 61.2677 66.5014 60.8645C67.4853 60.4451 68.1788 59.7435 68.582 58.7596C69.0014 57.7758 69.2111 56.4209 69.2111 54.6951V34.7597C69.2111 34.0823 69.3804 33.5743 69.7191 33.2355C70.0578 32.8968 70.5659 32.7275 71.2433 32.7275C71.9207 32.7275 72.4288 32.8968 72.7675 33.2355C73.1062 33.5743 73.2756 34.0823 73.2756 34.7597V54.6951C73.2756 58.3887 72.3965 61.1225 70.6385 62.8967C68.8804 64.6548 66.1465 65.5338 62.4369 65.5338H56.6305ZM86.3703 65.3403C85.0799 64.8403 84.6928 63.9532 85.209 62.679L96.7251 34.3243C97.2089 33.2597 97.967 32.7275 98.9992 32.7275H99.096C100.144 32.7759 100.854 33.3081 101.225 34.3243L112.935 62.679C113.451 63.9532 113.08 64.8403 111.822 65.3403C110.548 65.8403 109.66 65.4693 109.16 64.2274L106.548 57.8887H91.4751L88.9831 64.2274C88.4832 65.4854 87.6122 65.8564 86.3703 65.3403ZM93.0718 53.8242H104.878L98.8541 39.1629L93.0718 53.8242ZM127.016 65.5338C125.661 65.5338 124.984 64.8564 124.984 63.5016V34.7597C124.984 33.4049 125.661 32.7275 127.016 32.7275C128.371 32.7275 129.048 33.4049 129.048 34.7597V61.4693H142.451C143.806 61.4693 144.484 62.1467 144.484 63.5016C144.484 64.8564 143.806 65.5338 142.451 65.5338H127.016ZM158.033 65.5338C157.339 65.5338 156.823 65.3725 156.484 65.0499C156.162 64.7112 156.001 64.1951 156.001 63.5016V34.8081C156.001 34.0984 156.162 33.5823 156.484 33.2597C156.823 32.9372 157.339 32.7759 158.033 32.7759C158.742 32.7759 159.259 32.9372 159.581 33.2597C159.904 33.5823 160.065 34.0984 160.065 34.8081V63.5016C160.065 64.1951 159.904 64.7112 159.581 65.0499C159.259 65.3725 158.742 65.5338 158.033 65.5338ZM184.79 65.5338C184.113 65.5338 183.605 65.3645 183.266 65.0258C182.927 64.687 182.758 64.179 182.758 63.5016V36.8404H173.371C172.694 36.8404 172.186 36.671 171.847 36.3323C171.508 35.9936 171.339 35.4855 171.339 34.8081C171.339 34.1307 171.508 33.6226 171.847 33.2839C172.186 32.9452 172.694 32.7759 173.371 32.7759H196.21C196.887 32.7759 197.395 32.9452 197.734 33.2839C198.073 33.6226 198.242 34.1307 198.242 34.8081C198.242 35.4855 198.073 35.9936 197.734 36.3323C197.395 36.671 196.887 36.8404 196.21 36.8404H186.823V63.5016C186.823 64.1467 186.645 64.6467 186.29 65.0016C185.952 65.3564 185.452 65.5338 184.79 65.5338ZM220.078 65.5338C218.724 65.5338 218.046 64.8564 218.046 63.5016V53.6306L206.966 35.9694C206.288 34.8081 206.498 33.8565 207.595 33.1146C208.756 32.4049 209.691 32.6146 210.401 33.7436L220.078 49.2758L230.24 33.7436C230.578 33.2114 230.99 32.8968 231.474 32.8001C231.957 32.6872 232.465 32.8243 232.998 33.2114C234.175 33.9372 234.385 34.8565 233.627 35.9694L222.111 53.6306V63.5016C222.111 64.8564 221.433 65.5338 220.078 65.5338Z" fill="#B7E8FB"/>
</svg>
