<svg width="352" height="84" viewBox="0 0 352 84" fill="none" xmlns="http://www.w3.org/2000/svg">
<g clip-path="url(#clip0_361_2379)">
<path fill-rule="evenodd" clip-rule="evenodd" d="M278.656 42.345C278.519 42.2094 278.519 42.0739 278.656 41.9387C278.656 41.9387 287.461 33.7092 297.003 33.3388C306.549 32.968 315.827 41.3969 316.566 41.3969C317.303 41.3969 320.017 39.0051 322.414 37.8078C325.517 36.2578 327.346 35.4091 330.749 34.7609C333.026 34.3269 334.347 34.2054 336.663 34.2868C338.273 34.3434 339.218 34.3546 340.764 34.7609C341.771 35.0258 342.041 35.3024 342.041 35.3024C342.041 35.3024 338.768 34.8544 336.663 34.8961C334.336 34.9426 333.018 35.1182 330.749 35.6409C327.338 36.4272 325.505 37.2425 322.414 38.8914C320.503 39.9098 317.709 41.8958 317.709 41.8958C317.573 42.0062 317.573 42.1417 317.709 42.2643C317.709 42.2643 320.498 44.2618 322.414 45.3244C325.497 47.0338 327.315 47.9931 330.749 48.778C333.015 49.2962 334.339 49.4239 336.663 49.455C339.035 49.4866 342.713 49.0367 342.713 49.0367C342.713 49.0367 341.907 49.5228 340.628 49.7935C339.352 50.0643 338.27 50.1514 336.663 50.1998C334.35 50.2698 333.024 50.2174 330.749 49.7935C328.328 49.343 325.511 48.2569 322.414 46.6785C320.014 45.4569 317.303 43.022 316.566 43.022C315.827 43.022 307.221 50.6738 297.003 50.3353C286.788 49.9965 278.656 42.345 278.656 42.345ZM281.411 41.8958C281.289 42.0188 281.289 42.1417 281.411 42.2643C281.411 42.2643 287.861 48.3353 297.073 48.6424C306.284 48.9496 315.465 42.2643 315.465 42.2643C315.588 42.1417 315.588 42.0188 315.465 41.8958C315.465 41.8958 305.678 34.4924 297.073 34.8284C288.468 35.1646 281.411 41.8958 281.411 41.8958Z" fill="#07ACEC"/>
<path d="M351.719 41.8592C351.719 64.8214 333.243 83.4364 310.45 83.4364C287.656 83.4364 269.177 64.8214 269.177 41.8592C269.177 18.8966 287.656 0.281921 310.45 0.281921C333.243 0.281921 351.719 18.8966 351.719 41.8592ZM271.75 41.8592C271.75 63.3898 289.076 80.8438 310.45 80.8438C331.82 80.8438 349.147 63.3898 349.147 41.8592C349.147 20.3285 331.82 2.8744 310.45 2.8744C289.076 2.8744 271.75 20.3285 271.75 41.8592Z" fill="#07ACEC"/>
<path d="M290.15 40.7078C290.15 41.4932 289.516 42.1299 288.737 42.1299C287.956 42.1299 287.325 41.4932 287.325 40.7078C287.325 39.9224 287.956 39.2859 288.737 39.2859C289.516 39.2859 290.15 39.9224 290.15 40.7078Z" fill="#07ACEC"/>
<path d="M16.0181 27.16L19.9108 27.16V58.0121L15.8952 58.0124V34.9048L16.0489 36.2628L11.1099 52.7923H8.92732L4.13998 36.6873L4.29371 34.9048V58.0124H0.278015V27.16H4.17073L10.0944 45.2598L16.0181 27.16Z" fill="#07ACEC"/>
<path d="M84.056 35.987H88.1179V58.0124H84.056V35.987ZM75.655 35.987H79.6557V58.0124H75.655V35.987ZM77.6071 35.987H86.2564V40.1036H77.6071V35.987Z" fill="#07ACEC"/>
<path d="M126.139 53.8535H126.508C127.143 53.8535 127.625 53.7673 127.953 53.2862C128.281 52.8052 128.501 52.0766 128.614 51.1006C128.737 50.1105 128.798 48.7525 128.798 47.0266V35.987H132.461V48.4694C132.461 51.0157 132.082 52.9466 131.324 54.2623C130.576 55.5638 128.977 56.2145 127.584 56.2145H127.215L126.139 53.8535ZM125.57 53.8535H129.245V63.45H125.57V53.8535ZM125.57 53.8535H141.264V57.9118H125.57V53.8535ZM139.4 53.8535H143.462V63.45H139.4V53.8535ZM136.523 35.987H140.28V57.9118H136.523V35.987ZM130.75 35.987H138.19V39.7911H130.75V35.987Z" fill="#07ACEC"/>
<path d="M159.879 35.987L153.617 63.1683C153.371 64.1726 153.049 64.965 152.649 65.5449C152.249 66.1391 151.757 66.5636 151.173 66.8181C150.589 67.0726 149.872 67.2 149.021 67.2H146.774V63.0412H147.405C147.988 63.0412 149.326 62.8785 149.664 62.5531C150.012 62.2278 150.315 61.6689 150.571 60.8768L156.276 35.987H159.879ZM145.348 35.987H149.217L154.12 55.1264L151.711 59.8158L145.348 35.987Z" fill="#07ACEC"/>
<path d="M169.527 45.3659L172.404 35.987H176.466L172.742 49.1641L169.527 45.3659ZM163.095 35.987H167.157V58.0124H163.095V35.987ZM169.665 48.7183L173.498 46.4904L177.312 58.0124H173.081L169.665 48.7183ZM164.617 44.9201H172.124V49.0367H164.617V44.9201Z" fill="#07ACEC"/>
<path d="M182.051 38.2998H186.09V58.0124H182.051V38.2998ZM178.328 35.987H189.836V40.1646H178.328V35.987Z" fill="#07ACEC"/>
<path d="M208.115 35.987H211.589V58.0124H208.115V35.987ZM195.068 53.8958H199.991C200.627 53.8958 201.134 53.62 201.513 53.0681C201.902 52.5165 202.097 51.788 202.097 50.8827C202.097 50.2746 202.01 49.744 201.836 49.2912C201.662 48.8387 201.415 48.4851 201.098 48.2303C200.78 47.9758 200.411 47.8484 199.991 47.8484H195.068V43.4157H200.719C201.816 43.4157 202.784 43.7128 203.625 44.3069C204.465 44.9011 205.115 45.7355 205.576 46.8107C206.048 47.8856 205.94 49.4539 205.94 50.8827C205.94 52.2973 205.868 53.5422 205.407 54.6174C204.946 55.6923 204.295 56.527 203.455 57.1211C202.615 57.7153 201.642 58.0124 200.535 58.0124H195.068V53.8958ZM193.547 35.987H197.436V58.0124H193.547V35.987Z" fill="#07ACEC"/>
<path d="M30.3771 57.96C28.0146 57.96 26.3285 57.3636 25.3185 56.1708C24.3086 54.9603 23.8036 53.1798 23.8036 50.8301V42.7921C23.8036 40.4421 24.3086 38.6797 25.3185 37.5046C26.3285 36.3121 28.0146 35.7157 30.3771 35.7157C32.7577 35.7157 34.4532 36.3121 35.463 37.5046C36.491 38.6974 37.0051 40.46 37.0051 42.7921V50.8301C37.0051 53.1798 36.491 54.9603 35.463 56.1708C34.4532 57.3636 32.7577 57.96 30.3771 57.96ZM30.3771 54.1957C31.0625 54.1957 31.5135 53.9731 31.7298 53.5279C31.9464 53.065 32.0545 52.442 32.0545 51.6586V42.3592C32.0545 41.5579 31.9464 40.9349 31.7298 40.4899C31.5135 40.0447 31.0625 39.8221 30.3771 39.8221C29.7279 39.8221 29.2953 40.0537 29.0787 40.5165C28.8624 40.9615 28.7542 41.5758 28.7542 42.3592V51.6586C28.7542 52.442 28.8532 53.065 29.0517 53.5279C29.2499 53.9731 29.692 54.1957 30.3771 54.1957Z" fill="#07ACEC"/>
<path d="M41.2363 36.1382H45.7478V37.6138C46.9639 36.4288 48.2688 35.8364 49.662 35.8364C51.2102 35.8364 52.3048 36.4848 52.9462 37.7815C53.5874 39.0785 53.9083 40.5877 53.9083 42.3091V51.3596C53.9083 53.4388 53.5432 55.1158 52.8133 56.3903C52.1057 57.6649 50.978 58.3019 49.4299 58.3019C48.1915 58.3019 46.9639 57.7206 45.7478 56.558V67.0286H41.2363V36.1382ZM47.738 54.2788C48.3794 54.2788 48.8107 53.9658 49.0317 53.3397C49.275 52.7136 49.3968 51.8305 49.3968 50.6904V43.008C49.3968 42.002 49.275 41.2194 49.0317 40.6605C48.7884 40.1013 48.3461 39.8219 47.7049 39.8219C47.0415 39.8219 46.3889 40.1013 45.7478 40.6605V53.608C46.367 54.0551 47.0304 54.2788 47.738 54.2788Z" fill="#07ACEC"/>
<path d="M64.6223 58.3016C62.2826 58.3016 60.5643 57.6486 59.4677 56.3427C58.3708 55.0122 57.8225 53.0533 57.8225 50.4661V43.5506C57.8225 40.9388 58.3708 38.9799 59.4677 37.674C60.5887 36.3681 62.307 35.7151 64.6223 35.7151C67.0107 35.7151 68.6922 36.3927 69.6671 37.7479C70.6663 39.1031 71.166 41.1482 71.166 43.8833V48.6839H62.7577V51.7227C62.7577 52.7576 62.904 53.1958 63.1965 53.664C63.5132 54.1321 64.0009 54.3662 64.6587 54.3662C65.2924 54.3662 65.7433 54.1444 66.0114 53.7009C66.3039 53.2328 66.4501 52.5112 66.4501 51.5749H71.1296C71.1296 53.7678 70.5813 55.4434 69.4844 56.6014C68.3878 57.7349 66.7668 58.3016 64.6223 58.3016ZM66.4501 44.4746V42.4418C66.4501 41.333 66.3161 40.5446 66.0481 40.0764C65.7798 39.5836 65.3046 39.3372 64.6223 39.3372C63.9155 39.3372 63.4281 39.5959 63.1598 40.1134C62.8918 40.6308 62.7577 41.5918 62.7577 42.9962V44.4746H66.4501Z" fill="#07ACEC"/>
<path d="M93.1399 36.0175H97.6514V37.4931C98.8678 36.3081 100.173 35.7157 101.566 35.7157C103.114 35.7157 104.209 36.3639 104.85 37.6608C105.491 38.9575 105.812 40.4667 105.812 42.1884V51.2389C105.812 53.3181 105.447 54.9951 104.717 56.2694C104.01 57.5439 102.882 58.1812 101.333 58.1812C100.095 58.1812 98.8678 57.5996 97.6514 56.4371V66.9077H93.1399V36.0175ZM99.6419 54.1579C100.283 54.1579 100.714 53.8448 100.936 53.2187C101.179 52.5927 101.3 51.7095 101.3 50.5694V42.887C101.3 41.881 101.179 41.0984 100.936 40.5395C100.692 39.9806 100.25 39.7012 99.6085 39.7012C98.9451 39.7012 98.2928 39.9806 97.6514 40.5395V53.4873C98.2706 53.9344 98.934 54.1579 99.6419 54.1579Z" fill="#07ACEC"/>
<path d="M116.525 57.9606C114.162 57.9606 112.476 57.3642 111.466 56.1716C110.456 54.9609 109.951 53.1807 109.951 50.8306V42.7927C109.951 40.4429 110.456 38.6803 111.466 37.5054C112.476 36.3126 114.162 35.7162 116.525 35.7162C118.905 35.7162 120.601 36.3126 121.61 37.5054C122.638 38.6982 123.152 40.4606 123.152 42.7927V50.8306C123.152 53.1807 122.638 54.9609 121.61 56.1716C120.601 57.3642 118.905 57.9606 116.525 57.9606ZM116.525 54.1962C117.21 54.1962 117.661 53.9736 117.877 53.5287C118.094 53.0659 118.202 52.4426 118.202 51.6594V42.3598C118.202 41.5587 118.094 40.9354 117.877 40.4905C117.661 40.0453 117.21 39.823 116.525 39.823C115.876 39.823 115.443 40.0543 115.226 40.5171C115.01 40.9623 114.902 41.5764 114.902 42.3598V51.6594C114.902 52.4426 115.001 53.0659 115.199 53.5287C115.398 53.9736 115.839 54.1962 116.525 54.1962Z" fill="#07ACEC"/>
<path d="M229.232 38.7016V53.5612C229.232 54.1786 229.582 54.6414 230.283 54.9503C230.872 55.2168 231.167 55.5957 231.167 56.0868C231.167 57.111 231.139 57.6794 231.082 57.7917C231.04 57.904 230.837 57.96 230.473 57.96H224.879C224.599 57.96 224.424 57.8547 224.354 57.6441C224.283 57.4199 224.248 56.8795 224.248 56.0235C224.248 55.6307 224.437 55.3571 224.816 55.2028C225.545 54.88 225.909 54.5151 225.909 54.1083V29.2303C225.909 28.6269 225.854 28.1778 225.741 27.8832C225.629 27.5745 225.377 27.3219 224.984 27.1255C224.634 26.9571 224.396 26.7747 224.269 26.5783C224.157 26.3818 224.101 26.01 224.101 25.4627C224.101 24.4805 224.36 23.9894 224.879 23.9894H230.725L237.79 40.3855V28.3041C237.79 27.6306 237.447 27.1536 236.76 26.8729C236.354 26.6905 236.087 26.487 235.961 26.2625C235.849 26.024 235.793 25.568 235.793 24.8945C235.793 24.4735 235.835 24.2209 235.919 24.1367C236.003 24.0385 236.164 23.9894 236.403 23.9894H242.207C242.529 24.0315 242.69 24.4946 242.69 25.3785C242.69 25.8977 242.655 26.2275 242.585 26.3678C242.529 26.5081 242.389 26.6274 242.164 26.7256C241.674 26.922 241.365 27.1115 241.239 27.2939C241.113 27.4763 241.05 27.7288 241.05 28.0515V57.96H237.475L229.232 38.7016Z" fill="#07ACEC"/>
<path d="M247.548 33.0397C246.286 33.4748 245.214 33.6924 244.33 33.6924C243.896 33.6924 243.679 33.4538 243.679 32.9767V32.1347C243.679 31.8122 243.742 31.5736 243.868 31.4191C243.994 31.2508 244.309 31.0685 244.814 30.8719C245.487 30.5914 246.405 30.023 247.569 29.167C248.732 28.3111 249.868 27.1676 250.975 25.7364C251.83 24.6279 252.335 24.0315 252.489 23.9473C252.643 23.8491 252.91 23.8 253.288 23.8H255.034V54.2556C255.034 54.5644 255.272 54.838 255.749 55.0765C256.155 55.2728 256.401 55.4834 256.485 55.7079C256.583 55.9185 256.632 56.4866 256.632 57.4129C256.632 57.7777 256.387 57.96 255.896 57.96H246.265C245.858 57.96 245.606 57.8967 245.508 57.7704C245.424 57.6441 245.382 57.3356 245.382 56.8445C245.382 56.1428 245.417 55.7079 245.487 55.5397C245.571 55.3711 245.865 55.2098 246.37 55.0555C247.155 54.817 247.548 54.4731 247.548 54.024V33.0397Z" fill="#07ACEC"/>
</g>
<defs>
<clipPath id="clip0_361_2379">
<rect width="352" height="84" fill="white"/>
</clipPath>
</defs>
</svg>
