<svg width="49" height="50" viewBox="0 0 49 50" fill="none" xmlns="http://www.w3.org/2000/svg">
<path fill-rule="evenodd" clip-rule="evenodd" d="M5.92544 25.1554C5.84606 25.0764 5.84606 24.9975 5.92544 24.9187C5.92544 24.9187 11.0556 20.1241 16.6151 19.9083C22.1762 19.6923 27.5817 24.603 28.0126 24.603C28.4419 24.603 30.0229 23.2096 31.4192 22.512C33.227 21.6089 34.2929 21.1145 36.2757 20.7368C37.6024 20.484 38.3718 20.4132 39.7212 20.4606C40.6591 20.4936 41.2099 20.5001 42.1105 20.7368C42.6969 20.8911 42.854 21.0523 42.854 21.0523C42.854 21.0523 40.9474 20.7913 39.7212 20.8156C38.3653 20.8427 37.5975 20.945 36.2757 21.2495C34.2881 21.7076 33.2206 22.1826 31.4192 23.1433C30.3064 23.7366 28.6784 24.8937 28.6784 24.8937C28.599 24.958 28.599 25.0369 28.6784 25.1084C28.6784 25.1084 30.3031 26.2722 31.4192 26.8912C33.2157 27.8871 34.2751 28.446 36.2757 28.9033C37.5959 29.2052 38.3669 29.2796 39.7212 29.2977C41.1029 29.3162 43.2461 29.054 43.2461 29.054C43.2461 29.054 42.7763 29.3372 42.0311 29.495C41.2876 29.6527 40.6575 29.7034 39.7212 29.7317C38.3734 29.7724 37.6007 29.7419 36.2757 29.495C34.8647 29.2325 33.2238 28.5997 31.4192 27.6801C30.0213 26.9684 28.4419 25.5498 28.0126 25.5498C27.5817 25.5498 22.5682 30.0078 16.6151 29.8106C10.6636 29.6132 5.92544 25.1554 5.92544 25.1554ZM7.53074 24.8937C7.45947 24.9653 7.45947 25.0369 7.53074 25.1084C7.53074 25.1084 11.2889 28.6454 16.6556 28.8243C22.0223 29.0033 27.3711 25.1084 27.3711 25.1084C27.4424 25.0369 27.4424 24.9653 27.3711 24.8937C27.3711 24.8937 21.6691 20.5804 16.6556 20.7761C11.642 20.9721 7.53074 24.8937 7.53074 24.8937Z" fill="white"/>
<path d="M48.4929 24.8592C48.4929 38.2372 37.7287 49.0824 24.4489 49.0824C11.169 49.0824 0.402893 38.2372 0.402893 24.8592C0.402893 11.481 11.169 0.635956 24.4489 0.635956C37.7287 0.635956 48.4929 11.481 48.4929 24.8592ZM1.9021 24.8592C1.9021 37.4031 11.9968 47.572 24.4489 47.572C36.8993 47.572 46.9945 37.4031 46.9945 24.8592C46.9945 12.3152 36.8993 2.14636 24.4489 2.14636C11.9968 2.14636 1.9021 12.3152 1.9021 24.8592Z" fill="white"/>
<path d="M12.6221 24.8591C12.6221 25.3167 12.2527 25.6876 11.7992 25.6876C11.344 25.6876 10.9763 25.3167 10.9763 24.8591C10.9763 24.4015 11.344 24.0307 11.7992 24.0307C12.2527 24.0307 12.6221 24.4015 12.6221 24.8591Z" fill="white"/>
</svg>
