<svg width="33" height="33" viewBox="0 0 33 33" fill="none" xmlns="http://www.w3.org/2000/svg">
<circle cx="16.2124" cy="16.2765" r="16" fill="white"/>
<circle cx="16.2124" cy="16.2765" r="16" fill="white"/>
<path fill-rule="evenodd" clip-rule="evenodd" d="M21.5551 10.536C21.7518 10.4532 21.9671 10.4247 22.1786 10.4533C22.3901 10.482 22.5901 10.5668 22.7577 10.699C22.9253 10.8311 23.0544 11.0058 23.1316 11.2048C23.2088 11.4038 23.2312 11.6198 23.1966 11.8304L21.3911 22.7819C21.2159 23.8383 20.0569 24.4441 19.0881 23.9179C18.2777 23.4777 17.074 22.7994 15.9914 22.0917C15.45 21.7375 13.7918 20.6031 13.9956 19.7959C14.1707 19.1057 16.957 16.5121 18.5491 14.9701C19.174 14.3643 18.889 14.0148 18.1511 14.5721C16.3177 15.9556 13.3763 18.0597 12.4035 18.6519C11.5453 19.1742 11.0979 19.2633 10.563 19.1742C9.58698 19.0118 8.68186 18.7602 7.9431 18.4537C6.94483 18.0398 6.99339 16.6673 7.94231 16.2677L21.5551 10.536Z" fill="#07ACEC"/>
</svg>
