<svg width="33" height="33" viewBox="0 0 33 33" fill="none" xmlns="http://www.w3.org/2000/svg">
<circle cx="16.2124" cy="16.2765" r="16" fill="white"/>
<circle cx="16.2124" cy="16.2765" r="16" fill="white"/>
<path d="M20.3164 18.063C20.0936 17.9513 18.9979 17.4128 18.7939 17.3378C18.5891 17.2635 18.4406 17.2268 18.2914 17.4503C18.1436 17.673 17.7161 18.1748 17.5864 18.3233C17.4566 18.4725 17.3261 18.4905 17.1034 18.3795C16.8806 18.267 16.1621 18.0323 15.3109 17.2733C14.6486 16.6823 14.2009 15.9525 14.0711 15.729C13.9414 15.5063 14.0576 15.3855 14.1686 15.2745C14.2691 15.1748 14.3921 15.0143 14.5031 14.8845C14.6149 14.754 14.6516 14.661 14.7266 14.5118C14.8009 14.3633 14.7641 14.2335 14.7079 14.1218C14.6516 14.01 14.2061 12.9128 14.0209 12.4665C13.8394 12.0323 13.6556 12.0915 13.5191 12.084C13.3767 12.0783 13.2342 12.0758 13.0916 12.0765C12.9431 12.0765 12.7016 12.132 12.4976 12.3555C12.2936 12.5783 11.7176 13.1175 11.7176 14.2148C11.7176 15.3113 12.5164 16.371 12.6274 16.5203C12.7391 16.6688 14.1994 18.9202 16.4351 19.8855C16.9669 20.115 17.3816 20.2522 17.7056 20.3542C18.2396 20.5245 18.7256 20.5005 19.1089 20.4427C19.5371 20.379 20.4274 19.9035 20.6134 19.383C20.7994 18.8625 20.7994 18.4163 20.7431 18.3233C20.6876 18.2303 20.5399 18.1748 20.3164 18.063ZM16.2499 23.6152H16.2469C14.9192 23.6154 13.6159 23.2584 12.4736 22.5817L12.2029 22.4212L9.39712 23.1577L10.1456 20.4217L9.96937 20.1412C9.2272 18.9594 8.83458 17.5918 8.83687 16.1963C8.83762 12.1088 12.1639 8.78327 16.2529 8.78327C18.2329 8.78327 20.0944 9.55577 21.4939 10.9568C22.1844 11.6442 22.7317 12.4618 23.1041 13.3622C23.4765 14.2626 23.6667 15.2279 23.6636 16.2023C23.6614 20.2897 20.3359 23.6152 16.2499 23.6152ZM22.5596 9.89252C21.7332 9.06071 20.75 8.40117 19.6669 7.95212C18.5838 7.50307 17.4224 7.27343 16.2499 7.27652C11.3336 7.27652 7.33238 11.2778 7.33013 16.1955C7.33013 17.7675 7.74038 19.302 8.52112 20.6542L7.25513 25.2765L11.9839 24.036C13.2916 24.7484 14.7569 25.1218 16.2461 25.122H16.2499C21.1654 25.122 25.1673 21.1207 25.1696 16.2023C25.1732 15.0302 24.9444 13.8691 24.4964 12.786C24.0484 11.703 23.3901 10.7195 22.5596 9.89252Z" fill="#07ACEC"/>
</svg>
