<svg width="33" height="33" viewBox="0 0 33 33" fill="none" xmlns="http://www.w3.org/2000/svg">
<circle cx="16.2124" cy="16.2765" r="16" fill="white"/>
<circle cx="16.2124" cy="16.2765" r="16" fill="white"/>
<path d="M22.7701 10.0292C22.3237 9.61796 20.5169 8.3068 16.4885 8.28922C16.4885 8.28922 11.7395 8.00449 9.42648 10.1277C8.13992 11.4142 7.68647 13.3019 7.63725 15.6395C7.58804 17.9771 7.52828 22.357 11.75 23.5451H11.7535L11.75 25.359C11.75 25.359 11.7219 26.0936 12.207 26.2413C12.7905 26.4241 13.135 25.8651 13.6939 25.264C13.9997 24.9336 14.4216 24.4485 14.7414 24.0794C17.6309 24.322 19.849 23.7666 20.1021 23.6857C20.6856 23.4959 23.9864 23.0741 24.5207 18.6942C25.0761 14.1736 24.2535 11.3193 22.7701 10.0292ZM23.2587 18.3637C22.8053 22.0195 20.1302 22.2515 19.6381 22.4097C19.4272 22.4765 17.4763 22.9616 15.0262 22.8034C15.0262 22.8034 13.1983 25.0074 12.6288 25.5804C12.4425 25.7667 12.2386 25.7491 12.2421 25.38C12.2421 25.1375 12.2562 22.3675 12.2562 22.3675C12.2527 22.3675 12.2527 22.3675 12.2562 22.3675C8.67775 21.3763 8.88866 17.6466 8.92733 15.6957C8.96599 13.7448 9.33509 12.1454 10.4248 11.0697C12.3828 9.29457 16.4147 9.55821 16.4147 9.55821C19.8209 9.57227 21.4519 10.5987 21.8316 10.9432C23.0865 12.0188 23.7262 14.5919 23.2587 18.3637ZM18.3726 15.5235C18.3867 15.8258 17.9332 15.8469 17.9192 15.5446C17.8805 14.7712 17.5184 14.3951 16.7732 14.3529C16.4709 14.3353 16.499 13.8819 16.7978 13.8995C17.7786 13.9522 18.3234 14.5146 18.3726 15.5235ZM19.0862 15.9207C19.1214 14.4302 18.1898 13.2632 16.4217 13.1331C16.1229 13.1121 16.1545 12.6586 16.4533 12.6797C18.4921 12.8273 19.5783 14.2299 19.5397 15.9312C19.5361 16.2335 19.0792 16.2195 19.0862 15.9207ZM20.7383 16.3917C20.7419 16.694 20.2849 16.6975 20.2849 16.3952C20.2638 13.5304 18.355 11.9696 16.0385 11.952C15.7398 11.9485 15.7398 11.4986 16.0385 11.4986C18.6292 11.5162 20.7137 13.3054 20.7383 16.3917ZM20.3411 19.8401V19.8471C19.9615 20.515 19.2514 21.2532 18.5203 21.0177L18.5132 21.0072C17.7715 20.7998 16.0245 19.8999 14.9207 19.0211C14.3513 18.5711 13.831 18.0403 13.4303 17.5306C13.0682 17.0772 12.7026 16.5394 12.3476 15.8926C11.5989 14.5392 11.4337 13.9346 11.4337 13.9346C11.1981 13.2035 11.9328 12.4934 12.6042 12.1137H12.6112C12.9346 11.945 13.244 12.0013 13.4514 12.2508C13.4514 12.2508 13.8872 12.7711 14.0736 13.0277C14.2493 13.2667 14.4848 13.6499 14.6079 13.8643C14.8223 14.2475 14.6887 14.6376 14.4778 14.7993L14.056 15.1368C13.8416 15.309 13.8697 15.6289 13.8697 15.6289C13.8697 15.6289 14.4954 17.9946 16.833 18.5922C16.833 18.5922 17.1529 18.6203 17.3251 18.4059L17.6626 17.9841C17.8243 17.7732 18.2144 17.6396 18.5976 17.854C19.1143 18.1458 19.7717 18.5993 20.2076 19.0105C20.4536 19.2109 20.5099 19.5167 20.3411 19.8401Z" fill="#07ACEC"/>
</svg>
