<svg width="20" height="18" viewBox="0 0 20 18" fill="none" xmlns="http://www.w3.org/2000/svg">
<path d="M4.54598 13.7284C4.68576 13.3461 4.52334 12.9319 4.19237 12.6949C4.03908 12.5851 3.88778 12.4734 3.74105 12.3553C2.90643 11.6896 2.21313 10.8934 1.78837 9.88134C1.0986 8.24084 1.25398 6.65722 2.15823 5.15144C3.0962 3.58963 4.48837 2.61251 6.11902 1.99056C8.82197 0.958842 11.5564 0.907792 14.2896 1.85786C15.8885 2.41346 17.2821 3.30519 18.315 4.72774C19.7958 6.76941 19.6924 9.37964 18.0654 11.3147C16.747 12.8823 15.0419 13.734 13.1301 14.2029C12.0922 14.4578 9.40667 14.022 8.71577 14.6068C7.26031 15.877 5.5904 16.6804 3.73547 17.0858C3.56672 17.1223 3.39375 17.1456 3.22287 17.1711C3.00631 17.204 2.82912 17.142 2.71802 16.932C2.60763 16.722 2.6477 16.531 2.78552 16.3574C2.94583 16.1562 3.10897 15.9564 3.28404 15.7712C3.83858 15.187 4.26735 14.4905 4.54598 13.7284Z" stroke="#ABABAB" stroke-width="1.25" stroke-linecap="round"/>
</svg>
