<svg width="67" height="67" viewBox="0 0 67 67" fill="none" xmlns="http://www.w3.org/2000/svg">
<path d="M14.6975 35.6522L10.683 18.791M27.9808 39.0856L53.4974 13.5691M44.6397 56.1876L31.276 52.6709M31.9793 49.1541C31.9793 56.923 25.6813 63.2212 17.9123 63.2212C10.1432 63.2212 3.84518 56.923 3.84518 49.1541C3.84518 41.3852 10.1432 35.087 17.9123 35.087C25.6813 35.087 31.9793 41.3852 31.9793 49.1541ZM16.1539 12.228C16.1539 16.1125 13.0049 19.2615 9.12033 19.2615C5.23581 19.2615 2.08679 16.1125 2.08679 12.228C2.08679 8.34348 5.23581 5.19446 9.12033 5.19446C13.0049 5.19446 16.1539 8.34348 16.1539 12.228ZM65.3887 8.71123C65.3887 12.5958 62.2398 15.7448 58.3551 15.7448C54.4705 15.7448 51.3216 12.5958 51.3216 8.71123C51.3216 4.82671 54.4705 1.67769 58.3551 1.67769C62.2398 1.67769 65.3887 4.82671 65.3887 8.71123ZM58.3551 57.946C58.3551 61.8307 55.2062 64.9796 51.3216 64.9796C47.437 64.9796 44.288 61.8307 44.288 57.946C44.288 54.0614 47.437 50.9125 51.3216 50.9125C55.2062 50.9125 58.3551 54.0614 58.3551 57.946Z" stroke="#FF9218" stroke-width="2.4" stroke-linecap="round"/>
</svg>
