<svg width="62" height="67" viewBox="0 0 62 67" fill="none" xmlns="http://www.w3.org/2000/svg">
<path fill-rule="evenodd" clip-rule="evenodd" d="M33.8815 2.6667L33.8815 2.66666C33.9863 2.56189 34.0763 2.53528 34.1452 2.52978C34.2269 2.52326 34.3269 2.5445 34.4227 2.60366C34.5184 2.66283 34.5821 2.74273 34.6127 2.81868C34.6386 2.88277 34.6551 2.97511 34.6082 3.11568L34.6082 3.11578L27.0763 25.7118C26.2276 28.2578 28.1226 30.8866 30.8059 30.8866H47.2737C48.638 30.8866 49.3211 32.5365 48.3566 33.5008L48.3565 33.5009L17.8669 63.9905L17.8669 63.9906C17.7621 64.0954 17.6722 64.122 17.6032 64.1275C17.5216 64.134 17.4216 64.1128 17.3259 64.0536C17.2302 63.9944 17.1665 63.9145 17.1358 63.8385C17.1099 63.7744 17.0934 63.682 17.1403 63.5414L24.6724 40.9453C25.5211 38.3993 23.6261 35.7705 20.9426 35.7705H4.47495C3.11049 35.7705 2.42743 34.1208 3.39201 33.1563L3.39208 33.1563L33.8815 2.6667ZM32.1845 0.969565C34.3026 -1.14836 37.8327 1.03251 36.885 3.87481L29.3531 26.4708L28.2147 26.0913L29.3531 26.4708C29.0225 27.4626 29.7607 28.4866 30.8059 28.4866H47.2737C50.7757 28.4866 52.5305 32.7213 50.0535 35.1979L50.0535 35.198L19.564 65.6876C17.4456 67.8061 13.9162 65.6242 14.8634 62.7825L16.0019 63.1619L14.8634 62.7825L22.3956 40.1864C22.7262 39.1946 21.9881 38.1705 20.9426 38.1705H4.47495C0.972567 38.1705 -0.781783 33.9357 1.69502 31.4592L1.6951 31.4591L32.1845 0.969606L32.1845 0.969565ZM50.1536 18.0654C50.3936 17.9814 50.5916 17.8014 50.7476 17.5254L57.0296 6.65338C57.1976 6.37738 57.2576 6.11938 57.2096 5.87938C57.1736 5.62738 57.0716 5.41738 56.9036 5.24938C56.7476 5.06938 56.5496 4.94938 56.3096 4.88938C56.0816 4.82938 55.8536 4.84738 55.6256 4.94338C55.3976 5.02738 55.1996 5.21338 55.0316 5.50138L48.7316 16.3554C48.5756 16.6314 48.5156 16.8954 48.5516 17.1474C48.5876 17.3994 48.6896 17.6094 48.8576 17.7774C49.0256 17.9454 49.2236 18.0594 49.4516 18.1194C49.6796 18.1794 49.9136 18.1614 50.1536 18.0654ZM45.6176 11.6574C46.2176 12.3654 47.0576 12.7194 48.1376 12.7194C48.8456 12.7194 49.4516 12.5574 49.9556 12.2334C50.4596 11.9094 50.8436 11.4534 51.1076 10.8654C51.3836 10.2774 51.5216 9.59338 51.5216 8.81338C51.5216 7.64938 51.2216 6.71938 50.6216 6.02338C50.0336 5.31538 49.2056 4.96138 48.1376 4.96138C47.4296 4.96138 46.8236 5.11738 46.3196 5.42938C45.8156 5.74138 45.4256 6.18538 45.1496 6.76138C44.8736 7.33738 44.7356 8.02138 44.7356 8.81338C44.7356 9.98938 45.0296 10.9374 45.6176 11.6574ZM48.5876 10.5594C48.4676 10.6794 48.3176 10.7394 48.1376 10.7394C47.8496 10.7394 47.6336 10.6014 47.4896 10.3254C47.3456 10.0374 47.2736 9.53338 47.2736 8.81338C47.2736 8.33338 47.3036 7.95538 47.3636 7.67938C47.4356 7.40338 47.5316 7.21138 47.6516 7.10338C47.7836 6.98338 47.9456 6.92338 48.1376 6.92338C48.4016 6.92338 48.6056 7.06138 48.7496 7.33738C48.9056 7.61338 48.9836 8.10538 48.9836 8.81338C48.9836 9.28138 48.9476 9.65938 48.8756 9.94738C48.8156 10.2234 48.7196 10.4274 48.5876 10.5594ZM55.1396 16.9854C55.7396 17.6934 56.5736 18.0474 57.6416 18.0474C58.3616 18.0474 58.9736 17.8854 59.4776 17.5614C59.9816 17.2374 60.3656 16.7874 60.6296 16.2114C60.9056 15.6234 61.0436 14.9394 61.0436 14.1594C61.0436 12.9954 60.7436 12.0594 60.1436 11.3514C59.5436 10.6434 58.7096 10.2894 57.6416 10.2894C56.9456 10.2894 56.3396 10.4454 55.8236 10.7574C55.3196 11.0694 54.9296 11.5134 54.6536 12.0894C54.3896 12.6654 54.2576 13.3554 54.2576 14.1594C54.2576 15.3354 54.5516 16.2774 55.1396 16.9854ZM58.1096 15.9054C57.9896 16.0254 57.8336 16.0854 57.6416 16.0854C57.3656 16.0854 57.1556 15.9474 57.0116 15.6714C56.8676 15.3834 56.7956 14.8794 56.7956 14.1594C56.7956 13.6674 56.8256 13.2894 56.8856 13.0254C56.9576 12.7494 57.0536 12.5574 57.1736 12.4494C57.3056 12.3294 57.4616 12.2694 57.6416 12.2694C57.9176 12.2694 58.1276 12.4074 58.2716 12.6834C58.4276 12.9594 58.5056 13.4514 58.5056 14.1594C58.5056 14.6274 58.4696 15.0054 58.3976 15.2934C58.3376 15.5694 58.2416 15.7734 58.1096 15.9054Z" fill="#FF9218"/>
</svg>
