<svg width="129" height="129" viewBox="0 0 129 129" fill="none" xmlns="http://www.w3.org/2000/svg">
<g clip-path="url(#clip0_308_7049)">
<rect x="28.9253" y="29.3486" width="70.533" height="70.533" fill="white"/>
<path fill-rule="evenodd" clip-rule="evenodd" d="M64.1917 21.9486C68.7517 21.9486 73.4291 22.0659 77.9624 22.2579L83.3171 22.5139L88.4424 22.8179L93.2424 23.1432L97.6264 23.4846C102.384 23.8487 106.861 25.879 110.269 29.2181C113.678 32.5573 115.799 36.9914 116.261 41.7406L116.474 44.0072L116.874 48.8606C117.248 53.8899 117.525 59.3726 117.525 64.6152C117.525 69.8579 117.248 75.3406 116.874 80.3699L116.474 85.2232C116.405 86.0019 116.336 86.7539 116.261 87.4899C115.799 92.2399 113.677 96.6747 110.267 100.014C106.858 103.353 102.38 105.383 97.6211 105.746L93.2477 106.082L88.4477 106.413L83.3171 106.717L77.9624 106.973C73.3748 107.172 68.7836 107.275 64.1917 107.282C59.5998 107.275 55.0086 107.172 50.4211 106.973L45.0664 106.717L39.9411 106.413L35.1411 106.082L30.7571 105.746C25.9995 105.382 21.5227 103.352 18.1143 100.012C14.7058 96.6732 12.5841 92.239 12.1224 87.4899L11.9091 85.2232L11.5091 80.3699C11.1013 75.128 10.8842 69.8729 10.8584 64.6152C10.8584 59.3726 11.1357 53.8899 11.5091 48.8606L11.9091 44.0072C11.9784 43.2286 12.0477 42.4766 12.1224 41.7406C12.5839 36.9923 14.7049 32.5588 18.1122 29.2197C21.5196 25.8807 25.9951 23.8499 30.7517 23.4846L35.1304 23.1432L39.9304 22.8179L45.0611 22.5139L50.4157 22.2579C55.0051 22.0586 59.5981 21.9555 64.1917 21.9486ZM53.5251 51.6819V77.5486C53.5251 80.0126 56.1917 81.5486 58.3251 80.3219L80.7251 67.3886C81.2125 67.108 81.6174 66.7039 81.8989 66.217C82.1804 65.7301 82.3286 65.1776 82.3286 64.6152C82.3286 64.0528 82.1804 63.5003 81.8989 63.0135C81.6174 62.5266 81.2125 62.1225 80.7251 61.8419L58.3251 48.9139C57.8384 48.633 57.2864 48.4851 56.7246 48.4852C56.1627 48.4853 55.6107 48.6333 55.1242 48.9144C54.6376 49.1955 54.2337 49.5998 53.953 50.0865C53.6723 50.5733 53.5247 51.1253 53.5251 51.6872V51.6819Z" fill="#FF1818"/>
</g>
<defs>
<clipPath id="clip0_308_7049">
<rect width="128" height="128" fill="white" transform="translate(0.19165 0.615234)"/>
</clipPath>
</defs>
</svg>
