<svg width="108" height="87" viewBox="0 0 108 87" fill="none" xmlns="http://www.w3.org/2000/svg">
<path fill-rule="evenodd" clip-rule="evenodd" d="M54.1917 0.948578C58.7517 0.948578 63.4291 1.06591 67.9624 1.25791L73.3171 1.51391L78.4424 1.81791L83.2424 2.14324L87.6264 2.48458C92.384 2.84873 96.8608 4.87896 100.269 8.21812C103.678 11.5573 105.799 15.9915 106.261 20.7406L106.474 23.0072L106.874 27.8606C107.248 32.8899 107.525 38.3726 107.525 43.6152C107.525 48.8579 107.248 54.3406 106.874 59.3699L106.474 64.2232C106.405 65.0019 106.336 65.7539 106.261 66.4899C105.799 71.2399 103.677 75.6747 100.267 79.014C96.8577 82.3533 92.3796 84.383 87.6211 84.7459L83.2477 85.0819L78.4477 85.4126L73.3171 85.7166L67.9624 85.9726C63.3748 86.1719 58.7836 86.2751 54.1917 86.2819C49.5998 86.2751 45.0086 86.1719 40.4211 85.9726L35.0664 85.7166L29.9411 85.4126L25.1411 85.0819L20.7571 84.7459C15.9995 84.3818 11.5227 82.3515 8.11425 79.0124C4.70583 75.6732 2.58413 71.239 2.1224 66.4899L1.90907 64.2232L1.50906 59.3699C1.10127 54.128 0.884233 48.873 0.858398 43.6152C0.858398 38.3726 1.13573 32.8899 1.50906 27.8606L1.90907 23.0072C1.9784 22.2286 2.04773 21.4766 2.1224 20.7406C2.58395 15.9923 4.70489 11.5588 8.11222 8.21974C11.5196 4.88069 15.9951 2.84992 20.7517 2.48458L25.1304 2.14324L29.9304 1.81791L35.0611 1.51391L40.4157 1.25791C45.0051 1.05862 49.5981 0.955486 54.1917 0.948578ZM43.5251 30.6819V56.5486C43.5251 59.0126 46.1917 60.5486 48.3251 59.3219L70.7251 46.3886C71.2125 46.108 71.6174 45.7039 71.8989 45.217C72.1804 44.7301 72.3286 44.1777 72.3286 43.6152C72.3286 43.0528 72.1804 42.5003 71.8989 42.0135C71.6174 41.5266 71.2125 41.1225 70.7251 40.8419L48.3251 27.9139C47.8384 27.633 47.2864 27.4851 46.7246 27.4852C46.1627 27.4853 45.6107 27.6333 45.1242 27.9144C44.6376 28.1955 44.2337 28.5998 43.953 29.0865C43.6723 29.5733 43.5247 30.1254 43.5251 30.6872V30.6819Z" fill="#FF1818"/>
</svg>
