<svg width="251" height="76" viewBox="0 0 251 76" fill="none" xmlns="http://www.w3.org/2000/svg">
<g opacity="0.08">
<path d="M250.018 39.9904L250.018 39.9904C249.94 40.0632 240.978 48.4149 226.434 56.9338C211.891 65.4517 191.751 74.1464 169.319 74.8852C146.832 75.6249 126.131 67.6347 110.657 59.4712C102.918 55.3886 96.4827 51.2603 91.7811 48.1545C90.9895 47.6316 90.2477 47.1382 89.5575 46.679C88.196 45.7732 87.0348 45.0007 86.0865 44.3983C85.3721 43.9446 84.7847 43.5913 84.3277 43.352C84.0992 43.2324 83.9077 43.1436 83.7522 43.0853C83.5921 43.0252 83.4888 43.0046 83.4301 43.0046C83.079 43.0046 82.5779 43.1519 81.9285 43.4497C81.286 43.7444 80.5241 44.174 79.6602 44.7109C77.9322 45.7847 75.8184 47.2734 73.4686 48.9343L73.196 49.127C68.5595 52.4044 63.0508 56.2985 57.8673 58.919C44.2601 65.8045 31.8729 70.5499 21.2106 72.5195C11.2057 74.3713 5.36617 74.5999 -4.80127 74.2944C-11.8586 74.0832 -17.8425 73.7033 -23.4666 72.5184L-23.4812 72.5153L-23.4952 72.5105C-26.8641 71.3427 -28.8239 70.5443 -29.9588 70.0228C-30.119 69.9491 -30.2492 69.8518 -30.3328 69.7326C-30.4182 69.6109 -30.4582 69.4585 -30.4092 69.3066C-30.3611 69.1573 -30.2422 69.0562 -30.1078 69.0012C-29.9738 68.9463 -29.8123 68.9305 -29.637 68.9501C-25.2263 69.4426 -13.1548 70.688 -4.79736 70.5773C5.39305 70.442 11.1864 69.8869 21.1157 67.6318L21.1678 67.8611L21.1157 67.6318C36.1571 64.2179 44.1164 60.0492 57.6477 52.6003C65.827 48.0952 77.6465 39.7224 78.2532 39.2918C78.2636 39.2844 78.2697 39.2795 78.2805 39.2695C78.5345 39.0346 78.628 38.8189 78.6268 38.6397C78.6256 38.4631 78.532 38.2619 78.2799 38.0548L78.4293 37.8731L78.2799 38.0548L78.2759 38.0515L78.2732 38.0492L78.2723 38.0484C78.2719 38.0482 78.2713 38.0477 78.2703 38.0471L78.4058 37.8548L78.2702 38.047C77.92 37.8001 65.8992 29.3377 57.6511 24.9711L57.7611 24.7632L57.6511 24.9711C44.0896 17.7891 36.0657 14.2441 21.1153 10.8227C11.1699 8.54716 5.40034 7.78403 -4.79886 7.58175C-11.995 7.44011 -22.3204 8.59756 -26.5074 9.1128C-26.8727 9.15775 -27.2136 9.02111 -27.3253 8.71977C-27.4442 8.39936 -27.2392 8.0907 -26.9019 7.93128C-26.0203 7.51463 -24.7222 7.01677 -22.8575 6.52947L-22.798 6.75704L-22.8574 6.52945C-16.4305 4.85222 -12.3518 4.71318 -5.98254 4.49606C-5.59787 4.48294 -5.20483 4.46954 -4.80244 4.4555C5.3842 4.09965 11.1995 4.6311 21.2115 6.52592C36.1833 9.3576 44.2376 13.0685 57.8657 19.8288C63.0427 22.3969 68.5508 26.2186 73.1885 29.4363L73.4623 29.6263C75.8129 31.2569 77.9278 32.7189 79.6568 33.7736C80.5212 34.3009 81.2836 34.7229 81.9266 35.0124C82.5762 35.3049 83.078 35.4499 83.4301 35.4499C83.4853 35.4499 83.5893 35.428 83.7558 35.3614C83.9168 35.2969 84.1164 35.1989 84.3556 35.0669C84.8337 34.803 85.4517 34.4135 86.2036 33.9135C87.2641 33.2084 88.5798 32.2913 90.1291 31.2114C90.7765 30.7601 91.4647 30.2804 92.1921 29.7759C97.1239 26.3551 103.836 21.8079 111.758 17.3108C127.597 8.31987 148.303 -0.487971 169.32 0.322607C190.283 1.1307 210.422 10.4911 225.328 19.6528C240.237 28.8168 249.935 37.7972 250.017 37.874L250.017 37.874L250.023 37.879L250.03 37.8863L250.031 37.887C250.031 37.887 250.031 37.887 250.031 37.8871C250.031 37.8871 250.031 37.8871 250.031 37.8871C250.351 38.2052 250.542 38.5545 250.542 38.9324C250.542 39.3102 250.351 39.6597 250.03 39.9784L250.03 39.9785L250.03 39.9791C250.025 39.9841 250.02 39.9881 250.018 39.9904ZM237.601 38.0321L237.768 37.8662L237.601 38.0321L237.6 38.0306L237.599 38.0295C237.474 37.9115 229.736 30.6185 217.35 23.1591C204.907 15.6657 187.79 8.0155 168.997 7.28624C150.341 6.5629 130.394 14.0969 114.998 21.9012C99.62 29.6958 88.8129 37.7432 88.4162 38.0398C88.4125 38.0439 88.4077 38.0491 88.4015 38.0556C88.1803 38.2855 88.0966 38.4869 88.0962 38.6624C88.0957 38.8377 88.1782 39.0384 88.3979 39.2674C88.4052 39.275 88.4108 39.2811 88.4146 39.2852C88.4149 39.2855 88.4153 39.2857 88.4156 39.286L88.4155 39.2862L88.4156 39.286C88.8455 39.595 99.0161 46.8655 114.072 53.8925C129.131 60.9212 149.055 67.6956 168.998 67.0353C209.145 65.7059 237.327 39.5497 237.599 39.2964L237.602 39.2933C237.841 39.0541 237.93 38.8449 237.929 38.6633C237.929 38.4816 237.84 38.272 237.601 38.0321Z" fill="#07ACEC" stroke="#07ACEC" stroke-width="0.470429"/>
<path d="M197.432 35.4095C197.432 39.062 200.402 42.0236 204.048 42.0236C207.708 42.0236 210.663 39.0624 210.663 35.4095C210.663 31.7566 207.708 28.7968 204.048 28.7968C200.402 28.7968 197.432 31.7571 197.432 35.4095Z" fill="#07ACEC" stroke="#07ACEC" stroke-width="0.643349"/>
</g>
</svg>
