<svg width="380" height="102" viewBox="0 0 380 102" fill="none" xmlns="http://www.w3.org/2000/svg">
<g opacity="0.12">
<path d="M11.4546 9.18438L11.5029 9.36936L11.4546 9.18436C20.0941 6.9297 25.5747 6.74286 34.1459 6.45065C34.6631 6.43302 35.1916 6.415 35.7327 6.39613C49.4338 5.91749 57.2532 6.63205 70.7206 9.18083C90.8566 12.9892 101.687 17.9789 120.024 27.0749C126.985 30.528 134.393 35.6678 140.635 39.9989L141.001 40.2529C144.164 42.4468 147.012 44.4157 149.341 45.8364C150.505 46.5468 151.534 47.1166 152.404 47.5081C153.28 47.9027 153.969 48.104 154.461 48.104C154.551 48.104 154.703 48.0697 154.929 47.9791C155.15 47.8906 155.422 47.757 155.745 47.5785C156.392 47.2217 157.226 46.6961 158.238 46.023C159.666 45.0737 161.437 43.839 163.522 42.3858C164.393 41.7785 165.319 41.133 166.298 40.4543C172.933 35.8515 181.963 29.7342 192.621 23.6844C213.931 11.5881 241.777 -0.255233 270.036 0.834648C298.239 1.92183 325.339 14.5219 345.395 26.8534C365.455 39.1873 378.492 51.2678 378.575 51.3447L378.581 51.3497L378.588 51.3571L378.588 51.3573C378.588 51.3574 378.588 51.3575 378.589 51.3576C379.012 51.7775 379.255 52.2288 379.255 52.7088C379.254 53.1888 379.011 53.6405 378.588 54.0612L378.588 54.0614L378.581 54.0683L378.576 54.0729C378.498 54.1459 366.451 65.3799 346.883 76.845C327.318 88.3091 300.217 100.014 270.035 101.008C239.796 102.003 211.954 91.2574 191.137 80.2752C180.727 74.7833 172.069 69.2297 165.743 65.051C164.679 64.3478 163.681 63.684 162.752 63.0662C160.919 61.847 159.356 60.8067 158.079 59.9956C157.117 59.3847 156.324 58.9078 155.706 58.5843C155.397 58.4224 155.136 58.3013 154.923 58.2212C154.705 58.1393 154.554 58.1075 154.461 58.1075C153.97 58.1075 153.282 58.3121 152.406 58.7138C151.537 59.1124 150.509 59.6925 149.345 60.4158C147.017 61.8623 144.17 63.8672 141.009 66.1017L140.645 66.3593C134.404 70.7708 126.995 76.0079 120.025 79.5316C101.718 88.7953 85.0569 95.1773 70.7197 97.8258C57.2637 100.316 49.4116 100.624 35.7339 100.213C26.238 99.9287 18.1917 99.4175 10.631 97.8247L10.6165 97.8216L10.6025 97.8168C5.48288 96.0421 2.78421 94.9023 1.37268 94.2178C1.07196 94.072 0.832947 93.797 0.935944 93.483C1.03537 93.1799 1.38104 93.0795 1.71307 93.1171C7.08258 93.7253 24.0881 95.5279 35.7378 95.3735C49.4554 95.1914 57.257 94.4438 70.6248 91.4078C90.8768 86.8113 101.595 81.1972 119.806 71.1725C130.892 65.0663 146.942 53.6844 147.556 53.2487C147.562 53.2446 147.563 53.2432 147.564 53.2427L147.567 53.2403C147.569 53.2385 147.572 53.2356 147.578 53.23C147.935 52.9025 148.08 52.5895 148.078 52.3159C148.077 52.0451 147.932 51.7515 147.577 51.4611L147.571 51.4556L147.569 51.4546L147.569 51.4543C147.216 51.2058 130.956 39.751 119.809 33.85L119.919 33.6421L119.809 33.85C101.556 24.1834 90.7516 19.4097 70.6245 14.8036C57.2363 11.7404 49.4669 10.7128 35.7363 10.4404C25.6522 10.242 11.0096 11.9376 5.86841 12.5812C5.49451 12.628 5.15729 12.4785 5.04111 12.1768C4.91916 11.8602 5.09695 11.5357 5.43689 11.3582C6.59982 10.7506 8.49445 9.95793 11.4546 9.18438ZM361.979 53.2543C362.31 52.9226 362.446 52.621 362.445 52.347C362.445 52.073 362.309 51.7708 361.978 51.4382L361.976 51.4364C361.977 51.4372 361.977 51.4375 361.977 51.4367C361.976 51.4365 361.976 51.4361 361.975 51.4356C361.834 51.3024 351.423 41.481 334.74 31.4304C317.988 21.338 294.93 11.0254 269.607 10.0428C244.423 9.06635 217.499 19.2624 196.757 29.7925C176.072 40.2932 161.567 51.1092 161.117 51.4462C161.113 51.4508 161.108 51.4561 161.102 51.4625C160.788 51.7853 160.659 52.0789 160.658 52.346C160.658 52.6129 160.786 52.9058 161.098 53.2276C161.105 53.235 161.111 53.2411 161.115 53.246C161.584 53.5832 175.228 63.3584 195.486 72.8327C215.776 82.3221 242.677 91.4989 269.609 90.6071C323.709 88.8158 361.669 53.5433 361.976 53.2575L361.979 53.2543Z" fill="#07ACEC" stroke="#07ACEC" stroke-width="0.470429"/>
<path d="M307.758 47.9675C307.758 52.9441 311.803 56.9791 316.771 56.9791C321.757 56.9791 325.784 52.9445 325.784 47.9675C325.784 42.9907 321.757 38.9579 316.771 38.9579C311.803 38.9579 307.758 42.9911 307.758 47.9675Z" fill="#07ACEC" stroke="#07ACEC" stroke-width="0.643349"/>
</g>
</svg>
