<svg width="243" height="101" viewBox="0 0 243 101" fill="none" xmlns="http://www.w3.org/2000/svg">
<g opacity="0.12">
<path d="M379.14 53.7565L378.979 53.5846L379.14 53.7565C379.061 53.8295 367.015 65.0635 347.447 76.5286C327.882 87.9927 300.781 99.6974 270.599 100.691C240.359 101.686 212.518 90.941 191.701 79.9588C181.29 74.4669 172.633 68.9133 166.307 64.7346C165.242 64.0314 164.245 63.3676 163.316 62.7498C161.483 61.5305 159.919 60.4903 158.643 59.6792C157.681 59.0683 156.888 58.5914 156.27 58.2679C155.961 58.106 155.7 57.9849 155.486 57.9048C155.268 57.8229 155.118 57.7911 155.024 57.7911C154.534 57.7911 153.846 57.9957 152.97 58.3974C152.101 58.796 151.072 59.3761 149.908 60.0994C147.581 61.5459 144.734 63.5508 141.573 65.7853L141.208 66.0429C134.967 70.4544 127.559 75.6915 120.589 79.2152C102.282 88.4789 85.6206 94.8609 71.2834 97.5094C57.8274 99.9999 49.9753 100.307 36.2976 99.8965C26.8017 99.6123 18.7554 99.1011 11.1947 97.5083L11.1802 97.5052L11.1662 97.5004C6.0466 95.7257 3.34793 94.5859 1.9364 93.9014C1.63568 93.7556 1.39667 93.4806 1.49966 93.1666C1.59909 92.8635 1.94476 92.7631 2.27679 92.8007C7.6463 93.4089 24.6518 95.2114 36.3015 95.0571C50.0191 94.875 57.8207 94.1274 71.1885 91.0914C91.4405 86.4949 102.159 80.8808 120.369 70.8561C131.455 64.7499 147.506 53.368 148.12 52.9323C148.125 52.9282 148.127 52.9268 148.128 52.9263C148.129 52.9247 148.132 52.9225 148.142 52.9136C148.499 52.5861 148.644 52.2731 148.642 51.9995C148.641 51.7287 148.496 51.4351 148.141 51.1448L148.134 51.1392L148.133 51.1382L148.133 51.138C147.78 50.8894 131.519 39.4346 120.373 33.5336L120.483 33.3257L120.373 33.5336C102.12 23.867 91.3154 19.0933 71.1882 14.4872C57.8 11.424 50.0306 10.3963 36.3 10.124C26.2159 9.92555 11.5734 11.6212 6.4321 12.2648C6.0582 12.3116 5.72101 12.1621 5.60483 11.8604C5.48288 11.5438 5.66068 11.2193 6.00061 11.0417C7.16354 10.4342 9.05817 9.64153 12.0183 8.86797L12.0778 9.09554L12.0184 8.86795C20.6578 6.6133 26.1384 6.42646 34.7096 6.13425C35.2268 6.11661 35.7553 6.0986 36.2964 6.07972C49.9976 5.60108 57.817 6.31565 71.2843 8.86443C91.4203 12.6728 102.251 17.6625 120.587 26.7585C127.548 30.2116 134.956 35.3513 141.199 39.6824L141.565 39.9365C144.727 42.1304 147.575 44.0993 149.905 45.52C151.069 46.2304 152.098 46.8002 152.968 47.1917C153.844 47.5863 154.533 47.7876 155.024 47.7876C155.115 47.7876 155.266 47.7533 155.493 47.6626C155.714 47.5742 155.986 47.4406 156.309 47.2621C156.956 46.9053 157.789 46.3796 158.802 45.7066C160.229 44.7572 162.001 43.5222 164.086 42.0688C164.957 41.4617 165.883 40.8164 166.861 40.1378C173.497 35.5351 182.527 29.4178 193.185 23.368C214.494 11.2717 242.34 -0.571639 270.6 0.518242C298.803 1.60542 325.902 14.2055 345.958 26.537C366.018 38.8709 379.056 50.9514 379.139 51.0283L378.979 51.2007L379.139 51.0283L379.144 51.0333L379.152 51.0407L379.152 51.0409C379.152 51.0409 379.152 51.041 379.152 51.041C379.152 51.0411 379.152 51.0411 379.152 51.0412C379.576 51.4611 379.818 51.9124 379.818 52.3924C379.818 52.8724 379.575 53.3241 379.152 53.7448L379.151 53.7451L379.144 53.7519L379.14 53.7565ZM362.542 51.1218L362.708 50.9557L362.542 51.1218L362.54 51.12L362.54 51.1203C362.54 51.1201 362.54 51.1197 362.539 51.1192C362.399 50.987 351.988 41.1651 335.304 31.114C318.552 21.0216 295.493 10.709 270.171 9.72642C244.986 8.74995 218.063 18.946 197.32 29.4761C176.636 39.977 162.131 50.7932 161.681 51.1298L161.678 51.1325C161.675 51.1364 161.671 51.1409 161.666 51.1461L161.497 50.9821L161.666 51.1461C161.352 51.4689 161.223 51.7625 161.222 52.0296C161.222 52.2965 161.349 52.5894 161.662 52.9111C161.669 52.9186 161.675 52.9247 161.679 52.9296C162.148 53.2667 175.792 63.042 196.049 72.5163C216.339 82.0057 243.241 91.1825 270.172 90.2907C324.274 88.4993 362.235 53.2249 362.54 52.9411L362.543 52.9379L362.71 53.104L362.543 52.9379C362.874 52.6062 363.009 52.3046 363.009 52.0306C363.009 51.7566 362.873 51.4544 362.542 51.1218Z" fill="#07ACEC" stroke="#07ACEC" stroke-width="0.470429"/>
</g>
</svg>
