<svg width="329" height="88" viewBox="0 0 329 88" fill="none" xmlns="http://www.w3.org/2000/svg">
<g opacity="0.08">
<mask id="path-1-outside-1_198_1109" maskUnits="userSpaceOnUse" x="1.39563" y="-0.535156" width="328" height="88" fill="black">
<rect fill="white" x="1.39563" y="-0.535156" width="328" height="88"/>
<path fill-rule="evenodd" clip-rule="evenodd" d="M327.874 46.1637C327.878 46.1596 327.876 46.1612 327.881 46.157C328.567 45.4747 328.567 44.7924 327.881 44.1115C327.877 44.107 327.879 44.1086 327.874 44.1042C327.72 43.9621 282.855 2.39901 234.242 0.525044C185.532 -1.35356 138.184 41.359 134.41 41.359C130.65 41.359 116.801 29.239 104.571 23.1718C88.7359 15.3169 79.3997 11.0163 62.0326 7.73155C50.412 5.53228 43.6722 4.91649 31.853 5.32938C23.6376 5.616 18.8134 5.67275 10.9245 7.73155C8.5657 8.34795 6.99991 8.97691 5.99615 9.47692C5.44739 9.75028 5.65909 10.3127 6.26752 10.2371C10.9124 9.6601 23.2807 8.24813 31.853 8.41686C43.729 8.6524 50.4545 9.54204 62.0326 12.1911C79.4423 16.1753 88.7927 20.3071 104.571 28.6629C114.197 33.7589 128.222 43.6368 128.571 43.8828C128.582 43.8906 128.583 43.8918 128.594 43.9004C129.264 44.4498 129.268 45.1202 128.605 45.7305C128.587 45.7466 128.577 45.7557 128.557 45.7695C127.949 46.2014 114.13 55.9965 104.571 61.2617C88.8353 69.924 79.5558 74.7851 62.0326 78.7622C50.4687 81.3885 43.7148 82.0356 31.853 82.193C21.9383 82.3244 7.54843 80.818 2.66882 80.269C2.07889 80.2026 1.92612 80.6559 2.46292 80.9094C3.72424 81.505 6.02817 82.4611 10.2036 83.9085C16.7162 85.2805 23.6518 85.7218 31.853 85.9673C43.6581 86.322 50.4261 86.0567 62.0326 83.9085C74.3911 81.6255 88.7643 76.1217 104.571 68.1234C116.816 61.9328 130.65 49.5942 134.41 49.5942C138.184 49.5942 182.098 88.3694 234.242 86.654C286.283 84.9401 327.733 46.2954 327.874 46.1637ZM313.813 43.8872C313.817 43.891 313.815 43.8896 313.819 43.8935C314.435 44.512 314.435 45.1304 313.82 45.7475C313.816 45.7523 313.817 45.7507 313.813 45.7553C313.653 45.9042 280.781 76.5227 233.888 78.0755C187.325 79.6172 140.916 46.3935 140.041 45.7638C140.014 45.7441 140.016 45.7427 139.993 45.7185C139.415 45.1198 139.416 44.5198 139.997 43.9199C140.018 43.8983 140.014 43.8987 140.038 43.8807C140.809 43.303 190.317 6.38416 233.888 8.0735C277.722 9.77447 313.682 43.7633 313.813 43.8872Z"/>
</mask>
<path fill-rule="evenodd" clip-rule="evenodd" d="M327.874 46.1637C327.878 46.1596 327.876 46.1612 327.881 46.157C328.567 45.4747 328.567 44.7924 327.881 44.1115C327.877 44.107 327.879 44.1086 327.874 44.1042C327.72 43.9621 282.855 2.39901 234.242 0.525044C185.532 -1.35356 138.184 41.359 134.41 41.359C130.65 41.359 116.801 29.239 104.571 23.1718C88.7359 15.3169 79.3997 11.0163 62.0326 7.73155C50.412 5.53228 43.6722 4.91649 31.853 5.32938C23.6376 5.616 18.8134 5.67275 10.9245 7.73155C8.5657 8.34795 6.99991 8.97691 5.99615 9.47692C5.44739 9.75028 5.65909 10.3127 6.26752 10.2371C10.9124 9.6601 23.2807 8.24813 31.853 8.41686C43.729 8.6524 50.4545 9.54204 62.0326 12.1911C79.4423 16.1753 88.7927 20.3071 104.571 28.6629C114.197 33.7589 128.222 43.6368 128.571 43.8828C128.582 43.8906 128.583 43.8918 128.594 43.9004C129.264 44.4498 129.268 45.1202 128.605 45.7305C128.587 45.7466 128.577 45.7557 128.557 45.7695C127.949 46.2014 114.13 55.9965 104.571 61.2617C88.8353 69.924 79.5558 74.7851 62.0326 78.7622C50.4687 81.3885 43.7148 82.0356 31.853 82.193C21.9383 82.3244 7.54843 80.818 2.66882 80.269C2.07889 80.2026 1.92612 80.6559 2.46292 80.9094C3.72424 81.505 6.02817 82.4611 10.2036 83.9085C16.7162 85.2805 23.6518 85.7218 31.853 85.9673C43.6581 86.322 50.4261 86.0567 62.0326 83.9085C74.3911 81.6255 88.7643 76.1217 104.571 68.1234C116.816 61.9328 130.65 49.5942 134.41 49.5942C138.184 49.5942 182.098 88.3694 234.242 86.654C286.283 84.9401 327.733 46.2954 327.874 46.1637ZM313.813 43.8872C313.817 43.891 313.815 43.8896 313.819 43.8935C314.435 44.512 314.435 45.1304 313.82 45.7475C313.816 45.7523 313.817 45.7507 313.813 45.7553C313.653 45.9042 280.781 76.5227 233.888 78.0755C187.325 79.6172 140.916 46.3935 140.041 45.7638C140.014 45.7441 140.016 45.7427 139.993 45.7185C139.415 45.1198 139.416 44.5198 139.997 43.9199C140.018 43.8983 140.014 43.8987 140.038 43.8807C140.809 43.303 190.317 6.38416 233.888 8.0735C277.722 9.77447 313.682 43.7633 313.813 43.8872Z" fill="#07ACEC"/>
<path d="M234.242 0.525044L234.224 0.995124L234.224 0.995124L234.242 0.525044ZM104.571 23.1718L104.362 23.5932L104.571 23.1718ZM62.0326 7.73155L61.9452 8.19378L61.9451 8.19377L62.0326 7.73155ZM31.853 5.32938L31.8694 5.79952V5.79952L31.853 5.32938ZM10.9245 7.73155L10.8055 7.2764L10.8057 7.27636L10.9245 7.73155ZM31.853 8.41686L31.8622 7.94652L31.8623 7.94652L31.853 8.41686ZM62.0326 12.1911L62.1375 11.7325L62.1375 11.7325L62.0326 12.1911ZM104.571 28.6629L104.351 29.0786L104.35 29.0786L104.571 28.6629ZM104.571 61.2617L104.798 61.6738L104.798 61.6738L104.571 61.2617ZM62.0326 78.7622L61.9284 78.3034L61.9285 78.3034L62.0326 78.7622ZM31.853 82.193L31.8592 82.6634H31.8592L31.853 82.193ZM10.2036 83.9085L10.1066 84.3688L10.0775 84.3627L10.0495 84.353L10.2036 83.9085ZM31.853 85.9673L31.867 85.4971L31.8671 85.4971L31.853 85.9673ZM62.0326 83.9085L61.947 83.4459L61.9471 83.4459L62.0326 83.9085ZM104.571 68.1234L104.358 67.7037L104.358 67.7036L104.571 68.1234ZM234.242 86.654L234.258 87.1242H234.258L234.242 86.654ZM233.888 78.0755L233.903 78.5456L233.888 78.0755ZM233.888 8.0735L233.906 7.60342L233.906 7.60342L233.888 8.0735ZM140.041 45.7638L139.766 46.1457L140.041 45.7638ZM139.993 45.7185L139.654 46.0452L139.993 45.7185ZM313.82 45.7475L314.154 46.0796L313.82 45.7475ZM313.813 45.7553L314.133 46.0993L313.813 45.7553ZM139.997 43.9199L139.659 43.5928L139.997 43.9199ZM140.038 43.8807L139.756 43.504L140.038 43.8807ZM2.66882 80.269L2.72144 79.8015L2.66882 80.269ZM2.46292 80.9094L2.66382 80.484L2.46292 80.9094ZM327.881 44.1115L328.213 43.7776L327.881 44.1115ZM327.874 44.1042L328.194 43.7593L327.874 44.1042ZM128.571 43.8828L128.842 43.4983L128.571 43.8828ZM128.594 43.9004L128.892 43.5365L128.594 43.9004ZM313.819 43.8935L313.486 44.2254L313.819 43.8935ZM313.813 43.8872L314.136 43.5455L313.813 43.8872ZM128.605 45.7305L128.286 45.3843L128.605 45.7305ZM128.557 45.7695L128.83 46.1531L128.557 45.7695ZM5.99615 9.47692L5.78641 9.05584L5.99615 9.47692ZM6.26752 10.2371L6.3255 10.704L6.26752 10.2371ZM327.881 46.157L327.549 45.8233L327.881 46.157ZM327.874 46.1637L328.195 46.5076L327.874 46.1637ZM327.549 45.8233C327.841 45.5331 327.925 45.3048 327.925 45.1336C327.925 44.9626 327.841 44.7348 327.55 44.4454L328.213 43.7776C328.607 44.1691 328.866 44.6229 328.866 45.1338C328.866 45.6446 328.607 46.0986 328.212 46.4906L327.549 45.8233ZM327.554 44.4492C327.49 44.3897 316.26 33.9855 298.984 23.3648C281.7 12.7394 258.413 1.92756 234.224 0.995124L234.26 0.0549642C258.685 0.996494 282.136 11.9032 299.477 22.5633C316.825 33.2281 328.105 43.6766 328.194 43.7593L327.554 44.4492ZM234.224 0.995124C210.001 0.0609163 186.08 10.2174 167.707 20.6467C158.527 25.8579 150.746 31.1288 145.019 35.1011C142.16 37.0844 139.802 38.7515 138.045 39.9191C137.167 40.5029 136.428 40.9696 135.845 41.2917C135.553 41.4526 135.292 41.5825 135.065 41.6733C134.849 41.7597 134.62 41.8295 134.41 41.8295V40.8886C134.435 40.8886 134.527 40.8749 134.715 40.7998C134.892 40.7291 135.116 40.6194 135.39 40.4679C135.939 40.1653 136.652 39.7161 137.525 39.1357C139.27 37.9748 141.611 36.3197 144.483 34.328C150.217 30.3504 158.025 25.0606 167.243 19.8285C185.665 9.37105 209.773 -0.889427 234.26 0.0549645L234.224 0.995124ZM134.41 41.8295C133.835 41.8295 133.131 41.6042 132.356 41.2554C131.568 40.9005 130.652 40.392 129.636 39.7721C127.604 38.5323 125.126 36.8189 122.398 34.9271C116.93 31.1333 110.44 26.6085 104.362 23.5932L104.78 22.7504C110.932 25.8023 117.482 30.3711 122.935 34.1541C125.669 36.0507 128.122 37.7465 130.126 38.9689C131.128 39.58 132.006 40.0658 132.743 40.3974C133.493 40.7351 134.044 40.8886 134.41 40.8886V41.8295ZM104.362 23.5932C88.5395 15.7446 79.2488 11.4665 61.9452 8.19378L62.12 7.26931C79.5506 10.566 88.9324 14.8892 104.78 22.7504L104.362 23.5932ZM61.9451 8.19377C50.3552 6.00032 43.6505 5.38796 31.8694 5.79952L31.8365 4.85924C43.694 4.44501 50.4687 5.06424 62.1201 7.26932L61.9451 8.19377ZM31.8694 5.79952C23.6501 6.08628 18.8752 6.14283 11.0432 8.18673L10.8057 7.27636C18.7517 5.20268 23.6252 5.14571 31.8366 4.85924L31.8694 5.79952ZM11.0434 8.18669C8.71072 8.79628 7.17609 9.4147 6.20593 9.89799L5.78641 9.05584C6.8237 8.53912 8.42072 7.89961 10.8055 7.2764L11.0434 8.18669ZM6.2095 9.7703C10.8514 9.19364 23.2515 7.77704 31.8622 7.94652L31.8437 8.8872C23.3098 8.71923 10.9734 10.1266 6.3255 10.704L6.2095 9.7703ZM31.8623 7.94652C43.7726 8.18274 50.5302 9.07676 62.1375 11.7325L61.9277 12.6497C50.3789 10.0073 43.6854 9.12205 31.8436 8.8872L31.8623 7.94652ZM62.1375 11.7325C79.5998 15.7288 88.9898 19.8792 104.791 28.2472L104.35 29.0786C88.5956 20.735 79.2848 16.6219 61.9276 12.6497L62.1375 11.7325ZM104.791 28.2471C114.448 33.3596 128.498 43.2558 128.842 43.4983L128.3 44.2673C127.946 44.0178 113.945 34.1581 104.351 29.0786L104.791 28.2471ZM128.892 43.5365C129.297 43.868 129.567 44.2937 129.57 44.7898C129.573 45.2804 129.313 45.7181 128.923 46.0766L128.286 45.3843C128.56 45.1326 128.63 44.9299 128.629 44.7953C128.628 44.6663 128.562 44.4821 128.296 44.2642L128.892 43.5365ZM128.83 46.1531C128.225 46.5821 114.384 56.3933 104.798 61.6738L104.344 60.8496C113.875 55.5996 127.672 45.8208 128.285 45.3859L128.83 46.1531ZM104.798 61.6738C89.052 70.3417 79.7258 75.2289 62.1367 79.221L61.9285 78.3034C79.3858 74.3413 88.6186 69.5063 104.344 60.8496L104.798 61.6738ZM62.1368 79.2209C50.5358 81.8557 43.7486 82.5056 31.8592 82.6634L31.8467 81.7227C43.6811 81.5655 50.4016 80.9214 61.9284 78.3034L62.1368 79.2209ZM31.8592 82.6634C21.9108 82.7952 7.49292 81.2852 2.61621 80.7365L2.72144 79.8015C7.60394 80.3509 21.9658 81.8536 31.8467 81.7227L31.8592 82.6634ZM2.66382 80.484C3.90369 81.0695 6.19003 82.0194 10.3576 83.464L10.0495 84.353C5.8663 82.9029 3.5448 81.9405 2.26205 81.3347L2.66382 80.484ZM10.3005 83.4482C16.7699 84.8111 23.6704 85.2517 31.867 85.4971L31.8389 86.4375C23.6332 86.1919 16.6625 85.75 10.1066 84.3688L10.3005 83.4482ZM31.8671 85.4971C43.6479 85.8511 50.3813 85.5865 61.947 83.4459L62.1182 84.371C50.4709 86.5268 43.6682 86.7929 31.8388 86.4375L31.8671 85.4971ZM61.9471 83.4459C74.2436 81.1744 88.5716 75.6919 104.358 67.7037L104.783 68.5432C88.957 76.5514 74.5386 82.0766 62.1181 84.3711L61.9471 83.4459ZM104.358 67.7036C110.444 64.6271 116.933 60.0172 122.4 56.1532C125.127 54.2264 127.603 52.4817 129.635 51.2193C130.65 50.5881 131.566 50.0702 132.354 49.7089C133.128 49.3538 133.833 49.1238 134.41 49.1238V50.0647C134.046 50.0647 133.496 50.2203 132.746 50.5641C132.01 50.9017 131.133 51.3962 130.131 52.0184C128.129 53.263 125.677 54.9898 122.943 56.9215C117.492 60.7744 110.943 65.4292 104.783 68.5432L104.358 67.7036ZM134.41 49.1238C134.613 49.1238 134.834 49.1856 135.045 49.265C135.266 49.3477 135.518 49.4661 135.798 49.6125C136.358 49.9055 137.062 50.3298 137.896 50.8599C139.565 51.9197 141.803 53.4341 144.527 55.2335C149.985 58.8386 157.443 63.6222 166.407 68.3513C184.342 77.813 208.271 87.0377 234.227 86.1838L234.258 87.1242C208.069 87.9857 183.97 78.6806 165.968 69.1835C156.964 64.4332 149.476 59.6302 144.009 56.0186C141.27 54.2096 139.051 52.7081 137.392 51.6541C136.563 51.1273 135.885 50.7202 135.362 50.446C135.1 50.3089 134.885 50.2097 134.715 50.1458C134.536 50.0786 134.442 50.0647 134.41 50.0647V49.1238ZM234.227 86.1838C260.139 85.3304 283.434 75.2802 300.283 65.4096C317.128 55.5412 327.497 45.8715 327.553 45.8198L328.195 46.5076C328.109 46.5876 317.683 56.3061 300.758 66.2214C283.837 76.1346 260.386 86.2637 234.258 87.1242L234.227 86.1838ZM314.152 43.5615C314.512 43.9222 314.751 44.3437 314.752 44.8207C314.752 45.2979 314.513 45.7193 314.154 46.0796L313.487 45.4154C313.743 45.1586 313.811 44.9622 313.811 44.8213C313.811 44.6802 313.742 44.4833 313.486 44.2254L314.152 43.5615ZM314.133 46.0993C313.957 46.2641 280.976 76.987 233.903 78.5456L233.872 77.6053C280.586 76.0585 313.349 45.5443 313.492 45.4113L314.133 46.0993ZM233.903 78.5456C210.515 79.3201 187.193 71.3655 169.633 63.1601C152.065 54.9514 140.217 46.4703 139.766 46.1457L140.316 45.3819C140.74 45.687 152.535 54.1326 170.031 62.3077C187.534 70.4862 210.698 78.3726 233.872 77.6053L233.903 78.5456ZM139.654 46.0452C139.314 45.6924 139.089 45.2815 139.09 44.8186C139.091 44.3562 139.317 43.9456 139.659 43.5928L140.335 44.247C140.096 44.4942 140.031 44.6835 140.031 44.8207C140.03 44.9574 140.094 45.1458 140.331 45.3917L139.654 46.0452ZM139.756 43.504C140.153 43.2067 152.747 33.8152 170.7 24.7074C188.641 15.6059 211.998 6.75402 233.906 7.60342L233.869 8.54357C212.206 7.70363 189.024 16.4665 171.126 25.5465C153.24 34.6202 140.694 43.977 140.32 44.2573L139.756 43.504ZM233.906 7.60342C255.934 8.45821 275.962 17.4227 290.482 26.1688C305.006 34.9176 314.056 43.47 314.136 43.5455L313.489 44.2289C313.438 44.1805 304.443 35.6766 289.996 26.9747C275.545 18.2702 255.676 9.38976 233.869 8.54357L233.906 7.60342ZM139.766 46.1457C139.743 46.1286 139.712 46.1054 139.68 46.0722C139.668 46.0609 139.658 46.049 139.658 46.0489C139.656 46.0469 139.655 46.0463 139.654 46.0452L140.331 45.3917C140.342 45.4028 140.35 45.4115 140.355 45.4171C140.355 45.4177 140.356 45.4183 140.356 45.4187C140.357 45.4192 140.357 45.4195 140.357 45.4198C140.358 45.4204 140.358 45.4204 140.358 45.4202C140.357 45.4197 140.355 45.4171 140.351 45.4134C140.347 45.4096 140.343 45.4052 140.338 45.4005C140.333 45.3958 140.328 45.3919 140.324 45.3887C140.321 45.3856 140.318 45.3834 140.316 45.3824C140.315 45.3814 140.315 45.3812 140.316 45.3819L139.766 46.1457ZM314.154 46.0796C314.154 46.0791 314.155 46.0779 314.157 46.0762C314.158 46.0755 314.158 46.075 314.158 46.075C314.158 46.075 314.158 46.075 314.158 46.0751C314.158 46.0751 314.158 46.0752 314.158 46.0752C314.158 46.0753 314.158 46.0755 314.157 46.0758C314.157 46.0762 314.156 46.0769 314.155 46.0778C314.153 46.0797 314.151 46.0821 314.149 46.0847C314.146 46.0872 314.144 46.0894 314.142 46.0913C314.138 46.0947 314.135 46.0976 314.133 46.0993L313.492 45.4113C313.492 45.4107 313.491 45.4121 313.488 45.4143C313.487 45.4156 313.485 45.4174 313.483 45.4194C313.481 45.4216 313.479 45.4235 313.478 45.4251C313.477 45.4262 313.476 45.4273 313.476 45.4267C313.477 45.4263 313.478 45.4252 313.479 45.4239C313.482 45.4211 313.484 45.4183 313.487 45.4154L314.154 46.0796ZM139.659 43.5928C139.659 43.5926 139.658 43.5931 139.658 43.593C139.659 43.5927 139.659 43.5923 139.66 43.5915C139.66 43.5909 139.661 43.5895 139.663 43.5881C139.665 43.5853 139.67 43.5801 139.676 43.574C139.689 43.5597 139.704 43.546 139.72 43.5326C139.733 43.5209 139.746 43.5111 139.756 43.504L140.32 44.2573C140.319 44.258 140.319 44.2577 140.32 44.2567C140.322 44.2556 140.325 44.2533 140.328 44.2501C140.332 44.2467 140.337 44.2426 140.342 44.2376C140.348 44.2326 140.352 44.2279 140.356 44.2238C140.36 44.2201 140.362 44.2175 140.362 44.2173C140.362 44.2173 140.362 44.2173 140.361 44.2182C140.361 44.2188 140.36 44.22 140.359 44.2214C140.356 44.2243 140.353 44.2281 140.348 44.2326C140.344 44.2371 140.34 44.2418 140.335 44.247L139.659 43.5928ZM2.61621 80.7365C2.52603 80.7263 2.49039 80.7408 2.49353 80.7395C2.49789 80.7377 2.56018 80.7078 2.59033 80.6158C2.62201 80.5193 2.58771 80.4478 2.57581 80.4302C2.56729 80.4175 2.58163 80.4452 2.66382 80.484L2.26205 81.3347C1.93427 81.18 1.53433 80.8166 1.69632 80.3226C1.84985 79.8545 2.36026 79.7608 2.72144 79.8015L2.61621 80.7365ZM327.55 44.4454C327.547 44.4426 327.544 44.4399 327.541 44.437C327.54 44.4356 327.539 44.4344 327.539 44.4339C327.538 44.4331 327.539 44.4342 327.54 44.4353C327.541 44.4369 327.543 44.4388 327.546 44.4411C327.548 44.4432 327.549 44.445 327.551 44.4463C327.553 44.4485 327.555 44.4499 327.554 44.4492L328.194 43.7593C328.195 43.7608 328.198 43.7636 328.202 43.7669C328.204 43.7687 328.206 43.7709 328.208 43.7735C328.211 43.7761 328.213 43.7784 328.215 43.7803C328.217 43.7817 328.218 43.7832 328.218 43.7828C328.218 43.7827 328.217 43.782 328.216 43.7812C328.214 43.7794 328.213 43.7781 328.213 43.7776L327.55 44.4454ZM128.842 43.4983C128.852 43.5052 128.863 43.5134 128.876 43.5236C128.881 43.5277 128.886 43.5314 128.888 43.5328C128.89 43.5347 128.891 43.5354 128.892 43.5365L128.296 44.2642C128.292 44.2611 128.289 44.2584 128.287 44.2574C128.286 44.256 128.287 44.2572 128.289 44.259C128.292 44.2613 128.295 44.2636 128.298 44.2655C128.3 44.2672 128.301 44.268 128.3 44.2673L128.842 43.4983ZM313.486 44.2254C313.483 44.223 313.481 44.2206 313.479 44.2182C313.477 44.217 313.477 44.216 313.476 44.2156C313.475 44.2149 313.476 44.2159 313.477 44.2168C313.479 44.2182 313.48 44.2199 313.482 44.2218C313.484 44.2237 313.486 44.2252 313.487 44.2263C313.489 44.2282 313.49 44.2295 313.489 44.2289L314.136 43.5455C314.137 43.5468 314.14 43.5493 314.143 43.5521C314.145 43.5537 314.147 43.5556 314.149 43.5578C314.151 43.5601 314.153 43.5621 314.155 43.5637C314.156 43.565 314.157 43.5663 314.157 43.5659C314.157 43.5659 314.156 43.5653 314.155 43.5646C314.154 43.5631 314.153 43.562 314.152 43.5615L313.486 44.2254ZM128.923 46.0766C128.897 46.1011 128.87 46.1241 128.83 46.1531L128.285 45.3859C128.286 45.385 128.286 45.3849 128.285 45.3856C128.284 45.3864 128.283 45.3874 128.282 45.3886C128.279 45.3905 128.279 45.3908 128.286 45.3843L128.923 46.0766ZM6.20593 9.89799C6.13501 9.93331 6.12863 9.95799 6.1369 9.94239C6.14114 9.93443 6.14743 9.91865 6.14929 9.89604C6.15115 9.87329 6.14804 9.84914 6.13977 9.8265C6.12238 9.77883 6.09332 9.76385 6.09445 9.7644C6.09625 9.76526 6.13022 9.78015 6.2095 9.7703L6.3255 10.704C5.88998 10.7581 5.41772 10.5921 5.25601 10.1493C5.08395 9.67815 5.38474 9.25592 5.78641 9.05584L6.20593 9.89799ZM328.212 46.4906C328.213 46.4902 328.214 46.489 328.216 46.4873C328.216 46.4865 328.217 46.4859 328.217 46.4858C328.217 46.4854 328.216 46.4868 328.215 46.4881C328.213 46.4899 328.211 46.492 328.209 46.4944C328.206 46.4968 328.204 46.4988 328.202 46.5005C328.199 46.5036 328.196 46.5062 328.195 46.5076L327.553 45.8198C327.554 45.8192 327.552 45.8205 327.55 45.8225C327.549 45.8237 327.547 45.8254 327.545 45.8274C327.543 45.8294 327.541 45.8313 327.54 45.8327C327.539 45.8337 327.538 45.8348 327.539 45.834C327.539 45.8335 327.54 45.8325 327.541 45.8312C327.544 45.8285 327.546 45.8259 327.549 45.8233L328.212 46.4906Z" fill="#07ACEC" mask="url(#path-1-outside-1_198_1109)"/>
<path d="M266.88 41.0384C266.88 45.3132 270.355 48.7793 274.622 48.7793C278.905 48.7793 282.365 45.3136 282.365 41.0384C282.365 36.7633 278.905 33.2992 274.622 33.2992C270.355 33.2992 266.88 36.7638 266.88 41.0384Z" fill="#07ACEC" stroke="#07ACEC" stroke-width="0.643349"/>
</g>
</svg>
