<svg width="224" height="61" viewBox="0 0 224 61" fill="none" xmlns="http://www.w3.org/2000/svg">
<g opacity="0.06">
<mask id="path-1-outside-1_198_1106" maskUnits="userSpaceOnUse" x="0.791595" y="0.439453" width="223" height="60" fill="black">
<rect fill="white" x="0.791595" y="0.439453" width="223" height="60"/>
<path fill-rule="evenodd" clip-rule="evenodd" d="M222.437 32.445C222.442 32.4409 222.44 32.4423 222.444 32.4381C222.907 31.9766 222.907 31.5151 222.445 31.0546C222.44 31.05 222.442 31.0515 222.437 31.0471C222.284 30.9052 191.867 2.75069 158.912 1.4803C125.863 0.205727 93.7389 29.1849 91.1782 29.1849C88.6271 29.1849 79.2316 20.9618 70.9334 16.8454C60.1901 11.5161 53.8557 8.59826 42.0727 6.36968C34.1885 4.87755 29.6158 4.45975 21.5968 4.73989C16.0229 4.93435 12.7498 4.97285 7.39743 6.36968C6.17523 6.68907 5.26682 7.01344 4.6024 7.3C4.03944 7.54281 4.23416 8.06912 4.84282 7.99549C8.36176 7.56979 16.1208 6.72686 21.5968 6.83465C29.6543 6.99445 34.2173 7.59804 42.0727 9.39534C53.8846 12.0985 60.2286 14.9018 70.9334 20.5709C77.4251 24.0077 86.8663 30.65 87.2119 30.8935C87.2229 30.9012 87.2271 30.9047 87.2374 30.9132C87.6845 31.2828 87.6881 31.7325 87.2483 32.1429C87.2308 32.1592 87.2123 32.1739 87.1929 32.1877C86.6118 32.5999 77.3557 39.1508 70.9334 42.6882C60.2574 48.5653 53.9616 51.8634 42.0727 54.5617C34.227 56.3436 29.6447 56.7826 21.5968 56.8895C15.209 56.9741 6.08328 56.0567 2.34476 55.6451C1.75465 55.5801 1.61259 56.0065 2.15591 56.2457C3.07924 56.6523 4.55606 57.2379 6.90831 58.0533C11.327 58.9842 16.0325 59.2836 21.5968 59.4501C29.6062 59.6908 34.1981 59.5108 42.0727 58.0533C50.4575 56.5044 60.2093 52.7702 70.9334 47.3437C79.2412 43.1435 88.6271 34.7722 91.1782 34.7722C93.7389 34.7722 123.534 61.0799 158.912 59.9161C194.191 58.7542 222.296 32.5764 222.437 32.445ZM212.897 30.8999C212.901 30.9037 212.9 30.9024 212.904 30.9063C213.319 31.3245 213.319 31.7427 212.905 32.1599C212.9 32.1647 212.902 32.1634 212.897 32.168C212.738 32.3166 190.45 53.0435 158.671 54.0958C127.223 55.1371 95.8783 32.8045 95.0089 32.1805C94.9816 32.1609 94.9782 32.1554 94.955 32.1309C94.5774 31.7321 94.5787 31.3324 94.9588 30.9327C94.9795 30.911 94.9798 30.9083 95.0039 30.8903C95.7712 30.317 129.22 5.4598 158.671 6.60168C188.385 7.75474 212.767 30.7762 212.897 30.8999Z"/>
</mask>
<path fill-rule="evenodd" clip-rule="evenodd" d="M222.437 32.445C222.442 32.4409 222.44 32.4423 222.444 32.4381C222.907 31.9766 222.907 31.5151 222.445 31.0546C222.44 31.05 222.442 31.0515 222.437 31.0471C222.284 30.9052 191.867 2.75069 158.912 1.4803C125.863 0.205727 93.7389 29.1849 91.1782 29.1849C88.6271 29.1849 79.2316 20.9618 70.9334 16.8454C60.1901 11.5161 53.8557 8.59826 42.0727 6.36968C34.1885 4.87755 29.6158 4.45975 21.5968 4.73989C16.0229 4.93435 12.7498 4.97285 7.39743 6.36968C6.17523 6.68907 5.26682 7.01344 4.6024 7.3C4.03944 7.54281 4.23416 8.06912 4.84282 7.99549C8.36176 7.56979 16.1208 6.72686 21.5968 6.83465C29.6543 6.99445 34.2173 7.59804 42.0727 9.39534C53.8846 12.0985 60.2286 14.9018 70.9334 20.5709C77.4251 24.0077 86.8663 30.65 87.2119 30.8935C87.2229 30.9012 87.2271 30.9047 87.2374 30.9132C87.6845 31.2828 87.6881 31.7325 87.2483 32.1429C87.2308 32.1592 87.2123 32.1739 87.1929 32.1877C86.6118 32.5999 77.3557 39.1508 70.9334 42.6882C60.2574 48.5653 53.9616 51.8634 42.0727 54.5617C34.227 56.3436 29.6447 56.7826 21.5968 56.8895C15.209 56.9741 6.08328 56.0567 2.34476 55.6451C1.75465 55.5801 1.61259 56.0065 2.15591 56.2457C3.07924 56.6523 4.55606 57.2379 6.90831 58.0533C11.327 58.9842 16.0325 59.2836 21.5968 59.4501C29.6062 59.6908 34.1981 59.5108 42.0727 58.0533C50.4575 56.5044 60.2093 52.7702 70.9334 47.3437C79.2412 43.1435 88.6271 34.7722 91.1782 34.7722C93.7389 34.7722 123.534 61.0799 158.912 59.9161C194.191 58.7542 222.296 32.5764 222.437 32.445ZM212.897 30.8999C212.901 30.9037 212.9 30.9024 212.904 30.9063C213.319 31.3245 213.319 31.7427 212.905 32.1599C212.9 32.1647 212.902 32.1634 212.897 32.168C212.738 32.3166 190.45 53.0435 158.671 54.0958C127.223 55.1371 95.8783 32.8045 95.0089 32.1805C94.9816 32.1609 94.9782 32.1554 94.955 32.1309C94.5774 31.7321 94.5787 31.3324 94.9588 30.9327C94.9795 30.911 94.9798 30.9083 95.0039 30.8903C95.7712 30.317 129.22 5.4598 158.671 6.60168C188.385 7.75474 212.767 30.7762 212.897 30.8999Z" fill="#07ACEC"/>
<path d="M158.912 1.4803L158.893 1.95038L158.893 1.95038L158.912 1.4803ZM70.9334 16.8454L70.7244 17.2668L70.9334 16.8454ZM42.0727 6.36968L41.9853 6.83192L41.9852 6.83191L42.0727 6.36968ZM21.5968 4.73989L21.6132 5.21003L21.6132 5.21003L21.5968 4.73989ZM7.39743 6.36968L7.27849 5.91454L7.27864 5.9145L7.39743 6.36968ZM21.5968 6.83465L21.606 6.36431L21.6061 6.36431L21.5968 6.83465ZM42.0727 9.39534L42.1776 8.93676L42.1776 8.93677L42.0727 9.39534ZM70.9334 20.5709L70.7133 20.9867L70.7133 20.9867L70.9334 20.5709ZM70.9334 42.6882L71.1604 43.1003L71.1603 43.1003L70.9334 42.6882ZM42.0727 54.5617L41.9685 54.103L41.9686 54.103L42.0727 54.5617ZM21.5968 56.8895L21.603 57.3598H21.603L21.5968 56.8895ZM6.90831 58.0533L6.81134 58.5136L6.78229 58.5075L6.75424 58.4978L6.90831 58.0533ZM21.5968 59.4501L21.6108 58.9799H21.6109L21.5968 59.4501ZM42.0727 58.0533L41.9871 57.5907L41.9872 57.5907L42.0727 58.0533ZM70.9334 47.3437L70.721 46.9239L70.7212 46.9238L70.9334 47.3437ZM158.912 59.9161L158.927 60.3863H158.927L158.912 59.9161ZM158.671 6.60168L158.689 6.13161L158.689 6.13161L158.671 6.60168ZM95.0089 32.1805L95.2833 31.7984L95.0089 32.1805ZM94.955 32.1309L94.6134 32.4544L94.955 32.1309ZM212.905 32.1599L213.239 32.4914L212.905 32.1599ZM212.897 32.168L213.218 32.5121L212.897 32.168ZM94.9588 30.9327L94.618 30.6085L94.9588 30.9327ZM95.0039 30.8903L94.7223 30.5134L95.0039 30.8903ZM2.34476 55.6451L2.29326 56.1127L2.34476 55.6451ZM2.15591 56.2457L2.3455 55.8152L2.15591 56.2457ZM222.445 31.0546L222.777 30.7212L222.445 31.0546ZM222.437 31.0471L222.117 31.3921L222.437 31.0471ZM87.2119 30.8935L87.4829 30.5089L87.2119 30.8935ZM87.2374 30.9132L87.5372 30.5507L87.2374 30.9132ZM212.904 30.9063L213.238 30.5749L212.904 30.9063ZM212.897 30.8999L213.221 30.5581L212.897 30.8999ZM87.2483 32.1429L86.9273 31.799L87.2483 32.1429ZM87.1929 32.1877L87.4651 32.5713L87.1929 32.1877ZM4.6024 7.3L4.41609 6.86804L4.6024 7.3ZM4.84282 7.99549L4.89932 8.46252L4.84282 7.99549ZM222.444 32.4381L222.112 32.1049L222.444 32.4381ZM222.437 32.445L222.116 32.101L222.437 32.445ZM222.112 32.1049C222.292 31.9252 222.321 31.8071 222.321 31.7458C222.321 31.6846 222.293 31.5669 222.113 31.3879L222.777 30.7212C223.059 31.0027 223.262 31.3461 223.262 31.7461C223.262 32.146 223.059 32.4894 222.776 32.7712L222.112 32.1049ZM222.117 31.3921C222.053 31.3327 214.436 24.2808 202.729 17.0877C191.014 9.88985 175.253 2.58103 158.893 1.95038L158.93 1.01022C175.525 1.64996 191.45 9.05358 203.222 16.2861C215 23.5233 222.668 30.6195 222.757 30.7021L222.117 31.3921ZM158.893 1.95038C142.501 1.31818 126.302 8.19235 113.844 15.2637C107.622 18.796 102.347 22.3691 98.4625 25.0633C96.5245 26.4076 94.9219 27.5406 93.7288 28.3339C93.1323 28.7305 92.6267 29.05 92.2251 29.2716C92.0246 29.3823 91.8409 29.4737 91.6788 29.5385C91.5278 29.599 91.3507 29.6553 91.1782 29.6553V28.7144C91.1658 28.7144 91.2064 28.7142 91.3292 28.665C91.4409 28.6203 91.587 28.5491 91.7705 28.4479C92.1369 28.2456 92.6164 27.9437 93.2079 27.5504C94.3907 26.7639 95.9762 25.6429 97.9263 24.2902C101.818 21.5907 107.12 17.9987 113.38 14.4455C125.887 7.34596 142.273 0.36784 158.93 1.01022L158.893 1.95038ZM91.1782 29.6553C90.7548 29.6553 90.2527 29.4909 89.7231 29.2525C89.1801 29.008 88.5525 28.6593 87.8607 28.2373C86.4772 27.3934 84.7919 26.2281 82.9428 24.9453C79.2299 22.3695 74.8365 19.3067 70.7244 17.2668L71.1425 16.424C75.3286 18.5005 79.782 21.6074 83.4791 24.1723C85.3351 25.4598 86.9957 26.6076 88.3506 27.4341C89.028 27.8473 89.6178 28.1732 90.1094 28.3945C90.6142 28.6218 90.9639 28.7144 91.1782 28.7144V29.6553ZM70.7244 17.2668C59.9936 11.9438 53.7049 9.04849 41.9853 6.83192L42.1601 5.90745C54.0066 8.14802 60.3866 11.0884 71.1425 16.424L70.7244 17.2668ZM41.9852 6.83191C34.1317 5.34559 29.594 4.93123 21.6132 5.21003L21.5803 4.26975C29.6376 3.98827 34.2452 4.40951 42.1602 5.90746L41.9852 6.83191ZM21.6132 5.21003C16.0354 5.40463 12.8116 5.44293 7.51622 6.82487L7.27864 5.9145C12.6881 4.50278 16.0105 4.46407 21.5804 4.26974L21.6132 5.21003ZM7.51637 6.82483C6.31419 7.13899 5.42862 7.45597 4.78871 7.73197L4.41609 6.86804C5.105 6.57091 6.03627 6.23916 7.27849 5.91454L7.51637 6.82483ZM4.78632 7.52847C8.30327 7.103 16.0928 6.25579 21.606 6.36431L21.5875 7.30498C16.1487 7.19793 8.42026 8.03657 4.89932 8.46252L4.78632 7.52847ZM21.6061 6.36431C29.6979 6.52479 34.293 7.13276 42.1776 8.93676L41.9678 9.85392C34.1417 8.06333 29.6107 7.46411 21.5874 7.30498L21.6061 6.36431ZM42.1776 8.93677C54.0421 11.652 60.4257 14.4738 71.1536 20.1552L70.7133 20.9867C60.0315 15.3297 53.7271 12.5451 41.9677 9.85392L42.1776 8.93677ZM71.1535 20.1552C77.6763 23.6084 87.1422 30.2689 87.4829 30.5089L86.9409 31.278C86.5905 31.0311 77.1739 24.407 70.7133 20.9867L71.1535 20.1552ZM87.5372 30.5507C87.8298 30.7926 88.0425 31.1174 88.0458 31.5087C88.0491 31.895 87.8472 32.2275 87.5692 32.4869L86.9273 31.799C87.0891 31.648 87.1053 31.5504 87.105 31.5168C87.1048 31.4884 87.0921 31.4035 86.9377 31.2758L87.5372 30.5507ZM87.4651 32.5713C86.888 32.9808 77.6101 39.5478 71.1604 43.1003L70.7065 42.2761C77.1013 38.7539 86.3356 32.2191 86.9207 31.804L87.4651 32.5713ZM71.1603 43.1003C60.4741 48.983 54.1317 52.3072 42.1768 55.0205L41.9686 54.103C53.7916 51.4196 60.0408 48.1476 70.7066 42.2761L71.1603 43.1003ZM42.1769 55.0205C34.2941 56.8108 29.6784 57.2526 21.603 57.3598L21.5905 56.4191C29.6109 56.3126 34.1599 55.8765 41.9685 54.103L42.1769 55.0205ZM21.603 57.3598C15.1824 57.4449 6.02965 56.5241 2.29326 56.1127L2.39624 55.1775C6.1369 55.5894 15.2356 56.5033 21.5905 56.4191L21.603 57.3598ZM2.3455 55.8152C3.2533 56.215 4.71735 56.796 7.06239 57.6088L6.75424 58.4978C4.39479 57.6799 2.90518 57.0897 1.96634 56.6763L2.3455 55.8152ZM7.00529 57.593C11.3807 58.5148 16.0511 58.8135 21.6108 58.9799L21.5827 59.9204C16.014 59.7537 11.2733 59.4537 6.81134 58.5136L7.00529 57.593ZM21.6109 58.9799C29.596 59.2199 34.1533 59.0407 41.9871 57.5907L42.1583 58.5159C34.2429 59.9809 29.6163 60.1618 21.5826 59.9204L21.6109 58.9799ZM41.9872 57.5907C50.31 56.0532 60.0166 52.3405 70.721 46.9239L71.1458 47.7634C60.402 53.1999 50.605 56.9555 42.1581 58.5159L41.9872 57.5907ZM70.7212 46.9238C74.8379 44.8426 79.2313 41.7221 82.9431 39.0987C84.7915 37.7922 86.4759 36.6056 87.8587 35.7463C88.5502 35.3166 89.1776 34.9615 89.7205 34.7125C90.2498 34.4697 90.7529 34.3018 91.1782 34.3018V35.2426C90.9657 35.2426 90.6174 35.3362 90.1127 35.5677C89.6216 35.7929 89.0323 36.1247 88.3553 36.5454C87.0011 37.3869 85.3415 38.5557 83.4861 39.867C79.7902 42.4793 75.3367 45.6446 71.1457 47.7635L70.7212 46.9238ZM91.1782 34.3018C91.3438 34.3018 91.514 34.3514 91.6627 34.4072C91.8203 34.4663 91.9977 34.5497 92.1904 34.6506C92.5759 34.8524 93.058 35.1431 93.625 35.5032C94.7584 36.2232 96.2803 37.2528 98.1261 38.4721C101.827 40.9169 106.882 44.1593 112.958 47.3645C125.115 53.7782 141.323 60.024 158.896 59.4459L158.927 60.3863C141.122 60.972 124.743 54.6459 112.519 48.1967C106.403 44.9704 101.319 41.7086 97.6075 39.2571C95.7472 38.0282 94.2448 37.0116 93.1205 36.2974C92.5587 35.9405 92.1035 35.6671 91.754 35.4841C91.5791 35.3926 91.4395 35.3284 91.3321 35.2881C91.2157 35.2444 91.1726 35.2426 91.1782 35.2426V34.3018ZM158.896 59.4459C176.428 58.8685 192.196 52.0729 203.614 45.3881C215.028 38.7055 222.061 32.1526 222.116 32.101L222.758 32.7889C222.673 32.8688 215.583 39.4705 204.089 46.2001C192.599 52.9275 176.675 59.8018 158.927 60.3863L158.896 59.4459ZM213.238 30.5749C213.496 30.8356 213.686 31.1567 213.686 31.533C213.686 31.9096 213.498 32.2309 213.239 32.4914L212.571 31.8285C212.727 31.6718 212.745 31.5754 212.745 31.534C212.745 31.4923 212.726 31.3953 212.57 31.2378L213.238 30.5749ZM213.218 32.5121C213.041 32.6767 190.645 53.5078 158.686 54.566L158.655 53.6256C190.255 52.5793 212.434 31.9565 212.576 31.8239L213.218 32.5121ZM158.686 54.566C142.856 55.0902 127.079 49.7336 115.174 44.1891C103.263 38.6414 95.1829 32.8844 94.7346 32.5627L95.2833 31.7984C95.7043 32.1006 103.732 37.8219 115.572 43.3362C127.418 48.8537 143.038 54.1427 158.655 53.6256L158.686 54.566ZM94.6134 32.4544C94.3731 32.2005 94.2012 31.8904 94.2023 31.5307C94.2035 31.1713 94.3769 30.8619 94.618 30.6085L95.2997 31.2569C95.1606 31.4032 95.1433 31.4935 95.1432 31.5336C95.1431 31.5733 95.1593 31.6625 95.2966 31.8075L94.6134 32.4544ZM94.7223 30.5134C95.1174 30.2183 103.696 23.8433 115.869 17.683C128.029 11.529 143.842 5.55595 158.689 6.13161L158.653 7.07176C144.049 6.50554 128.412 12.3901 116.293 18.5225C104.188 24.6488 95.6577 30.989 95.2855 31.2671L94.7223 30.5134ZM158.689 6.13161C173.657 6.71243 187.26 12.798 197.121 18.7338C206.986 24.6722 213.141 30.4827 213.221 30.5581L212.574 31.2416C212.523 31.1934 206.422 25.4313 196.635 19.5398C186.844 13.6457 173.399 7.64399 158.653 7.07176L158.689 6.13161ZM94.7346 32.5627C94.7108 32.5456 94.6836 32.5247 94.6543 32.4966C94.6419 32.4847 94.6319 32.474 94.6264 32.4682C94.6185 32.4598 94.619 32.4603 94.6134 32.4544L95.2966 31.8075C95.3006 31.8117 95.304 31.8153 95.3067 31.8182C95.3098 31.8216 95.3109 31.8227 95.3124 31.8243C95.3149 31.827 95.3118 31.8235 95.3065 31.8185C95.3036 31.8157 95.3005 31.8128 95.297 31.8097C95.2936 31.8067 95.2905 31.8042 95.288 31.8021C95.2832 31.7982 95.2808 31.7966 95.2833 31.7984L94.7346 32.5627ZM213.239 32.4914C213.239 32.491 213.24 32.49 213.241 32.4888C213.242 32.4884 213.242 32.488 213.242 32.4884C213.242 32.4885 213.24 32.4899 213.239 32.4915C213.235 32.496 213.23 32.5002 213.226 32.5043C213.223 32.5076 213.22 32.5104 213.218 32.5121L212.576 31.8239C212.577 31.8233 212.575 31.8246 212.573 31.8267C212.572 31.8279 212.57 31.8295 212.568 31.8314C212.567 31.8333 212.565 31.8351 212.563 31.8366C212.558 31.8422 212.567 31.833 212.571 31.8285L213.239 32.4914ZM94.618 30.6085C94.6202 30.6062 94.6216 30.6047 94.6254 30.6005C94.6283 30.5974 94.6374 30.5874 94.6483 30.5766C94.6761 30.5489 94.7017 30.5288 94.7223 30.5134L95.2855 31.2671C95.2831 31.2689 95.2859 31.2669 95.2912 31.2625C95.2941 31.2601 95.2975 31.2571 95.3014 31.2536C95.3052 31.2501 95.3088 31.2467 95.3119 31.2436C95.3148 31.2406 95.317 31.2384 95.3178 31.2375C95.3185 31.2368 95.3186 31.2367 95.317 31.2384C95.3142 31.2414 95.3078 31.2484 95.2997 31.2569L94.618 30.6085ZM2.29326 56.1127C2.19876 56.1023 2.16025 56.1164 2.16225 56.1156C2.16367 56.115 2.2384 56.0832 2.27307 55.9756C2.30995 55.8611 2.2639 55.7789 2.25104 55.7615C2.24164 55.7489 2.25816 55.7767 2.3455 55.8152L1.96634 56.6763C1.78203 56.5951 1.61255 56.48 1.49542 56.3221C1.37483 56.1596 1.2993 55.9299 1.37753 55.6871C1.45357 55.4511 1.64049 55.3099 1.81754 55.2402C1.99516 55.1702 2.19568 55.1554 2.39624 55.1775L2.29326 56.1127ZM222.113 31.3879C222.11 31.3852 222.108 31.3826 222.105 31.3799C222.104 31.3787 222.103 31.3777 222.103 31.3774C222.102 31.3769 222.103 31.3779 222.104 31.3791C222.106 31.3806 222.107 31.3824 222.11 31.3845C222.112 31.3865 222.113 31.3881 222.115 31.3894C222.117 31.3915 222.118 31.3928 222.117 31.3921L222.757 30.7021C222.759 30.7036 222.762 30.7064 222.765 30.7096C222.767 30.7114 222.769 30.7135 222.771 30.7159C222.774 30.7184 222.776 30.7206 222.778 30.7224C222.779 30.7233 222.78 30.724 222.78 30.7245C222.78 30.7249 222.781 30.7253 222.781 30.7253C222.781 30.7254 222.78 30.7249 222.78 30.7242C222.778 30.7227 222.777 30.7216 222.777 30.7212L222.113 31.3879ZM87.4829 30.5089C87.5082 30.5267 87.523 30.5389 87.5372 30.5507L86.9377 31.2758C86.9349 31.2735 86.9339 31.2727 86.9334 31.2723C86.9331 31.272 86.934 31.2728 86.9356 31.274C86.9373 31.2753 86.939 31.2766 86.9403 31.2775C86.9414 31.2784 86.9418 31.2787 86.9409 31.278L87.4829 30.5089ZM212.57 31.2378C212.568 31.2354 212.565 31.2331 212.563 31.2309C212.562 31.2299 212.561 31.2291 212.561 31.2288C212.561 31.2284 212.562 31.2293 212.563 31.2303C212.564 31.2316 212.565 31.2332 212.567 31.235C212.569 31.2367 212.57 31.2382 212.572 31.2393C212.573 31.2411 212.575 31.2422 212.574 31.2416L213.221 30.5581C213.222 30.5594 213.224 30.5618 213.227 30.5646C213.229 30.5662 213.231 30.568 213.233 30.5701C213.235 30.5722 213.237 30.5741 213.239 30.5758C213.239 30.5765 213.24 30.5772 213.24 30.5776C213.241 30.5779 213.241 30.5783 213.241 30.5783C213.241 30.5784 213.241 30.578 213.24 30.5775C213.239 30.5762 213.238 30.5753 213.238 30.5749L212.57 31.2378ZM87.5692 32.4869C87.5334 32.5203 87.498 32.548 87.4651 32.5713L86.9207 31.804C86.9267 31.7997 86.9282 31.7981 86.9273 31.799L87.5692 32.4869ZM4.78871 7.73197C4.70984 7.76599 4.70349 7.7905 4.71593 7.77058C4.72272 7.75972 4.73302 7.73821 4.73711 7.7068C4.74124 7.6749 4.73785 7.64068 4.72643 7.60858C4.70277 7.54217 4.66084 7.52235 4.66238 7.52305C4.66414 7.52384 4.70113 7.53877 4.78632 7.52847L4.89932 8.46252C4.48952 8.51209 4.00063 8.37502 3.84009 7.92424C3.66351 7.42843 4.03197 7.03372 4.41609 6.86804L4.78871 7.73197ZM222.776 32.7712C222.777 32.7708 222.778 32.7698 222.779 32.7684C222.78 32.7678 222.78 32.7673 222.78 32.7674C222.78 32.7674 222.78 32.7675 222.78 32.7676C222.78 32.7677 222.78 32.7679 222.779 32.7681C222.779 32.7686 222.778 32.7692 222.778 32.77C222.776 32.7718 222.774 32.7738 222.772 32.7761C222.769 32.7783 222.767 32.7803 222.766 32.782C222.762 32.7849 222.76 32.7875 222.758 32.7889L222.116 32.101C222.117 32.1004 222.116 32.1016 222.114 32.1035C222.112 32.1047 222.111 32.1062 222.109 32.1081C222.107 32.11 222.105 32.1117 222.104 32.1131C222.103 32.1142 222.102 32.1152 222.103 32.1146C222.103 32.1144 222.104 32.1135 222.105 32.1123C222.107 32.1099 222.11 32.1075 222.112 32.1049L222.776 32.7712Z" fill="#07ACEC" mask="url(#path-1-outside-1_198_1106)"/>
<path d="M181.158 28.9671C181.158 31.8102 183.47 34.1156 186.308 34.1156C189.157 34.1156 191.457 31.8106 191.457 28.9671C191.457 26.1237 189.157 23.8197 186.308 23.8197C183.47 23.8197 181.158 26.1241 181.158 28.9671Z" fill="#07ACEC" stroke="#07ACEC" stroke-width="0.643349"/>
</g>
</svg>
