<svg width="1333" height="9" viewBox="0 0 1333 9" fill="none" xmlns="http://www.w3.org/2000/svg">
<path d="M0.684082 7.89972L9.68414 2.89968C15.2812 -0.209807 22.087 -0.209791 27.684 2.89971V2.89971C33.2811 6.00922 40.0868 6.00921 45.6839 2.89971V2.89971C51.281 -0.209788 58.0867 -0.209796 63.6837 2.89971V2.89971C69.2808 6.00922 76.0865 6.00921 81.6835 2.89972V2.89972C87.2806 -0.209785 94.0864 -0.20979 99.6834 2.89969V2.89969C105.281 6.0092 112.086 6.00921 117.683 2.8997V2.8997C123.281 -0.209793 130.086 -0.209802 135.683 2.89971V2.89971C141.28 6.00922 148.086 6.00921 153.683 2.89971V2.89971C159.28 -0.209797 166.086 -0.209783 171.683 2.89971V2.89971C177.281 6.00919 184.086 6.0092 189.683 2.8997V2.8997C195.281 -0.209794 202.086 -0.209801 207.683 2.89973V2.89973C213.28 6.00922 220.086 6.00914 225.683 2.89973V2.89973C231.28 -0.209723 238.086 -0.209821 243.684 2.89968V2.89968C249.281 6.0092 256.086 6.0092 261.684 2.89968V2.89968C267.281 -0.209823 274.087 -0.209754 279.684 2.8997V2.8997C285.281 6.00915 292.087 6.00922 297.684 2.89972V2.89972C303.281 -0.209806 310.087 -0.20979 315.684 2.89972V2.89972C321.281 6.0092 328.087 6.00919 333.684 2.89969V2.89969C339.281 -0.209799 346.087 -0.209813 351.684 2.89969V2.89969C357.281 6.00921 364.087 6.0092 369.684 2.8997V2.8997C375.281 -0.209811 382.087 -0.209813 387.684 2.89968V2.89968C393.281 6.00919 400.087 6.0092 405.684 2.89969V2.89969C411.281 -0.209817 418.087 -0.209809 423.684 2.8997V2.8997C429.281 6.0092 436.087 6.00915 441.684 2.89969V2.89969C447.281 -0.209771 454.087 -0.209824 459.684 2.89968V2.89968C465.281 6.00919 472.087 6.0092 477.684 2.89969V2.89969C483.281 -0.209825 490.087 -0.209821 495.684 2.89969V2.89969C501.281 6.00919 508.087 6.00916 513.684 2.89967V2.89967C519.281 -0.209803 526.087 -0.20983 531.684 2.89967V2.89967C537.281 6.00919 544.087 6.00919 549.684 2.89969V2.89969C555.281 -0.209818 562.087 -0.209824 567.684 2.89968V2.89968C573.281 6.00918 580.087 6.00919 585.684 2.89967V2.89967C591.281 -0.209836 598.087 -0.209824 603.684 2.89967V2.89967C609.281 6.00917 616.087 6.00918 621.684 2.89967V2.89967C627.281 -0.209834 634.087 -0.209842 639.684 2.89966V2.89966C645.281 6.00918 652.087 6.009 657.685 2.89947V2.89947C663.282 -0.21004 670.088 -0.210205 675.685 2.89931V2.89931C681.282 6.00881 688.088 6.0088 693.685 2.89931V2.89931C699.282 -0.210193 706.088 -0.210208 711.685 2.8993V2.8993C717.282 6.0088 724.088 6.0088 729.685 2.8993V2.8993C735.282 -0.210209 742.088 -0.210211 747.685 2.8993V2.8993C753.282 6.00881 760.088 6.00878 765.685 2.89929V2.89929C771.282 -0.210192 778.087 -0.210215 783.685 2.89929V2.89929C789.282 6.00881 796.087 6.00878 801.684 2.89929V2.89929C807.282 -0.210191 814.087 -0.210224 819.684 2.89928V2.89928C825.282 6.0088 832.087 6.00879 837.684 2.89929V2.89929C843.281 -0.210213 850.087 -0.21018 855.684 2.89933V2.89933C861.282 6.00879 868.088 6.00859 873.685 2.89929V2.89929C879.282 -0.210013 886.089 -0.21022 891.686 2.89925V2.89925C897.283 6.00876 904.089 6.0088 909.686 2.89929V2.89929C915.283 -0.210217 922.089 -0.210219 927.686 2.89929V2.89929C933.283 6.0088 940.088 6.0088 945.686 2.89929V2.89929C951.283 -0.210217 958.088 -0.21022 963.686 2.89929V2.89929C969.283 6.0088 976.088 6.00879 981.686 2.89929V2.89929C987.283 -0.210215 994.088 -0.210224 999.686 2.89929V2.89929C1005.28 6.0088 1012.09 6.00879 1017.69 2.89929V2.89929C1023.28 -0.210228 1030.09 -0.210231 1035.69 2.89928V2.89928C1041.28 6.00879 1048.09 6.00879 1053.69 2.89927V2.89927C1059.28 -0.210235 1066.09 -0.210185 1071.69 2.89931V2.89931C1077.28 6.00878 1084.09 6.00858 1089.69 2.89927V2.89927C1095.28 -0.21002 1102.09 -0.210231 1107.69 2.89924V2.89924C1113.28 6.00876 1120.09 6.0088 1125.69 2.89928V2.89928C1131.28 -0.210223 1138.09 -0.210223 1143.69 2.89929V2.89929C1149.28 6.0088 1156.09 6.0088 1161.69 2.89929V2.89929C1167.28 -0.210226 1174.09 -0.210217 1179.69 2.89929V2.89929C1185.28 6.00879 1192.09 6.0088 1197.69 2.89929V2.89929C1203.28 -0.210225 1210.09 -0.210224 1215.69 2.89928V2.89928C1221.28 6.00879 1228.09 6.00879 1233.69 2.89928V2.89928C1239.28 -0.210229 1246.09 -0.210234 1251.69 2.89928V2.89928C1257.28 6.00879 1264.09 6.00879 1269.69 2.89928V2.89928C1275.28 -0.210233 1282.09 -0.210235 1287.69 2.89928V2.89928C1293.28 6.00879 1300.09 6.00879 1305.69 2.89929V2.89929C1311.28 -0.210221 1318.09 -0.210222 1323.69 2.8993L1332.69 7.89929" stroke="#B7E8FB"/>
</svg>
