<svg width="809" height="22" viewBox="0 0 809 22" fill="none" xmlns="http://www.w3.org/2000/svg">
<path d="M1.22042 10.687L10.5244 1.38422C10.8976 1.01111 11.5194 1.39535 11.3525 1.89593L9.05409 8.79028C8.87416 9.32999 9.27591 9.88726 9.84482 9.88726H14.87C15.6125 9.88726 15.9845 10.785 15.4594 11.3099L6.15536 20.6127C5.7822 20.9859 5.1604 20.6016 5.32729 20.101L7.62576 13.2067C7.80569 12.6669 7.40394 12.1097 6.83499 12.1097H1.80979C1.06722 12.1097 0.695322 11.2119 1.22042 10.687Z" stroke="#B7E8FB" stroke-linecap="round"/>
<path d="M30.7052 15.999L38.808 10.999C43.7751 7.93397 50.0466 7.93397 55.0137 10.999V10.999C59.9808 14.0641 66.2523 14.0641 71.2194 10.999V10.999C76.1865 7.93397 82.458 7.93397 87.4251 10.999V10.999C92.3922 14.0641 98.6637 14.0641 103.631 10.999V10.999C108.598 7.93396 114.869 7.93397 119.837 10.999V10.999C124.804 14.0641 131.075 14.064 136.042 10.999V10.999C141.009 7.93397 147.281 7.93396 152.248 10.999V10.999C157.215 14.064 163.487 14.064 168.454 10.999V10.999C173.421 7.93395 179.692 7.93397 184.659 10.999V10.999C189.626 14.064 195.898 14.064 200.865 10.999V10.999C205.832 7.93397 212.104 7.93392 217.071 10.9989V10.9989C222.038 14.064 228.309 14.0639 233.277 10.9986V10.9986C238.244 7.93338 244.515 7.93326 249.482 10.9983V10.9983C254.449 14.0633 260.721 14.0633 265.688 10.9983V10.9983C270.655 7.93326 276.927 7.93323 281.894 10.9983V10.9983C286.861 14.0633 293.132 14.0633 298.099 10.9983V10.9983C303.067 7.93321 309.338 7.93321 314.305 10.9983V10.9983C319.272 14.0633 325.544 14.0633 330.511 10.9983V10.9983C335.478 7.93321 341.749 7.93321 346.716 10.9982V10.9982C351.684 14.0633 357.955 14.0633 362.922 10.9982V10.9982C367.889 7.9332 374.161 7.9332 379.128 10.9982V10.9982C384.095 14.0633 390.367 14.0633 395.334 10.9982V10.9982C400.301 7.9332 406.572 7.93326 411.539 10.9983V10.9983C416.507 14.0633 422.778 14.0634 427.745 10.9985V10.9985C432.712 7.93357 438.983 7.93366 443.95 10.9987V10.9987C448.918 14.0637 455.189 14.0638 460.156 10.9987V10.9987C465.123 7.93366 471.395 7.93367 476.362 10.9987V10.9987C481.329 14.0638 487.601 14.0638 492.568 10.9987V10.9987C497.535 7.93366 503.806 7.93367 508.773 10.9987V10.9987C513.741 14.0637 520.012 14.0637 524.979 10.9987V10.9987C529.946 7.93367 536.218 7.93367 541.185 10.9987V10.9987C546.152 14.0637 552.423 14.0637 557.391 10.9987V10.9987C562.358 7.93366 568.629 7.93366 573.596 10.9987V10.9987C578.563 14.0637 584.835 14.0637 589.802 10.9987V10.9987C594.769 7.93367 601.04 7.93362 606.007 10.9986V10.9986C610.975 14.0637 617.246 14.0636 622.213 10.9983V10.9983C627.18 7.93308 633.452 7.93296 638.419 10.998V10.998C643.386 14.063 649.658 14.063 654.625 10.998V10.998C659.592 7.93296 665.863 7.93291 670.83 10.998V10.998C675.798 14.063 682.069 14.063 687.036 10.998V10.998C692.003 7.9329 698.275 7.93291 703.242 10.998V10.998C708.209 14.063 714.481 14.063 719.448 10.9979V10.9979C724.415 7.93291 730.686 7.93291 735.653 10.998V10.998C740.62 14.063 746.892 14.063 751.859 10.9979V10.9979C756.826 7.9329 763.098 7.93291 768.065 10.9979V10.9979C773.032 14.063 779.303 14.063 784.271 10.9979V10.9979C789.238 7.9329 795.509 7.9329 800.476 10.9979L808.579 15.9979" stroke="#B7E8FB"/>
</svg>
