<svg width="400" height="249" viewBox="0 0 400 249" fill="none" xmlns="http://www.w3.org/2000/svg">
<mask id="path-1-inside-1_253_826" fill="white">
<path fill-rule="evenodd" clip-rule="evenodd" d="M139.481 3.06532C135.766 -1.02177 129.744 -1.02177 126.029 3.06532C123.788 5.53161 120.61 6.93773 117.277 6.93773H50C22.3858 6.93773 0 29.3235 0 56.9378V198.783C0 226.397 22.3858 248.783 50 248.783H350C377.614 248.783 400 226.397 400 198.783V56.9377C400 29.3235 377.614 6.93773 350 6.93773H148.233C144.9 6.93773 141.722 5.53161 139.481 3.06532Z"/>
</mask>
<path fill-rule="evenodd" clip-rule="evenodd" d="M139.481 3.06532C135.766 -1.02177 129.744 -1.02177 126.029 3.06532C123.788 5.53161 120.61 6.93773 117.277 6.93773H50C22.3858 6.93773 0 29.3235 0 56.9378V198.783C0 226.397 22.3858 248.783 50 248.783H350C377.614 248.783 400 226.397 400 198.783V56.9377C400 29.3235 377.614 6.93773 350 6.93773H148.233C144.9 6.93773 141.722 5.53161 139.481 3.06532Z" fill="white"/>
<path d="M127.509 4.41046C130.43 1.19651 135.08 1.19651 138.001 4.41046L140.961 1.72018C136.453 -3.24006 129.057 -3.24006 124.549 1.72018L127.509 4.41046ZM50 8.93773H117.277V4.93773H50V8.93773ZM2 198.783V56.9378H-2V198.783H2ZM350 246.783H50V250.783H350V246.783ZM398 56.9377V198.783H402V56.9377H398ZM148.233 8.93773H350V4.93773H148.233V8.93773ZM148.233 4.93773C145.464 4.93773 142.823 3.7694 140.961 1.72018L138.001 4.41046C140.621 7.29382 144.336 8.93773 148.233 8.93773V4.93773ZM402 56.9377C402 28.2189 378.719 4.93773 350 4.93773V8.93773C376.51 8.93773 398 30.4281 398 56.9377H402ZM350 250.783C378.719 250.783 402 227.502 402 198.783H398C398 225.293 376.51 246.783 350 246.783V250.783ZM-2 198.783C-2 227.502 21.2812 250.783 50 250.783V246.783C23.4903 246.783 2 225.293 2 198.783H-2ZM50 4.93773C21.2812 4.93773 -2 28.219 -2 56.9378H2C2 30.4281 23.4903 8.93773 50 8.93773V4.93773ZM124.549 1.72018C122.687 3.7694 120.046 4.93773 117.277 4.93773V8.93773C121.173 8.93773 124.889 7.29382 127.509 4.41046L124.549 1.72018Z" fill="#07ACEC" mask="url(#path-1-inside-1_253_826)"/>
</svg>
