<svg width="33" height="33" viewBox="0 0 33 33" fill="none" xmlns="http://www.w3.org/2000/svg">
<circle cx="16.2565" cy="16.7765" r="15" stroke="white" stroke-width="2"/>
<path fill-rule="evenodd" clip-rule="evenodd" d="M21.5991 11.036C21.7959 10.9532 22.0112 10.9247 22.2227 10.9533C22.4342 10.982 22.6342 11.0668 22.8018 11.199C22.9694 11.3311 23.0985 11.5058 23.1757 11.7048C23.2528 11.9038 23.2753 12.1198 23.2406 12.3304L21.4352 23.2819C21.26 24.3383 20.1009 24.9441 19.1321 24.4179C18.3217 23.9777 17.1181 23.2994 16.0354 22.5917C15.4941 22.2375 13.8359 21.1031 14.0397 20.2959C14.2148 19.6057 17.0011 17.0121 18.5932 15.4701C19.2181 14.8643 18.9331 14.5148 18.1952 15.0721C16.3618 16.4556 13.4203 18.5597 12.4475 19.1519C11.5894 19.6742 11.142 19.7633 10.607 19.6742C9.63105 19.5118 8.72592 19.2602 7.98717 18.9537C6.9889 18.5398 7.03746 17.1673 7.98638 16.7677L21.5991 11.036Z" fill="white"/>
</svg>
