<svg width="33" height="33" viewBox="0 0 33 33" fill="none" xmlns="http://www.w3.org/2000/svg">
<circle cx="16.2565" cy="16.7765" r="15" stroke="white" stroke-width="2"/>
<path d="M25.2716 12.9285C25.074 13.5599 24.785 14.1589 24.4138 14.7064L24.4287 14.6828C24.0761 15.2704 23.6551 15.9494 23.1655 16.7196C22.7458 17.3277 22.5236 17.6425 22.4989 17.664C22.3867 17.8045 22.3142 17.9725 22.2888 18.1504L22.288 18.1559C22.308 18.3163 22.3825 18.4649 22.4989 18.577L22.8137 18.928C24.498 20.6589 25.4453 21.8521 25.6557 22.5074C25.6956 22.615 25.7084 22.7308 25.693 22.8446C25.6777 22.9584 25.6346 23.0666 25.5675 23.1598L25.5691 23.1575C25.4899 23.2392 25.3933 23.3021 25.2865 23.3414C25.1797 23.3808 25.0654 23.3957 24.9521 23.3849H24.9552H22.8806C22.6154 23.3849 22.3714 23.2921 22.1802 23.1378L22.1825 23.1394C21.9095 22.9155 21.6588 22.6656 21.4341 22.3933L21.427 22.3838C21.0644 21.9741 20.7428 21.6291 20.4621 21.3489C19.5271 20.4601 18.8372 20.0157 18.3922 20.0157C18.2486 20.0028 18.105 20.0404 17.9861 20.1219L17.9885 20.1203C17.9374 20.1844 17.8999 20.2582 17.8783 20.3372C17.8566 20.4162 17.8513 20.4988 17.8626 20.58V20.5768C17.832 20.944 17.822 21.3127 17.8327 21.681V21.6676V22.5798C17.855 22.6888 17.8473 22.8017 17.8105 22.9067C17.7736 23.0116 17.7089 23.1046 17.6233 23.1756L17.6225 23.1764C17.224 23.3564 16.7852 23.4289 16.3499 23.3865L16.3601 23.3873C15.1687 23.3668 14.0055 23.0218 12.9956 22.3893L13.0232 22.4051C11.8587 21.703 10.8605 20.7565 10.0978 19.6308L10.0765 19.5978C9.33614 18.6104 8.68531 17.559 8.1318 16.456L8.07671 16.3348C7.70788 15.6205 7.38379 14.884 7.10631 14.1295L7.05909 13.9839C6.93044 13.5923 6.84854 13.1867 6.81511 12.7758L6.81354 12.7562C6.81354 12.3585 7.04755 12.1596 7.51556 12.1596H9.58544C9.7947 12.1432 10.0024 12.2065 10.167 12.3367L10.1655 12.3351C10.3229 12.5075 10.4394 12.7192 10.4968 12.9553L10.4992 12.9647C10.8411 13.944 11.2587 14.8953 11.7482 15.8098L11.6954 15.702C12.0492 16.4206 12.4773 17.1001 12.9728 17.7294L12.9547 17.705C13.3744 18.2202 13.7018 18.4778 13.9369 18.4778L13.9621 18.4786C14.0174 18.4787 14.0718 18.4642 14.1197 18.4366C14.1677 18.4089 14.2075 18.3691 14.2352 18.3212L14.236 18.3196C14.3113 18.1224 14.3412 17.9107 14.3233 17.7002V17.705V14.6521C14.3086 14.306 14.2229 13.9666 14.0715 13.6549L14.0778 13.6699C13.986 13.4719 13.8667 13.2877 13.7236 13.1229L13.726 13.1261C13.594 12.9943 13.5081 12.8234 13.4812 12.6389L13.4804 12.6342C13.4804 12.5004 13.5418 12.38 13.6378 12.3013L13.6386 12.3005C13.7374 12.21 13.8667 12.16 14.0006 12.1604H17.2699C17.352 12.1508 17.4352 12.1618 17.5119 12.1923C17.5887 12.2228 17.6567 12.2718 17.7099 12.3351L17.7107 12.3359C17.8101 12.5196 17.8536 12.7283 17.8358 12.9364V12.9325V17.0037C17.8233 17.1643 17.8607 17.3248 17.9428 17.4634L17.9413 17.4602C17.9701 17.5033 18.0091 17.5386 18.0548 17.563C18.1005 17.5875 18.1515 17.6003 18.2033 17.6003C18.3361 17.5917 18.4649 17.5476 18.5748 17.4728L18.5725 17.4744C18.7865 17.3272 18.9707 17.1596 19.1305 16.9699L19.1336 16.966C19.6198 16.4158 20.0558 15.8232 20.4361 15.1952L20.4668 15.1401C20.7376 14.6915 21.0303 14.139 21.2956 13.5715L21.3444 13.4558L21.6954 12.7538C21.7572 12.5723 21.8764 12.4158 22.035 12.3081C22.1936 12.2003 22.383 12.1471 22.5745 12.1565H22.5721H24.6428C25.2021 12.1565 25.412 12.4138 25.2724 12.9285H25.2716Z" fill="white"/>
</svg>
