<svg width="21" height="20" viewBox="0 0 21 20" fill="none" xmlns="http://www.w3.org/2000/svg">
<g id="Group">
<path id="Vector" d="M18.1806 7.15986L7.08887 1.22331C6.83856 1.09042 6.55948 1.02094 6.27608 1.02094C5.99267 1.02094 5.7136 1.09042 5.46328 1.22331L2.18516 2.92973C1.88959 3.09171 1.64231 3.32924 1.46858 3.61806C1.29485 3.90689 1.20091 4.23665 1.19634 4.57366C1.19178 4.91068 1.27675 5.24286 1.44259 5.53629C1.60842 5.82971 1.84918 6.07386 2.14025 6.24378L13.1152 12.4677C13.3818 12.6156 13.6816 12.6931 13.9864 12.6931C14.2912 12.6931 14.591 12.6156 14.8576 12.4677L18.2614 10.4559C18.5465 10.2817 18.7807 10.0356 18.9406 9.74222C19.1004 9.44884 19.1803 9.11857 19.1721 8.78458C19.1639 8.45059 19.068 8.12463 18.8939 7.83944C18.7199 7.55425 18.4739 7.31988 18.1806 7.15986Z" stroke="#07ACEC" stroke-width="2" stroke-linecap="round" stroke-linejoin="round"/>
<path id="Vector_2" d="M10.1783 18.9791V10.896M2.17613 7.15986L13.2679 1.22331C13.5182 1.09042 13.7973 1.02094 14.0807 1.02094C14.3641 1.02094 14.6431 1.09042 14.8935 1.22331L18.1716 2.92973C18.4695 3.08762 18.7202 3.3218 18.898 3.60834C19.0758 3.89487 19.1742 4.22348 19.1834 4.56055C19.1925 4.89763 19.112 5.23109 18.95 5.52683C18.788 5.82257 18.5504 6.06999 18.2614 6.24378L7.2415 12.4677C6.97494 12.6156 6.67514 12.6931 6.37033 12.6931C6.06552 12.6931 5.76572 12.6156 5.49916 12.4677L2.0953 10.4559C1.81022 10.2817 1.57599 10.0356 1.41615 9.74222C1.2563 9.44884 1.17646 9.11857 1.18465 8.78458C1.19285 8.45059 1.28877 8.12463 1.46281 7.83944C1.63684 7.55425 1.88285 7.31988 2.17613 7.15986Z" stroke="#07ACEC" stroke-width="2" stroke-linecap="round" stroke-linejoin="round"/>
<path id="Vector_3" d="M17.3633 11.3451V14.3717C17.3636 14.7107 17.2708 15.0433 17.095 15.3331C16.9192 15.623 16.6671 15.8589 16.3664 16.0153L10.9777 18.7815C10.7308 18.9098 10.4566 18.9768 10.1783 18.9768C9.90008 18.9768 9.62592 18.9098 9.37901 18.7815L3.99032 16.0153C3.68952 15.8589 3.43746 15.623 3.26166 15.3331C3.08585 15.0433 2.99306 14.7107 2.99341 14.3717V11.3451" stroke="#07ACEC" stroke-width="2" stroke-linecap="round" stroke-linejoin="round"/>
</g>
</svg>
