<svg width="18" height="17" viewBox="0 0 18 17" fill="none" xmlns="http://www.w3.org/2000/svg">
<path id="Star 1" d="M7.33641 1.43985C8.07872 -0.0145192 10.1569 -0.0145226 10.8992 1.43985L11.9499 3.49838C12.2405 4.06778 12.7858 4.46395 13.4171 4.56434L15.6994 4.92727C17.3122 5.18374 17.9544 7.16046 16.8004 8.31586L15.1676 9.95044C14.7158 10.4028 14.5075 11.0439 14.6071 11.6755L14.9671 13.9577C15.2216 15.5707 13.5403 16.7923 12.0848 16.052L10.0245 15.0041C9.45477 14.7143 8.78081 14.7143 8.21105 15.0041L6.15078 16.052C4.69531 16.7923 3.01402 15.5707 3.26847 13.9577L3.62849 11.6755C3.72812 11.0439 3.51978 10.4028 3.06794 9.95044L1.43522 8.31586C0.281149 7.16046 0.923377 5.18373 2.53616 4.92727L4.81844 4.56434C5.44979 4.46395 5.9951 4.06778 6.28573 3.49838L7.33641 1.43985Z" fill="#FF9218"/>
</svg>
