<svg width="17" height="17" viewBox="0 0 17 17" fill="none" xmlns="http://www.w3.org/2000/svg">
<path d="M6.91258 1.50131C7.65489 0.0469432 9.73303 0.0469398 10.4753 1.50131L11.526 3.55984C11.8166 4.12925 12.362 4.52541 12.9933 4.62581L15.2756 4.98873C16.8884 5.2452 17.5306 7.22192 16.3765 8.37732L14.7438 10.0119C14.292 10.4643 14.0836 11.1054 14.1833 11.737L14.5433 14.0192C14.7977 15.6322 13.1164 16.8538 11.661 16.1135L9.6007 15.0655C9.03094 14.7757 8.35698 14.7757 7.78722 15.0655L5.72695 16.1135C4.27148 16.8538 2.59019 15.6322 2.84464 14.0192L3.20466 11.737C3.30429 11.1054 3.09596 10.4643 2.64411 10.0119L1.01139 8.37732C-0.142679 7.22192 0.499549 5.2452 2.11233 4.98873L4.39461 4.62581C5.02596 4.52541 5.57127 4.12925 5.8619 3.55985L6.91258 1.50131Z" fill="#FF9218"/>
</svg>
