<svg width="20" height="21" viewBox="0 0 20 21" fill="none" xmlns="http://www.w3.org/2000/svg">
<path d="M17.9965 7.42371L6.90473 1.48717C6.65442 1.35428 6.37534 1.28479 6.09193 1.28479C5.80853 1.28479 5.52945 1.35428 5.27914 1.48717L2.00102 3.19359C1.70544 3.35556 1.45816 3.5931 1.28444 3.88192C1.11071 4.17074 1.01677 4.5005 1.0122 4.83752C1.00763 5.17453 1.09261 5.50672 1.25844 5.80014C1.42428 6.09357 1.66503 6.33771 1.95611 6.50764L12.9311 12.7316C13.1976 12.8794 13.4974 12.957 13.8023 12.957C14.1071 12.957 14.4069 12.8794 14.6734 12.7316L18.0773 10.7198C18.3624 10.5456 18.5966 10.2994 18.7564 10.0061C18.9163 9.7127 18.9961 9.38243 18.9879 9.04843C18.9797 8.71444 18.8838 8.38848 18.7098 8.10329C18.5357 7.81811 18.2897 7.58374 17.9965 7.42371Z" stroke="#FF9218" stroke-width="2" stroke-linecap="round" stroke-linejoin="round"/>
<path d="M9.99426 19.2429V11.1599M1.99205 7.42371L13.0838 1.48717C13.3341 1.35428 13.6132 1.28479 13.8966 1.28479C14.18 1.28479 14.4591 1.35428 14.7094 1.48717L17.9875 3.19359C18.2854 3.35147 18.5361 3.58566 18.7139 3.87219C18.8917 4.15872 18.9902 4.48733 18.9993 4.82441C19.0084 5.16149 18.9279 5.49495 18.7659 5.79069C18.6039 6.08643 18.3663 6.33385 18.0773 6.50764L7.05742 12.7316C6.79086 12.8794 6.49106 12.957 6.18625 12.957C5.88144 12.957 5.58164 12.8794 5.31508 12.7316L1.91122 10.7198C1.62614 10.5456 1.39191 10.2994 1.23206 10.0061C1.07222 9.7127 0.992382 9.38243 1.00057 9.04843C1.00876 8.71444 1.10469 8.38848 1.27873 8.10329C1.45276 7.81811 1.69877 7.58374 1.99205 7.42371Z" stroke="#FF9218" stroke-width="2" stroke-linecap="round" stroke-linejoin="round"/>
<path d="M17.1792 11.6089V14.6355C17.1795 14.9745 17.0867 15.3071 16.9109 15.5969C16.7351 15.8868 16.4831 16.1228 16.1823 16.2791L10.7936 19.0453C10.5467 19.1736 10.2725 19.2406 9.99425 19.2406C9.716 19.2406 9.44183 19.1736 9.19493 19.0453L3.80624 16.2791C3.50544 16.1228 3.25338 15.8868 3.07758 15.5969C2.90177 15.3071 2.80898 14.9745 2.80933 14.6355V11.6089" stroke="#FF9218" stroke-width="2" stroke-linecap="round" stroke-linejoin="round"/>
</svg>
