<svg width="27" height="27" viewBox="0 0 27 27" fill="none" xmlns="http://www.w3.org/2000/svg">
<path d="M5.72154 11.2881L11.3094 2.8022C12.3297 1.25286 14.5784 1.25286 15.5987 2.8022L21.1867 11.2881M5.72154 11.2881H21.1867M5.72154 11.2881H4.24643M21.1867 11.2881H22.6616M4.87924 14.5956L7.94067 22.3457M22.6616 11.2881C24.4504 11.2881 25.6954 13.0874 25.084 14.7893L21.8036 23.9225C21.4332 24.9536 20.4651 25.6402 19.3812 25.6402H7.52689C6.44304 25.6402 5.47498 24.9536 5.10458 23.9225L1.8241 14.7893C1.21283 13.0874 2.45773 11.2881 4.24643 11.2881M22.6616 11.2881H4.24643" stroke="white" stroke-width="2" stroke-linecap="round"/>
</svg>
