<svg width="26" height="26" viewBox="0 0 26 26" fill="none" xmlns="http://www.w3.org/2000/svg">
<path d="M21.6652 23.1818C21.6546 23.1895 21.6436 23.1974 21.6323 23.2055C21.3631 23.3997 20.9015 23.7325 20.2628 23.9398C19.5523 24.1703 18.6842 24.2318 17.6107 23.9643C15.525 23.4445 12.6355 21.6748 8.38397 17.4233C4.13244 13.1719 2.36252 10.282 1.84262 8.19595C1.57505 7.1223 1.63655 6.25403 1.86721 5.54331C2.07476 4.90378 2.4081 4.44196 2.6026 4.1725C2.61053 4.1615 2.61824 4.15083 2.62569 4.14047C2.8114 3.84282 3.5434 2.7755 4.59001 2.00673C5.1696 1.58101 5.92896 1.18498 6.80684 1.14371C7.72941 1.10034 8.63591 1.45549 9.44451 2.26407C10.959 3.7785 11.7435 4.96883 12.0075 6.04228C12.2892 7.18782 11.9326 8.03287 11.6829 8.62161C11.4316 9.21391 11.321 9.49819 11.4082 9.91956C11.5065 10.3942 11.9043 11.1947 13.2576 12.5484C14.6113 13.9017 15.4119 14.2997 15.8867 14.398C16.3082 14.4853 16.5927 14.3747 17.1851 14.1236C17.774 13.874 18.6191 13.5177 19.7646 13.7995C20.8381 14.0637 22.0284 14.8483 23.5428 16.3628C23.5429 16.3628 23.5429 16.3628 23.5429 16.3629M21.6652 23.1818L21.1112 22.3486C21.2898 22.2472 25.3788 19.6124 22.8358 17.07L23.5429 16.3629M21.6652 23.1818C21.9596 22.9981 23.0296 22.2654 23.8 21.2167C24.2258 20.6371 24.6219 19.8779 24.6632 19.0001C24.7066 18.0776 24.3514 17.1712 23.5429 16.3629M21.6652 23.1818L23.5429 16.3629" stroke="white" stroke-width="2" stroke-linecap="round"/>
</svg>
