<svg width="1920" height="17" viewBox="0 0 1920 17" fill="none" xmlns="http://www.w3.org/2000/svg">
<g clip-path="url(#clip0_553_3010)">
<path fill-rule="evenodd" clip-rule="evenodd" d="M1859.14 7.18415L1860.6 5.98C1862.12 4.8116 1864.86 2.3675 1867.72 3.5717C1870.63 4.7758 1873.49 9.59247 1876.35 11.3987C1879.21 13.2049 1882.07 12.0008 1884.93 9.59247C1887.79 7.18414 1890.7 3.57169 1893.56 1.76539C1896.42 -0.0408057 1899.28 -0.0408059 1902.14 1.76539C1905 3.57169 1907.86 7.18414 1910.77 8.3883C1913.63 9.59246 1916.49 8.59758 1918.01 7.96371C1919.52 7.32984 1920 6.79389 1920 6.79389L1919.91 16.2153L1917.9 16.2153C1916.49 16.2153 1913.63 16.2153 1910.77 16.2153C1907.86 16.2153 1905 16.2153 1902.14 16.2153C1899.28 16.2153 1896.42 16.2153 1893.56 16.2153C1890.7 16.2153 1887.79 16.2153 1884.93 16.2153C1882.07 16.2153 1879.21 16.2153 1876.35 16.2153C1873.49 16.2153 1870.63 16.2153 1867.72 16.2153C1864.86 16.2153 1862 16.2153 1860.6 16.2153L1859.14 16.2153L1859.14 7.18415Z" fill="#07ACEC"/>
<path fill-rule="evenodd" clip-rule="evenodd" d="M1798.77 7.18415L1800.22 5.98C1801.74 4.8116 1804.49 2.3675 1807.35 3.5717C1810.26 4.7758 1813.12 9.59247 1815.98 11.3987C1818.84 13.2049 1821.7 12.0008 1824.56 9.59247C1827.42 7.18414 1830.33 3.57169 1833.19 1.76539C1836.05 -0.0408057 1838.91 -0.0408059 1841.77 1.76539C1844.63 3.57169 1847.49 7.18414 1850.4 8.3883C1853.26 9.59246 1856.12 8.59758 1857.63 7.96371C1859.15 7.32984 1859.62 6.79389 1859.62 6.79389L1859.54 16.2153L1857.52 16.2153C1856.12 16.2153 1853.26 16.2153 1850.4 16.2153C1847.49 16.2153 1844.63 16.2153 1841.77 16.2153C1838.91 16.2153 1836.05 16.2153 1833.19 16.2153C1830.33 16.2153 1827.42 16.2153 1824.56 16.2153C1821.7 16.2153 1818.84 16.2153 1815.98 16.2153C1813.12 16.2153 1810.26 16.2153 1807.35 16.2153C1804.49 16.2153 1801.63 16.2153 1800.22 16.2153L1798.77 16.2153L1798.77 7.18415Z" fill="#07ACEC"/>
<path fill-rule="evenodd" clip-rule="evenodd" d="M1738.39 7.18415L1739.85 5.98C1741.37 4.8116 1744.11 2.3675 1746.97 3.5717C1749.88 4.7758 1752.74 9.59247 1755.6 11.3987C1758.46 13.2049 1761.32 12.0008 1764.18 9.59247C1767.04 7.18414 1769.95 3.57169 1772.81 1.76539C1775.67 -0.0408057 1778.53 -0.0408059 1781.39 1.76539C1784.25 3.57169 1787.11 7.18414 1790.02 8.3883C1792.88 9.59246 1795.74 8.59758 1797.26 7.96371C1798.77 7.32984 1799.25 6.79389 1799.25 6.79389L1799.16 16.2153L1797.14 16.2153C1795.74 16.2153 1792.88 16.2153 1790.02 16.2153C1787.11 16.2153 1784.25 16.2153 1781.39 16.2153C1778.53 16.2153 1775.67 16.2153 1772.81 16.2153C1769.95 16.2153 1767.04 16.2153 1764.18 16.2153C1761.32 16.2153 1758.46 16.2153 1755.6 16.2153C1752.74 16.2153 1749.88 16.2153 1746.97 16.2153C1744.11 16.2153 1741.25 16.2153 1739.85 16.2153L1738.39 16.2153L1738.39 7.18415Z" fill="#07ACEC"/>
<path fill-rule="evenodd" clip-rule="evenodd" d="M1678.01 7.18415L1679.47 5.98C1680.99 4.8116 1683.73 2.3675 1686.59 3.5717C1689.5 4.7758 1692.36 9.59247 1695.22 11.3987C1698.08 13.2049 1700.94 12.0008 1703.8 9.59247C1706.66 7.18414 1709.57 3.57169 1712.43 1.76539C1715.29 -0.0408057 1718.15 -0.0408059 1721.01 1.76539C1723.87 3.57169 1726.73 7.18414 1729.64 8.3883C1732.5 9.59246 1735.37 8.59758 1736.88 7.96371C1738.39 7.32984 1738.87 6.79389 1738.87 6.79389L1738.78 16.2153L1736.77 16.2153C1735.36 16.2153 1732.5 16.2153 1729.64 16.2153C1726.73 16.2153 1723.87 16.2153 1721.01 16.2153C1718.15 16.2153 1715.29 16.2153 1712.43 16.2153C1709.57 16.2153 1706.66 16.2153 1703.8 16.2153C1700.94 16.2153 1698.08 16.2153 1695.22 16.2153C1692.36 16.2153 1689.5 16.2153 1686.59 16.2153C1683.73 16.2153 1680.87 16.2153 1679.47 16.2153L1678.01 16.2153L1678.01 7.18415Z" fill="#07ACEC"/>
<path fill-rule="evenodd" clip-rule="evenodd" d="M1617.64 7.18415L1619.09 5.98C1620.61 4.8116 1623.36 2.3675 1626.22 3.5717C1629.13 4.7758 1631.99 9.59247 1634.85 11.3987C1637.71 13.2049 1640.57 12.0008 1643.43 9.59247C1646.29 7.18414 1649.2 3.57169 1652.06 1.76539C1654.92 -0.0408057 1657.78 -0.0408059 1660.64 1.76539C1663.5 3.57169 1666.36 7.18414 1669.27 8.3883C1672.13 9.59246 1674.99 8.59758 1676.5 7.96371C1678.02 7.32984 1678.49 6.79389 1678.49 6.79389L1678.41 16.2153L1676.39 16.2153C1674.99 16.2153 1672.13 16.2153 1669.27 16.2153C1666.36 16.2153 1663.5 16.2153 1660.64 16.2153C1657.78 16.2153 1654.92 16.2153 1652.06 16.2153C1649.2 16.2153 1646.29 16.2153 1643.43 16.2153C1640.57 16.2153 1637.71 16.2153 1634.85 16.2153C1631.99 16.2153 1629.13 16.2153 1626.22 16.2153C1623.36 16.2153 1620.5 16.2153 1619.09 16.2153L1617.64 16.2153L1617.64 7.18415Z" fill="#07ACEC"/>
<path fill-rule="evenodd" clip-rule="evenodd" d="M1557.26 7.18415L1558.72 5.98C1560.24 4.8116 1562.98 2.3675 1565.84 3.5717C1568.75 4.7758 1571.61 9.59247 1574.47 11.3987C1577.33 13.2049 1580.19 12.0008 1583.05 9.59247C1585.91 7.18414 1588.82 3.57169 1591.68 1.76539C1594.54 -0.0408057 1597.4 -0.0408059 1600.26 1.76539C1603.12 3.57169 1605.98 7.18414 1608.89 8.3883C1611.75 9.59246 1614.61 8.59758 1616.13 7.96371C1617.64 7.32984 1618.12 6.79389 1618.12 6.79389L1618.03 16.2153L1616.01 16.2153C1614.61 16.2153 1611.75 16.2153 1608.89 16.2153C1605.98 16.2153 1603.12 16.2153 1600.26 16.2153C1597.4 16.2153 1594.54 16.2153 1591.68 16.2153C1588.82 16.2153 1585.91 16.2153 1583.05 16.2153C1580.19 16.2153 1577.33 16.2153 1574.47 16.2153C1571.61 16.2153 1568.75 16.2153 1565.84 16.2153C1562.98 16.2153 1560.12 16.2153 1558.72 16.2153L1557.26 16.2153L1557.26 7.18415Z" fill="#07ACEC"/>
<path fill-rule="evenodd" clip-rule="evenodd" d="M1496.88 7.18415L1498.34 5.98C1499.86 4.8116 1502.6 2.3675 1505.46 3.5717C1508.37 4.7758 1511.23 9.59247 1514.09 11.3987C1516.95 13.2049 1519.81 12.0008 1522.67 9.59247C1525.53 7.18414 1528.44 3.57169 1531.3 1.76539C1534.16 -0.0408057 1537.02 -0.0408059 1539.88 1.76539C1542.74 3.57169 1545.6 7.18414 1548.51 8.3883C1551.37 9.59246 1554.23 8.59758 1555.75 7.96371C1557.26 7.32984 1557.74 6.79389 1557.74 6.79389L1557.65 16.2153L1555.64 16.2153C1554.23 16.2153 1551.37 16.2153 1548.51 16.2153C1545.6 16.2153 1542.74 16.2153 1539.88 16.2153C1537.02 16.2153 1534.16 16.2153 1531.3 16.2153C1528.44 16.2153 1525.53 16.2153 1522.67 16.2153C1519.81 16.2153 1516.95 16.2153 1514.09 16.2153C1511.23 16.2153 1508.37 16.2153 1505.46 16.2153C1502.6 16.2153 1499.74 16.2153 1498.34 16.2153L1496.88 16.2153L1496.88 7.18415Z" fill="#07ACEC"/>
<path fill-rule="evenodd" clip-rule="evenodd" d="M1436.51 7.18415L1437.96 5.98C1439.49 4.8116 1442.23 2.3675 1445.09 3.5717C1448 4.7758 1450.86 9.59247 1453.72 11.3987C1456.58 13.2049 1459.44 12.0008 1462.3 9.59247C1465.16 7.18414 1468.07 3.57169 1470.93 1.76539C1473.79 -0.0408057 1476.65 -0.0408059 1479.51 1.76539C1482.37 3.57169 1485.23 7.18414 1488.14 8.3883C1491 9.59246 1493.86 8.59758 1495.37 7.96371C1496.89 7.32984 1497.36 6.79389 1497.36 6.79389L1497.28 16.2153L1495.26 16.2153C1493.86 16.2153 1491 16.2153 1488.14 16.2153C1485.23 16.2153 1482.37 16.2153 1479.51 16.2153C1476.65 16.2153 1473.79 16.2153 1470.93 16.2153C1468.07 16.2153 1465.16 16.2153 1462.3 16.2153C1459.44 16.2153 1456.58 16.2153 1453.72 16.2153C1450.86 16.2153 1448 16.2153 1445.09 16.2153C1442.23 16.2153 1439.37 16.2153 1437.96 16.2153L1436.51 16.2153L1436.51 7.18415Z" fill="#07ACEC"/>
<path fill-rule="evenodd" clip-rule="evenodd" d="M1376.13 7.18415L1377.59 5.98C1379.11 4.8116 1381.85 2.3675 1384.71 3.5717C1387.62 4.7758 1390.48 9.59247 1393.34 11.3987C1396.2 13.2049 1399.06 12.0008 1401.92 9.59247C1404.78 7.18414 1407.69 3.57169 1410.55 1.76539C1413.41 -0.0408057 1416.27 -0.0408059 1419.13 1.76539C1421.99 3.57169 1424.85 7.18414 1427.76 8.3883C1430.62 9.59246 1433.48 8.59758 1435 7.96371C1436.51 7.32984 1436.99 6.79389 1436.99 6.79389L1436.9 16.2153L1434.89 16.2153C1433.48 16.2153 1430.62 16.2153 1427.76 16.2153C1424.85 16.2153 1421.99 16.2153 1419.13 16.2153C1416.27 16.2153 1413.41 16.2153 1410.55 16.2153C1407.69 16.2153 1404.78 16.2153 1401.92 16.2153C1399.06 16.2153 1396.2 16.2153 1393.34 16.2153C1390.48 16.2153 1387.62 16.2153 1384.71 16.2153C1381.85 16.2153 1378.99 16.2153 1377.59 16.2153L1376.13 16.2153L1376.13 7.18415Z" fill="#07ACEC"/>
<path fill-rule="evenodd" clip-rule="evenodd" d="M1315.76 7.18415L1317.21 5.98C1318.73 4.8116 1321.48 2.3675 1324.34 3.5717C1327.25 4.7758 1330.11 9.59247 1332.97 11.3987C1335.83 13.2049 1338.69 12.0008 1341.54 9.59247C1344.4 7.18414 1347.31 3.57169 1350.17 1.76539C1353.03 -0.0408057 1355.89 -0.0408059 1358.75 1.76539C1361.61 3.57169 1364.47 7.18414 1367.38 8.3883C1370.24 9.59246 1373.11 8.59758 1374.62 7.96371C1376.14 7.32984 1376.61 6.79389 1376.61 6.79389L1376.52 16.2153L1374.51 16.2153C1373.1 16.2153 1370.24 16.2153 1367.38 16.2153C1364.47 16.2153 1361.61 16.2153 1358.75 16.2153C1355.89 16.2153 1353.03 16.2153 1350.17 16.2153C1347.31 16.2153 1344.4 16.2153 1341.54 16.2153C1338.69 16.2153 1335.83 16.2153 1332.97 16.2153C1330.11 16.2153 1327.25 16.2153 1324.34 16.2153C1321.48 16.2153 1318.62 16.2153 1317.21 16.2153L1315.76 16.2153L1315.76 7.18415Z" fill="#07ACEC"/>
<path fill-rule="evenodd" clip-rule="evenodd" d="M1255.38 7.18415L1256.83 5.98C1258.36 4.8116 1261.1 2.3675 1263.96 3.5717C1266.87 4.7758 1269.73 9.59247 1272.59 11.3987C1275.45 13.2049 1278.31 12.0008 1281.17 9.59247C1284.03 7.18414 1286.94 3.57169 1289.8 1.76539C1292.66 -0.0408057 1295.52 -0.0408059 1298.38 1.76539C1301.24 3.57169 1304.1 7.18414 1307.01 8.3883C1309.87 9.59246 1312.73 8.59758 1314.24 7.96371C1315.76 7.32984 1316.23 6.79389 1316.23 6.79389L1316.15 16.2153L1314.13 16.2153C1312.73 16.2153 1309.87 16.2153 1307.01 16.2153C1304.1 16.2153 1301.24 16.2153 1298.38 16.2153C1295.52 16.2153 1292.66 16.2153 1289.8 16.2153C1286.94 16.2153 1284.03 16.2153 1281.17 16.2153C1278.31 16.2153 1275.45 16.2153 1272.59 16.2153C1269.73 16.2153 1266.87 16.2153 1263.96 16.2153C1261.1 16.2153 1258.24 16.2153 1256.83 16.2153L1255.38 16.2153L1255.38 7.18415Z" fill="#07ACEC"/>
<path fill-rule="evenodd" clip-rule="evenodd" d="M1195 7.18415L1196.46 5.98C1197.98 4.8116 1200.72 2.3675 1203.58 3.5717C1206.49 4.7758 1209.35 9.59247 1212.21 11.3987C1215.07 13.2049 1217.93 12.0008 1220.79 9.59247C1223.65 7.18414 1226.56 3.57169 1229.42 1.76539C1232.28 -0.0408057 1235.14 -0.0408059 1238 1.76539C1240.86 3.57169 1243.72 7.18414 1246.63 8.3883C1249.49 9.59246 1252.35 8.59758 1253.87 7.96371C1255.38 7.32984 1255.86 6.79389 1255.86 6.79389L1255.77 16.2153L1253.75 16.2153C1252.35 16.2153 1249.49 16.2153 1246.63 16.2153C1243.72 16.2153 1240.86 16.2153 1238 16.2153C1235.14 16.2153 1232.28 16.2153 1229.42 16.2153C1226.56 16.2153 1223.65 16.2153 1220.79 16.2153C1217.93 16.2153 1215.07 16.2153 1212.21 16.2153C1209.35 16.2153 1206.49 16.2153 1203.58 16.2153C1200.72 16.2153 1197.86 16.2153 1196.46 16.2153L1195 16.2153L1195 7.18415Z" fill="#07ACEC"/>
<path fill-rule="evenodd" clip-rule="evenodd" d="M1134.63 7.18415L1136.08 5.98C1137.6 4.8116 1140.35 2.3675 1143.21 3.5717C1146.12 4.7758 1148.98 9.59247 1151.83 11.3987C1154.69 13.2049 1157.55 12.0008 1160.41 9.59247C1163.27 7.18414 1166.18 3.57169 1169.04 1.76539C1171.9 -0.0408057 1174.76 -0.0408059 1177.62 1.76539C1180.48 3.57169 1183.34 7.18414 1186.25 8.3883C1189.11 9.59246 1191.98 8.59758 1193.49 7.96371C1195 7.32984 1195.48 6.79389 1195.48 6.79389L1195.39 16.2153L1193.38 16.2153C1191.97 16.2153 1189.11 16.2153 1186.25 16.2153C1183.34 16.2153 1180.48 16.2153 1177.62 16.2153C1174.76 16.2153 1171.9 16.2153 1169.04 16.2153C1166.18 16.2153 1163.27 16.2153 1160.41 16.2153C1157.55 16.2153 1154.69 16.2153 1151.83 16.2153C1148.98 16.2153 1146.12 16.2153 1143.21 16.2153C1140.35 16.2153 1137.49 16.2153 1136.08 16.2153L1134.63 16.2153L1134.63 7.18415Z" fill="#07ACEC"/>
<path fill-rule="evenodd" clip-rule="evenodd" d="M1074.25 7.18415L1075.7 5.98C1077.23 4.8116 1079.97 2.3675 1082.83 3.5717C1085.74 4.7758 1088.6 9.59247 1091.46 11.3987C1094.32 13.2049 1097.18 12.0008 1100.04 9.59247C1102.9 7.18414 1105.81 3.57169 1108.67 1.76539C1111.53 -0.0408057 1114.39 -0.0408059 1117.25 1.76539C1120.11 3.57169 1122.97 7.18414 1125.88 8.3883C1128.74 9.59246 1131.6 8.59758 1133.11 7.96371C1134.63 7.32984 1135.11 6.79389 1135.11 6.79389L1135.02 16.2153L1133 16.2153C1131.6 16.2153 1128.74 16.2153 1125.88 16.2153C1122.97 16.2153 1120.11 16.2153 1117.25 16.2153C1114.39 16.2153 1111.53 16.2153 1108.67 16.2153C1105.81 16.2153 1102.9 16.2153 1100.04 16.2153C1097.18 16.2153 1094.32 16.2153 1091.46 16.2153C1088.6 16.2153 1085.74 16.2153 1082.83 16.2153C1079.97 16.2153 1077.11 16.2153 1075.7 16.2153L1074.25 16.2153L1074.25 7.18415Z" fill="#07ACEC"/>
<path fill-rule="evenodd" clip-rule="evenodd" d="M1013.87 7.18415L1015.33 5.98C1016.85 4.8116 1019.59 2.3675 1022.45 3.5717C1025.36 4.7758 1028.22 9.59247 1031.08 11.3987C1033.94 13.2049 1036.8 12.0008 1039.66 9.59247C1042.52 7.18414 1045.43 3.57169 1048.29 1.76539C1051.15 -0.0408057 1054.01 -0.0408059 1056.87 1.76539C1059.73 3.57169 1062.59 7.18414 1065.5 8.3883C1068.36 9.59246 1071.22 8.59758 1072.74 7.96371C1074.25 7.32984 1074.73 6.79389 1074.73 6.79389L1074.64 16.2153L1072.63 16.2153C1071.22 16.2153 1068.36 16.2153 1065.5 16.2153C1062.59 16.2153 1059.73 16.2153 1056.87 16.2153C1054.01 16.2153 1051.15 16.2153 1048.29 16.2153C1045.43 16.2153 1042.52 16.2153 1039.66 16.2153C1036.8 16.2153 1033.94 16.2153 1031.08 16.2153C1028.22 16.2153 1025.36 16.2153 1022.45 16.2153C1019.59 16.2153 1016.73 16.2153 1015.33 16.2153L1013.87 16.2153L1013.87 7.18415Z" fill="#07ACEC"/>
<path fill-rule="evenodd" clip-rule="evenodd" d="M953.497 7.18415L954.952 5.98C956.474 4.8116 959.216 2.3675 962.076 3.5717C964.986 4.7758 967.846 9.59247 970.706 11.3987C973.566 13.2049 976.426 12.0008 979.286 9.59247C982.146 7.18414 985.056 3.57169 987.915 1.76539C990.775 -0.0408057 993.635 -0.0408059 996.495 1.76539C999.355 3.57169 1002.21 7.18414 1005.12 8.3883C1007.98 9.59246 1010.85 8.59758 1012.36 7.96371C1013.88 7.32984 1014.35 6.79389 1014.35 6.79389L1014.27 16.2153L1012.25 16.2153C1010.85 16.2153 1007.98 16.2153 1005.12 16.2153C1002.21 16.2153 999.355 16.2153 996.495 16.2153C993.635 16.2153 990.775 16.2153 987.915 16.2153C985.056 16.2153 982.146 16.2153 979.286 16.2153C976.426 16.2153 973.566 16.2153 970.706 16.2153C967.846 16.2153 964.986 16.2153 962.076 16.2153C959.216 16.2153 956.356 16.2153 954.952 16.2153L953.497 16.2153L953.497 7.18415Z" fill="#07ACEC"/>
<path fill-rule="evenodd" clip-rule="evenodd" d="M893.12 7.18415L894.58 5.98C896.1 4.8116 898.84 2.3675 901.7 3.5717C904.61 4.7758 907.47 9.59247 910.33 11.3987C913.19 13.2049 916.05 12.0008 918.91 9.59247C921.769 7.18414 924.679 3.57169 927.539 1.76539C930.399 -0.0408057 933.259 -0.0408059 936.119 1.76539C938.979 3.57169 941.838 7.18414 944.748 8.3883C947.608 9.59246 950.471 8.59758 951.985 7.96371C953.5 7.32984 953.977 6.79389 953.977 6.79389L953.889 16.2153L951.873 16.2153C950.468 16.2153 947.608 16.2153 944.748 16.2153C941.838 16.2153 938.979 16.2153 936.119 16.2153C933.259 16.2153 930.399 16.2153 927.539 16.2153C924.679 16.2153 921.769 16.2153 918.91 16.2153C916.05 16.2153 913.19 16.2153 910.33 16.2153C907.47 16.2153 904.61 16.2153 901.7 16.2153C898.84 16.2153 895.98 16.2153 894.58 16.2153L893.12 16.2153L893.12 7.18415Z" fill="#07ACEC"/>
<path fill-rule="evenodd" clip-rule="evenodd" d="M832.74 7.18415L834.2 5.98C835.72 4.8116 838.46 2.3675 841.32 3.5717C844.23 4.7758 847.09 9.59247 849.95 11.3987C852.81 13.2049 855.67 12.0008 858.53 9.59247C861.39 7.18414 864.3 3.57169 867.16 1.76539C870.02 -0.0408057 872.88 -0.0408059 875.74 1.76539C878.6 3.57169 881.46 7.18414 884.37 8.3883C887.23 9.59246 890.09 8.59758 891.61 7.96371C893.12 7.32984 893.6 6.79389 893.6 6.79389L893.51 16.2153L891.5 16.2153C890.09 16.2153 887.23 16.2153 884.37 16.2153C881.46 16.2153 878.6 16.2153 875.74 16.2153C872.88 16.2153 870.02 16.2153 867.16 16.2153C864.3 16.2153 861.39 16.2153 858.53 16.2153C855.67 16.2153 852.81 16.2153 849.95 16.2153C847.09 16.2153 844.23 16.2153 841.32 16.2153C838.46 16.2153 835.6 16.2153 834.2 16.2153L832.74 16.2153L832.74 7.18415Z" fill="#07ACEC"/>
<path fill-rule="evenodd" clip-rule="evenodd" d="M772.37 7.18415L773.82 5.98C775.34 4.8116 778.09 2.3675 780.95 3.5717C783.86 4.7758 786.72 9.59247 789.58 11.3987C792.44 13.2049 795.3 12.0008 798.16 9.59247C801.02 7.18414 803.93 3.57169 806.79 1.76539C809.65 -0.0408057 812.51 -0.0408059 815.37 1.76539C818.23 3.57169 821.09 7.18414 824 8.3883C826.86 9.59246 829.72 8.59758 831.23 7.96371C832.75 7.32984 833.22 6.79389 833.22 6.79389L833.14 16.2153L831.12 16.2153C829.72 16.2153 826.86 16.2153 824 16.2153C821.09 16.2153 818.23 16.2153 815.37 16.2153C812.51 16.2153 809.65 16.2153 806.79 16.2153C803.93 16.2153 801.02 16.2153 798.16 16.2153C795.3 16.2153 792.44 16.2153 789.58 16.2153C786.72 16.2153 783.86 16.2153 780.95 16.2153C778.09 16.2153 775.23 16.2153 773.82 16.2153L772.37 16.2153L772.37 7.18415Z" fill="#07ACEC"/>
<path fill-rule="evenodd" clip-rule="evenodd" d="M711.99 7.18415L713.45 5.98C714.97 4.8116 717.71 2.3675 720.57 3.5717C723.48 4.7758 726.34 9.59247 729.2 11.3987C732.06 13.2049 734.92 12.0008 737.78 9.59247C740.64 7.18414 743.55 3.57169 746.41 1.76539C749.27 -0.0408057 752.13 -0.0408059 754.99 1.76539C757.85 3.57169 760.71 7.18414 763.62 8.3883C766.48 9.59246 769.34 8.59758 770.86 7.96371C772.37 7.32984 772.85 6.79389 772.85 6.79389L772.76 16.2153L770.74 16.2153C769.34 16.2153 766.48 16.2153 763.62 16.2153C760.71 16.2153 757.85 16.2153 754.99 16.2153C752.13 16.2153 749.27 16.2153 746.41 16.2153C743.55 16.2153 740.64 16.2153 737.78 16.2153C734.92 16.2153 732.06 16.2153 729.2 16.2153C726.34 16.2153 723.48 16.2153 720.57 16.2153C717.71 16.2153 714.85 16.2153 713.45 16.2153L711.99 16.2153L711.99 7.18415Z" fill="#07ACEC"/>
<path fill-rule="evenodd" clip-rule="evenodd" d="M651.61 7.18415L653.07 5.98C654.59 4.8116 657.33 2.3675 660.19 3.5717C663.1 4.7758 665.96 9.59247 668.82 11.3987C671.68 13.2049 674.54 12.0008 677.4 9.59247C680.26 7.18414 683.17 3.57169 686.03 1.76539C688.89 -0.0408057 691.75 -0.0408059 694.61 1.76539C697.47 3.57169 700.33 7.18414 703.24 8.3883C706.1 9.59246 708.96 8.59758 710.48 7.96371C711.99 7.32984 712.47 6.79389 712.47 6.79389L712.38 16.2153L710.37 16.2153C708.96 16.2153 706.1 16.2153 703.24 16.2153C700.33 16.2153 697.47 16.2153 694.61 16.2153C691.75 16.2153 688.89 16.2153 686.03 16.2153C683.17 16.2153 680.26 16.2153 677.4 16.2153C674.54 16.2153 671.68 16.2153 668.82 16.2153C665.96 16.2153 663.1 16.2153 660.19 16.2153C657.33 16.2153 654.47 16.2153 653.07 16.2153L651.61 16.2153L651.61 7.18415Z" fill="#07ACEC"/>
<path fill-rule="evenodd" clip-rule="evenodd" d="M591.24 7.18415L592.69 5.98C594.21 4.8116 596.96 2.3675 599.82 3.5717C602.73 4.7758 605.59 9.59247 608.45 11.3987C611.31 13.2049 614.17 12.0008 617.03 9.59247C619.89 7.18414 622.8 3.57169 625.66 1.76539C628.52 -0.0408057 631.38 -0.0408059 634.24 1.76539C637.1 3.57169 639.96 7.18414 642.87 8.3883C645.73 9.59246 648.59 8.59758 650.1 7.96371C651.62 7.32984 652.09 6.79389 652.09 6.79389L652.01 16.2153L649.99 16.2153C648.59 16.2153 645.73 16.2153 642.87 16.2153C639.96 16.2153 637.1 16.2153 634.24 16.2153C631.38 16.2153 628.52 16.2153 625.66 16.2153C622.8 16.2153 619.89 16.2153 617.03 16.2153C614.17 16.2153 611.31 16.2153 608.45 16.2153C605.59 16.2153 602.73 16.2153 599.82 16.2153C596.96 16.2153 594.1 16.2153 592.69 16.2153L591.24 16.2153L591.24 7.18415Z" fill="#07ACEC"/>
<path fill-rule="evenodd" clip-rule="evenodd" d="M530.86 7.18415L532.32 5.98C533.84 4.8116 536.58 2.3675 539.44 3.5717C542.35 4.7758 545.21 9.59247 548.07 11.3987C550.93 13.2049 553.79 12.0008 556.65 9.59247C559.51 7.18414 562.42 3.57169 565.28 1.76539C568.14 -0.0408057 571 -0.0408059 573.86 1.76539C576.72 3.57169 579.58 7.18414 582.49 8.3883C585.35 9.59246 588.21 8.59758 589.73 7.96371C591.24 7.32984 591.72 6.79389 591.72 6.79389L591.63 16.2153L589.61 16.2153C588.21 16.2153 585.35 16.2153 582.49 16.2153C579.58 16.2153 576.72 16.2153 573.86 16.2153C571 16.2153 568.14 16.2153 565.28 16.2153C562.42 16.2153 559.51 16.2153 556.65 16.2153C553.79 16.2153 550.93 16.2153 548.07 16.2153C545.21 16.2153 542.35 16.2153 539.44 16.2153C536.58 16.2153 533.72 16.2153 532.32 16.2153L530.86 16.2153L530.86 7.18415Z" fill="#07ACEC"/>
<path fill-rule="evenodd" clip-rule="evenodd" d="M470.48 7.18415L471.94 5.98C473.46 4.8116 476.2 2.3675 479.06 3.5717C481.97 4.7758 484.83 9.59247 487.69 11.3987C490.55 13.2049 493.41 12.0008 496.27 9.59247C499.13 7.18414 502.04 3.57169 504.9 1.76539C507.76 -0.0408057 510.62 -0.0408059 513.48 1.76539C516.34 3.57169 519.2 7.18414 522.11 8.3883C524.97 9.59246 527.84 8.59758 529.35 7.96371C530.86 7.32984 531.34 6.79389 531.34 6.79389L531.25 16.2153L529.24 16.2153C527.83 16.2153 524.97 16.2153 522.11 16.2153C519.2 16.2153 516.34 16.2153 513.48 16.2153C510.62 16.2153 507.76 16.2153 504.9 16.2153C502.04 16.2153 499.13 16.2153 496.27 16.2153C493.41 16.2153 490.55 16.2153 487.69 16.2153C484.83 16.2153 481.97 16.2153 479.06 16.2153C476.2 16.2153 473.34 16.2153 471.94 16.2153L470.48 16.2153L470.48 7.18415Z" fill="#07ACEC"/>
<path fill-rule="evenodd" clip-rule="evenodd" d="M410.11 7.18415L411.56 5.98C413.09 4.8116 415.83 2.3675 418.69 3.5717C421.6 4.7758 424.46 9.59247 427.32 11.3987C430.18 13.2049 433.04 12.0008 435.9 9.59247C438.76 7.18414 441.67 3.57169 444.53 1.76539C447.39 -0.0408057 450.25 -0.0408059 453.11 1.76539C455.97 3.57169 458.83 7.18414 461.74 8.3883C464.6 9.59246 467.46 8.59758 468.97 7.96371C470.49 7.32984 470.96 6.79389 470.96 6.79389L470.88 16.2153L468.86 16.2153C467.46 16.2153 464.6 16.2153 461.74 16.2153C458.83 16.2153 455.97 16.2153 453.11 16.2153C450.25 16.2153 447.39 16.2153 444.53 16.2153C441.67 16.2153 438.76 16.2153 435.9 16.2153C433.04 16.2153 430.18 16.2153 427.32 16.2153C424.46 16.2153 421.6 16.2153 418.69 16.2153C415.83 16.2153 412.97 16.2153 411.56 16.2153L410.11 16.2153L410.11 7.18415Z" fill="#07ACEC"/>
<path fill-rule="evenodd" clip-rule="evenodd" d="M349.73 7.18415L351.19 5.98C352.71 4.8116 355.45 2.3675 358.31 3.5717C361.22 4.7758 364.08 9.59247 366.94 11.3987C369.8 13.2049 372.66 12.0008 375.52 9.59247C378.38 7.18414 381.29 3.57169 384.15 1.76539C387.01 -0.0408057 389.87 -0.0408059 392.73 1.76539C395.59 3.57169 398.45 7.18414 401.36 8.3883C404.22 9.59246 407.08 8.59758 408.6 7.96371C410.11 7.32984 410.59 6.79389 410.59 6.79389L410.5 16.2153L408.48 16.2153C407.08 16.2153 404.22 16.2153 401.36 16.2153C398.45 16.2153 395.59 16.2153 392.73 16.2153C389.87 16.2153 387.01 16.2153 384.15 16.2153C381.29 16.2153 378.38 16.2153 375.52 16.2153C372.66 16.2153 369.8 16.2153 366.94 16.2153C364.08 16.2153 361.22 16.2153 358.31 16.2153C355.45 16.2153 352.59 16.2153 351.19 16.2153L349.73 16.2153L349.73 7.18415Z" fill="#07ACEC"/>
<path fill-rule="evenodd" clip-rule="evenodd" d="M289.36 7.18415L290.81 5.98C292.33 4.8116 295.08 2.3675 297.94 3.5717C300.85 4.7758 303.71 9.59247 306.56 11.3987C309.42 13.2049 312.28 12.0008 315.14 9.59247C318 7.18414 320.91 3.57169 323.77 1.76539C326.63 -0.0408057 329.49 -0.0408059 332.35 1.76539C335.21 3.57169 338.07 7.18414 340.98 8.3883C343.84 9.59246 346.71 8.59758 348.22 7.96371C349.73 7.32984 350.21 6.79389 350.21 6.79389L350.12 16.2153L348.11 16.2153C346.7 16.2153 343.84 16.2153 340.98 16.2153C338.07 16.2153 335.21 16.2153 332.35 16.2153C329.49 16.2153 326.63 16.2153 323.77 16.2153C320.91 16.2153 318 16.2153 315.14 16.2153C312.28 16.2153 309.42 16.2153 306.56 16.2153C303.71 16.2153 300.85 16.2153 297.94 16.2153C295.08 16.2153 292.22 16.2153 290.81 16.2153L289.36 16.2153L289.36 7.18415Z" fill="#07ACEC"/>
<path fill-rule="evenodd" clip-rule="evenodd" d="M228.98 7.18415L230.43 5.98C231.96 4.8116 234.7 2.3675 237.56 3.5717C240.47 4.7758 243.33 9.59247 246.19 11.3987C249.05 13.2049 251.91 12.0008 254.77 9.59247C257.63 7.18414 260.54 3.57169 263.4 1.76539C266.26 -0.0408057 269.12 -0.0408059 271.98 1.76539C274.84 3.57169 277.7 7.18414 280.61 8.3883C283.47 9.59246 286.33 8.59758 287.84 7.96371C289.36 7.32984 289.84 6.79389 289.84 6.79389L289.75 16.2153L287.73 16.2153C286.33 16.2153 283.47 16.2153 280.61 16.2153C277.7 16.2153 274.84 16.2153 271.98 16.2153C269.12 16.2153 266.26 16.2153 263.4 16.2153C260.54 16.2153 257.63 16.2153 254.77 16.2153C251.91 16.2153 249.05 16.2153 246.19 16.2153C243.33 16.2153 240.47 16.2153 237.56 16.2153C234.7 16.2153 231.84 16.2153 230.43 16.2153L228.98 16.2153L228.98 7.18415Z" fill="#07ACEC"/>
<path fill-rule="evenodd" clip-rule="evenodd" d="M168.6 7.18415L170.06 5.98C171.58 4.8116 174.32 2.3675 177.18 3.5717C180.09 4.7758 182.95 9.59247 185.81 11.3987C188.67 13.2049 191.53 12.0008 194.39 9.59247C197.25 7.18414 200.16 3.57169 203.02 1.76539C205.88 -0.0408057 208.74 -0.0408059 211.6 1.76539C214.46 3.57169 217.32 7.18414 220.23 8.3883C223.09 9.59246 225.95 8.59758 227.47 7.96371C228.98 7.32984 229.46 6.79389 229.46 6.79389L229.37 16.2153L227.36 16.2153C225.95 16.2153 223.09 16.2153 220.23 16.2153C217.32 16.2153 214.46 16.2153 211.6 16.2153C208.74 16.2153 205.88 16.2153 203.02 16.2153C200.16 16.2153 197.25 16.2153 194.39 16.2153C191.53 16.2153 188.67 16.2153 185.81 16.2153C182.95 16.2153 180.09 16.2153 177.18 16.2153C174.32 16.2153 171.46 16.2153 170.06 16.2153L168.6 16.2153L168.6 7.18415Z" fill="#07ACEC"/>
<path fill-rule="evenodd" clip-rule="evenodd" d="M108.23 7.18415L109.68 5.98C111.2 4.8116 113.95 2.3675 116.81 3.5717C119.72 4.7758 122.58 9.59247 125.44 11.3987C128.3 13.2049 131.16 12.0008 134.02 9.59247C136.88 7.18414 139.79 3.57169 142.64 1.76539C145.5 -0.0408057 148.36 -0.0408059 151.22 1.76539C154.08 3.57169 156.94 7.18414 159.85 8.3883C162.71 9.59246 165.58 8.59758 167.09 7.96371C168.61 7.32984 169.08 6.79389 169.08 6.79389L169 16.2153L166.98 16.2153C165.57 16.2153 162.71 16.2153 159.85 16.2153C156.94 16.2153 154.08 16.2153 151.22 16.2153C148.36 16.2153 145.5 16.2153 142.64 16.2153C139.79 16.2153 136.88 16.2153 134.02 16.2153C131.16 16.2153 128.3 16.2153 125.44 16.2153C122.58 16.2153 119.72 16.2153 116.81 16.2153C113.95 16.2153 111.09 16.2153 109.68 16.2153L108.23 16.2153L108.23 7.18415Z" fill="#07ACEC"/>
<path fill-rule="evenodd" clip-rule="evenodd" d="M47.85 7.18415L49.3 5.98C50.83 4.8116 53.5701 2.3675 56.4301 3.5717C59.3401 4.7758 62.2001 9.59247 65.0601 11.3987C67.9201 13.2049 70.78 12.0008 73.64 9.59247C76.5 7.18414 79.41 3.57169 82.27 1.76539C85.13 -0.0408057 87.99 -0.0408059 90.85 1.76539C93.71 3.57169 96.57 7.18414 99.48 8.3883C102.34 9.59246 105.2 8.59758 106.71 7.96371C108.23 7.32984 108.71 6.79389 108.71 6.79389L108.62 16.2153L106.6 16.2153C105.2 16.2153 102.34 16.2153 99.48 16.2153C96.57 16.2153 93.71 16.2153 90.85 16.2153C87.99 16.2153 85.13 16.2153 82.27 16.2153C79.41 16.2153 76.5 16.2153 73.64 16.2153C70.78 16.2153 67.9201 16.2153 65.0601 16.2153C62.2001 16.2153 59.3401 16.2153 56.4301 16.2153C53.5701 16.2153 50.71 16.2153 49.3 16.2153L47.85 16.2153L47.85 7.18415Z" fill="#07ACEC"/>
<path fill-rule="evenodd" clip-rule="evenodd" d="M-12.5299 7.18415L-11.0698 5.98C-9.54983 4.8116 -6.80983 2.3675 -3.94983 3.5717C-1.03983 4.7758 1.82018 9.59247 4.68018 11.3987C7.54018 13.2049 10.4001 12.0008 13.2601 9.59247C16.1201 7.18414 19.0301 3.57169 21.8901 1.76539C24.7501 -0.0408057 27.6101 -0.0408059 30.4701 1.76539C33.3301 3.57169 36.1901 7.18414 39.1001 8.3883C41.9601 9.59246 44.8201 8.59758 46.3401 7.96371C47.8501 7.32984 48.3301 6.79389 48.3301 6.79389L48.2401 16.2153L46.2301 16.2153C44.8201 16.2153 41.9601 16.2153 39.1001 16.2153C36.1901 16.2153 33.3301 16.2153 30.4701 16.2153C27.6101 16.2153 24.7501 16.2153 21.8901 16.2153C19.0301 16.2153 16.1201 16.2153 13.2601 16.2153C10.4001 16.2153 7.54018 16.2153 4.68018 16.2153C1.82018 16.2153 -1.03983 16.2153 -3.94983 16.2153C-6.80983 16.2153 -9.66982 16.2153 -11.0698 16.2153L-12.5299 16.2153L-12.5299 7.18415Z" fill="#07ACEC"/>
</g>
<defs>
<clipPath id="clip0_553_3010">
<rect width="1920" height="17" fill="white" transform="translate(1920 17) rotate(180)"/>
</clipPath>
</defs>
</svg>
