<svg width="121" height="16" viewBox="0 0 121 16" fill="none" xmlns="http://www.w3.org/2000/svg">
<path fill-rule="evenodd" clip-rule="evenodd" d="M60.208 9.03119L58.753 10.2354C57.3481 11.4395 54.4883 13.8478 51.6284 12.6437C48.7183 11.4395 45.8584 6.62287 42.9986 4.81664C40.1387 3.0104 37.2788 4.21456 34.4189 6.62287C31.5591 9.03119 28.649 12.6437 25.7891 14.4499C22.9293 16.2561 20.0694 16.2561 17.2095 14.4499C14.3496 12.6437 11.4897 9.03119 8.57969 7.82703C5.71981 6.62287 2.85994 7.82703 1.45508 8.42911L5.51715e-05 9.03119V0H1.45508C2.85994 0 5.71981 0 8.57969 0C11.4897 0 14.3496 0 17.2095 0C20.0694 0 22.9293 0 25.7891 0C28.649 0 31.5591 0 34.4189 0C37.2788 0 40.1387 0 42.9986 0C45.8584 0 48.7183 0 51.6284 0C54.4883 0 57.3481 0 58.753 0H60.208V9.03119Z" fill="#07ACEC"/>
<path fill-rule="evenodd" clip-rule="evenodd" d="M120.208 9.03119L118.753 10.2354C117.348 11.4395 114.488 13.8478 111.628 12.6437C108.718 11.4395 105.858 6.62287 102.999 4.81664C100.139 3.0104 97.2788 4.21456 94.4189 6.62287C91.5591 9.03119 88.649 12.6437 85.7891 14.4499C82.9293 16.2561 80.0694 16.2561 77.2095 14.4499C74.3496 12.6437 71.4897 9.03119 68.5797 7.82703C65.7198 6.62287 62.8599 7.82703 61.4551 8.42911L60.0001 9.03119V0H61.4551C62.8599 0 65.7198 0 68.5797 0C71.4897 0 74.3496 0 77.2095 0C80.0694 0 82.9293 0 85.7891 0C88.649 0 91.5591 0 94.4189 0C97.2788 0 100.139 0 102.999 0C105.858 0 108.718 0 111.628 0C114.488 0 117.348 0 118.753 0H120.208V9.03119Z" fill="#07ACEC"/>
</svg>
