<svg width="1920" height="17" viewBox="0 0 1920 17" fill="none" xmlns="http://www.w3.org/2000/svg">
<path fill-rule="evenodd" clip-rule="evenodd" d="M1920 9.5864L1918.54 10.7906C1917.14 11.9947 1914.28 14.403 1911.42 13.1989C1908.51 11.9947 1905.65 7.17808 1902.79 5.37184C1899.93 3.5656 1897.07 4.76976 1894.21 7.17808C1891.35 9.5864 1888.44 13.1989 1885.58 15.0051C1882.72 16.8114 1879.86 16.8114 1877 15.0051C1874.14 13.1989 1871.28 9.5864 1868.37 8.38224C1865.51 7.17808 1862.65 8.38224 1861.25 8.98432L1859.79 9.5864V0.555206H1861.25C1862.65 0.555206 1865.51 0.555206 1868.37 0.555206C1871.28 0.555206 1874.14 0.555206 1877 0.555206C1879.86 0.555206 1882.72 0.555206 1885.58 0.555206C1888.44 0.555206 1891.35 0.555206 1894.21 0.555206C1897.07 0.555206 1899.93 0.555206 1902.79 0.555206C1905.65 0.555206 1908.51 0.555206 1911.42 0.555206C1914.28 0.555206 1917.14 0.555206 1918.54 0.555206H1920V9.5864Z" fill="#07ACEC"/>
<path fill-rule="evenodd" clip-rule="evenodd" d="M956.827 9.5864L955.372 10.7906C953.967 11.9947 951.108 14.403 948.248 13.1989C945.338 11.9947 942.478 7.17808 939.618 5.37184C936.758 3.5656 933.898 4.76976 931.038 7.17808C928.178 9.5864 925.268 13.1989 922.408 15.0051C919.549 16.8114 916.689 16.8114 913.829 15.0051C910.969 13.1989 908.109 9.5864 905.199 8.38224C902.339 7.17808 899.479 8.38224 898.074 8.98432L896.619 9.5864V0.555206H898.074C899.479 0.555206 902.339 0.555206 905.199 0.555206C908.109 0.555206 910.969 0.555206 913.829 0.555206C916.689 0.555206 919.549 0.555206 922.408 0.555206C925.268 0.555206 928.178 0.555206 931.038 0.555206C933.898 0.555206 936.758 0.555206 939.618 0.555206C942.478 0.555206 945.338 0.555206 948.248 0.555206C951.108 0.555206 953.967 0.555206 955.372 0.555206H956.827V9.5864Z" fill="#07ACEC"/>
<path fill-rule="evenodd" clip-rule="evenodd" d="M1438.34 9.5864L1436.88 10.7906C1435.48 11.9947 1432.62 14.403 1429.76 13.1989C1426.85 11.9947 1423.99 7.17808 1421.13 5.37184C1418.27 3.5656 1415.41 4.76976 1412.55 7.17808C1409.69 9.5864 1406.78 13.1989 1403.92 15.0051C1401.06 16.8114 1398.2 16.8114 1395.34 15.0051C1392.48 13.1989 1389.62 9.5864 1386.71 8.38224C1383.85 7.17808 1380.99 8.38224 1379.58 8.98432L1378.13 9.5864V0.555206H1379.58C1380.99 0.555206 1383.85 0.555206 1386.71 0.555206C1389.62 0.555206 1392.48 0.555206 1395.34 0.555206C1398.2 0.555206 1401.06 0.555206 1403.92 0.555206C1406.78 0.555206 1409.69 0.555206 1412.55 0.555206C1415.41 0.555206 1418.27 0.555206 1421.13 0.555206C1423.99 0.555206 1426.85 0.555206 1429.76 0.555206C1432.62 0.555206 1435.48 0.555206 1436.88 0.555206H1438.34V9.5864Z" fill="#07ACEC"/>
<path fill-rule="evenodd" clip-rule="evenodd" d="M475.164 9.5864L473.709 10.7906C472.304 11.9947 469.444 14.403 466.584 13.1989C463.674 11.9947 460.814 7.17808 457.954 5.37184C455.095 3.5656 452.235 4.76976 449.375 7.17808C446.515 9.5864 443.605 13.1989 440.745 15.0051C437.885 16.8114 435.025 16.8114 432.165 15.0051C429.305 13.1989 426.446 9.5864 423.535 8.38224C420.676 7.17808 417.816 8.38224 416.411 8.98432L414.956 9.5864V0.555206H416.411C417.816 0.555206 420.676 0.555206 423.535 0.555206C426.446 0.555206 429.305 0.555206 432.165 0.555206C435.025 0.555206 437.885 0.555206 440.745 0.555206C443.605 0.555206 446.515 0.555206 449.375 0.555206C452.235 0.555206 455.095 0.555206 457.954 0.555206C460.814 0.555206 463.674 0.555206 466.584 0.555206C469.444 0.555206 472.304 0.555206 473.709 0.555206H475.164V9.5864Z" fill="#07ACEC"/>
<path fill-rule="evenodd" clip-rule="evenodd" d="M1799.58 9.5864L1798.13 10.7906C1796.72 11.9947 1793.86 14.403 1791 13.1989C1788.09 11.9947 1785.23 7.17808 1782.37 5.37184C1779.51 3.5656 1776.65 4.76976 1773.8 7.17808C1770.94 9.5864 1768.03 13.1989 1765.17 15.0051C1762.31 16.8114 1759.45 16.8114 1756.59 15.0051C1753.73 13.1989 1750.87 9.5864 1747.96 8.38224C1745.1 7.17808 1742.24 8.38224 1740.83 8.98432L1739.38 9.5864V0.555206H1740.83C1742.24 0.555206 1745.1 0.555206 1747.96 0.555206C1750.87 0.555206 1753.73 0.555206 1756.59 0.555206C1759.45 0.555206 1762.31 0.555206 1765.17 0.555206C1768.03 0.555206 1770.94 0.555206 1773.8 0.555206C1776.65 0.555206 1779.51 0.555206 1782.37 0.555206C1785.23 0.555206 1788.09 0.555206 1791 0.555206C1793.86 0.555206 1796.72 0.555206 1798.13 0.555206H1799.58V9.5864Z" fill="#07ACEC"/>
<path fill-rule="evenodd" clip-rule="evenodd" d="M836.411 9.5864L834.956 10.7906C833.551 11.9947 830.692 14.403 827.832 13.1989C824.922 11.9947 822.062 7.17808 819.202 5.37184C816.342 3.5656 813.482 4.76976 810.622 7.17808C807.762 9.5864 804.852 13.1989 801.993 15.0051C799.133 16.8114 796.273 16.8114 793.413 15.0051C790.553 13.1989 787.693 9.5864 784.783 8.38224C781.923 7.17808 779.063 8.38224 777.658 8.98432L776.203 9.5864V0.555206H777.658C779.063 0.555206 781.923 0.555206 784.783 0.555206C787.693 0.555206 790.553 0.555206 793.413 0.555206C796.273 0.555206 799.133 0.555206 801.993 0.555206C804.852 0.555206 807.762 0.555206 810.622 0.555206C813.482 0.555206 816.342 0.555206 819.202 0.555206C822.062 0.555206 824.922 0.555206 827.832 0.555206C830.692 0.555206 833.551 0.555206 834.956 0.555206H836.411V9.5864Z" fill="#07ACEC"/>
<path fill-rule="evenodd" clip-rule="evenodd" d="M1317.92 9.5864L1316.47 10.7906C1315.06 11.9947 1312.2 14.403 1309.34 13.1989C1306.43 11.9947 1303.57 7.17808 1300.71 5.37184C1297.85 3.5656 1294.99 4.76976 1292.13 7.17808C1289.27 9.5864 1286.36 13.1989 1283.5 15.0051C1280.64 16.8114 1277.78 16.8114 1274.92 15.0051C1272.06 13.1989 1269.2 9.5864 1266.29 8.38224C1263.43 7.17808 1260.57 8.38224 1259.17 8.98432L1257.71 9.5864V0.555206H1259.17C1260.57 0.555206 1263.43 0.555206 1266.29 0.555206C1269.2 0.555206 1272.06 0.555206 1274.92 0.555206C1277.78 0.555206 1280.64 0.555206 1283.5 0.555206C1286.36 0.555206 1289.27 0.555206 1292.13 0.555206C1294.99 0.555206 1297.85 0.555206 1300.71 0.555206C1303.57 0.555206 1306.43 0.555206 1309.34 0.555206C1312.2 0.555206 1315.06 0.555206 1316.47 0.555206H1317.92V9.5864Z" fill="#07ACEC"/>
<path fill-rule="evenodd" clip-rule="evenodd" d="M354.748 9.5864L353.293 10.7906C351.888 11.9947 349.028 14.403 346.168 13.1989C343.258 11.9947 340.398 7.17808 337.538 5.37184C334.679 3.5656 331.819 4.76976 328.959 7.17808C326.099 9.5864 323.189 13.1989 320.329 15.0051C317.469 16.8114 314.609 16.8114 311.749 15.0051C308.89 13.1989 306.03 9.5864 303.12 8.38224C300.26 7.17808 297.4 8.38224 295.995 8.98432L294.54 9.5864V0.555206H295.995C297.4 0.555206 300.26 0.555206 303.12 0.555206C306.03 0.555206 308.89 0.555206 311.749 0.555206C314.609 0.555206 317.469 0.555206 320.329 0.555206C323.189 0.555206 326.099 0.555206 328.959 0.555206C331.819 0.555206 334.679 0.555206 337.538 0.555206C340.398 0.555206 343.258 0.555206 346.168 0.555206C349.028 0.555206 351.888 0.555206 353.293 0.555206H354.748V9.5864Z" fill="#07ACEC"/>
<path fill-rule="evenodd" clip-rule="evenodd" d="M1679.17 9.5864L1677.71 10.7906C1676.31 11.9947 1673.45 14.403 1670.59 13.1989C1667.68 11.9947 1664.82 7.17808 1661.96 5.37184C1659.1 3.5656 1656.24 4.76976 1653.38 7.17808C1650.52 9.5864 1647.61 13.1989 1644.75 15.0051C1641.89 16.8114 1639.03 16.8114 1636.17 15.0051C1633.31 13.1989 1630.45 9.5864 1627.54 8.38224C1624.68 7.17808 1621.82 8.38224 1620.42 8.98432L1618.96 9.5864V0.555206H1620.42C1621.82 0.555206 1624.68 0.555206 1627.54 0.555206C1630.45 0.555206 1633.31 0.555206 1636.17 0.555206C1639.03 0.555206 1641.89 0.555206 1644.75 0.555206C1647.61 0.555206 1650.52 0.555206 1653.38 0.555206C1656.24 0.555206 1659.1 0.555206 1661.96 0.555206C1664.82 0.555206 1667.68 0.555206 1670.59 0.555206C1673.45 0.555206 1676.31 0.555206 1677.71 0.555206H1679.17V9.5864Z" fill="#07ACEC"/>
<path fill-rule="evenodd" clip-rule="evenodd" d="M715.995 9.5864L714.54 10.7906C713.136 11.9947 710.276 14.403 707.416 13.1989C704.506 11.9947 701.646 7.17808 698.786 5.37184C695.926 3.5656 693.066 4.76976 690.206 7.17808C687.347 9.5864 684.436 13.1989 681.577 15.0051C678.717 16.8114 675.857 16.8114 672.997 15.0051C670.137 13.1989 667.277 9.5864 664.367 8.38224C661.507 7.17808 658.647 8.38224 657.243 8.98432L655.788 9.5864V0.555206H657.243C658.647 0.555206 661.507 0.555206 664.367 0.555206C667.277 0.555206 670.137 0.555206 672.997 0.555206C675.857 0.555206 678.717 0.555206 681.577 0.555206C684.436 0.555206 687.347 0.555206 690.206 0.555206C693.066 0.555206 695.926 0.555206 698.786 0.555206C701.646 0.555206 704.506 0.555206 707.416 0.555206C710.276 0.555206 713.136 0.555206 714.54 0.555206H715.995V9.5864Z" fill="#07ACEC"/>
<path fill-rule="evenodd" clip-rule="evenodd" d="M1197.5 9.5864L1196.05 10.7906C1194.64 11.9947 1191.78 14.403 1188.92 13.1989C1186.01 11.9947 1183.16 7.17808 1180.3 5.37184C1177.44 3.5656 1174.58 4.76976 1171.72 7.17808C1168.86 9.5864 1165.95 13.1989 1163.09 15.0051C1160.23 16.8114 1157.37 16.8114 1154.51 15.0051C1151.65 13.1989 1148.79 9.5864 1145.88 8.38224C1143.02 7.17808 1140.16 8.38224 1138.75 8.98432L1137.3 9.5864V0.555206H1138.75C1140.16 0.555206 1143.02 0.555206 1145.88 0.555206C1148.79 0.555206 1151.65 0.555206 1154.51 0.555206C1157.37 0.555206 1160.23 0.555206 1163.09 0.555206C1165.95 0.555206 1168.86 0.555206 1171.72 0.555206C1174.58 0.555206 1177.44 0.555206 1180.3 0.555206C1183.16 0.555206 1186.01 0.555206 1188.92 0.555206C1191.78 0.555206 1194.64 0.555206 1196.05 0.555206H1197.5V9.5864Z" fill="#07ACEC"/>
<path fill-rule="evenodd" clip-rule="evenodd" d="M234.332 9.5864L232.877 10.7906C231.472 11.9947 228.612 14.403 225.752 13.1989C222.842 11.9947 219.982 7.17808 217.122 5.37184C214.262 3.5656 211.403 4.76976 208.543 7.17808C205.683 9.5864 202.773 13.1989 199.913 15.0051C197.053 16.8114 194.193 16.8114 191.333 15.0051C188.473 13.1989 185.614 9.5864 182.703 8.38224C179.844 7.17808 176.984 8.38224 175.579 8.98432L174.124 9.5864V0.555206H175.579C176.984 0.555206 179.844 0.555206 182.703 0.555206C185.614 0.555206 188.473 0.555206 191.333 0.555206C194.193 0.555206 197.053 0.555206 199.913 0.555206C202.773 0.555206 205.683 0.555206 208.543 0.555206C211.403 0.555206 214.262 0.555206 217.122 0.555206C219.982 0.555206 222.842 0.555206 225.752 0.555206C228.612 0.555206 231.472 0.555206 232.877 0.555206H234.332V9.5864Z" fill="#07ACEC"/>
<path fill-rule="evenodd" clip-rule="evenodd" d="M1558.75 9.5864L1557.3 10.7906C1555.89 11.9947 1553.03 14.403 1550.17 13.1989C1547.26 11.9947 1544.4 7.17808 1541.54 5.37184C1538.68 3.5656 1535.82 4.76976 1532.96 7.17808C1530.1 9.5864 1527.19 13.1989 1524.33 15.0051C1521.47 16.8114 1518.61 16.8114 1515.75 15.0051C1512.89 13.1989 1510.03 9.5864 1507.12 8.38224C1504.26 7.17808 1501.4 8.38224 1500 8.98432L1498.54 9.5864V0.555206H1500C1501.4 0.555206 1504.26 0.555206 1507.12 0.555206C1510.03 0.555206 1512.89 0.555206 1515.75 0.555206C1518.61 0.555206 1521.47 0.555206 1524.33 0.555206C1527.19 0.555206 1530.1 0.555206 1532.96 0.555206C1535.82 0.555206 1538.68 0.555206 1541.54 0.555206C1544.4 0.555206 1547.26 0.555206 1550.17 0.555206C1553.03 0.555206 1555.89 0.555206 1557.3 0.555206H1558.75V9.5864Z" fill="#07ACEC"/>
<path fill-rule="evenodd" clip-rule="evenodd" d="M595.58 9.5864L594.125 10.7906C592.72 11.9947 589.86 14.403 587 13.1989C584.09 11.9947 581.23 7.17808 578.37 5.37184C575.51 3.5656 572.65 4.76976 569.791 7.17808C566.931 9.5864 564.021 13.1989 561.161 15.0051C558.301 16.8114 555.441 16.8114 552.581 15.0051C549.721 13.1989 546.861 9.5864 543.951 8.38224C541.091 7.17808 538.232 8.38224 536.827 8.98432L535.372 9.5864V0.555206H536.827C538.232 0.555206 541.091 0.555206 543.951 0.555206C546.861 0.555206 549.721 0.555206 552.581 0.555206C555.441 0.555206 558.301 0.555206 561.161 0.555206C564.021 0.555206 566.931 0.555206 569.791 0.555206C572.65 0.555206 575.51 0.555206 578.37 0.555206C581.23 0.555206 584.09 0.555206 587 0.555206C589.86 0.555206 592.72 0.555206 594.125 0.555206H595.58V9.5864Z" fill="#07ACEC"/>
<path fill-rule="evenodd" clip-rule="evenodd" d="M1077.09 9.5864L1075.63 10.7906C1074.23 11.9947 1071.37 14.403 1068.51 13.1989C1065.6 11.9947 1062.74 7.17808 1059.88 5.37184C1057.02 3.5656 1054.16 4.76976 1051.3 7.17808C1048.44 9.5864 1045.53 13.1989 1042.67 15.0051C1039.81 16.8114 1036.95 16.8114 1034.09 15.0051C1031.23 13.1989 1028.37 9.5864 1025.46 8.38224C1022.6 7.17808 1019.74 8.38224 1018.34 8.98432L1016.88 9.5864V0.555206H1018.34C1019.74 0.555206 1022.6 0.555206 1025.46 0.555206C1028.37 0.555206 1031.23 0.555206 1034.09 0.555206C1036.95 0.555206 1039.81 0.555206 1042.67 0.555206C1045.53 0.555206 1048.44 0.555206 1051.3 0.555206C1054.16 0.555206 1057.02 0.555206 1059.88 0.555206C1062.74 0.555206 1065.6 0.555206 1068.51 0.555206C1071.37 0.555206 1074.23 0.555206 1075.63 0.555206H1077.09V9.5864Z" fill="#07ACEC"/>
<path fill-rule="evenodd" clip-rule="evenodd" d="M113.916 9.5864L112.461 10.7906C111.056 11.9947 108.196 14.403 105.336 13.1989C102.426 11.9947 99.5663 7.17808 96.7065 5.37184C93.8466 3.5656 90.9867 4.76976 88.1268 7.17808C85.2669 9.5864 82.3569 13.1989 79.497 15.0051C76.6371 16.8114 73.7773 16.8114 70.9174 15.0051C68.0575 13.1989 65.1976 9.5864 62.2876 8.38224C59.4277 7.17808 56.5678 8.38224 55.163 8.98432L53.7079 9.5864V0.555206H55.163C56.5678 0.555206 59.4277 0.555206 62.2876 0.555206C65.1976 0.555206 68.0575 0.555206 70.9174 0.555206C73.7773 0.555206 76.6371 0.555206 79.497 0.555206C82.3569 0.555206 85.2669 0.555206 88.1268 0.555206C90.9867 0.555206 93.8466 0.555206 96.7065 0.555206C99.5663 0.555206 102.426 0.555206 105.336 0.555206C108.196 0.555206 111.056 0.555206 112.461 0.555206H113.916V9.5864Z" fill="#07ACEC"/>
<path fill-rule="evenodd" clip-rule="evenodd" d="M1859.79 9.5864L1858.34 10.7906C1856.93 11.9947 1854.07 14.403 1851.21 13.1989C1848.3 11.9947 1845.44 7.17808 1842.58 5.37184C1839.72 3.5656 1836.86 4.76976 1834 7.17808C1831.14 9.5864 1828.23 13.1989 1825.37 15.0051C1822.51 16.8114 1819.65 16.8114 1816.79 15.0051C1813.93 13.1989 1811.07 9.5864 1808.16 8.38224C1805.3 7.17808 1802.44 8.38224 1801.04 8.98432L1799.58 9.5864V0.555206H1801.04C1802.44 0.555206 1805.3 0.555206 1808.16 0.555206C1811.07 0.555206 1813.93 0.555206 1816.79 0.555206C1819.65 0.555206 1822.51 0.555206 1825.37 0.555206C1828.23 0.555206 1831.14 0.555206 1834 0.555206C1836.86 0.555206 1839.72 0.555206 1842.58 0.555206C1845.44 0.555206 1848.3 0.555206 1851.21 0.555206C1854.07 0.555206 1856.93 0.555206 1858.34 0.555206H1859.79V9.5864Z" fill="#07ACEC"/>
<path fill-rule="evenodd" clip-rule="evenodd" d="M896.619 9.5864L895.164 10.7906C893.76 11.9947 890.9 14.403 888.04 13.1989C885.13 11.9947 882.27 7.17808 879.41 5.37184C876.55 3.5656 873.69 4.76976 870.83 7.17808C867.97 9.5864 865.06 13.1989 862.201 15.0051C859.341 16.8114 856.481 16.8114 853.621 15.0051C850.761 13.1989 847.901 9.5864 844.991 8.38224C842.131 7.17808 839.271 8.38224 837.866 8.98432L836.411 9.5864V0.555206H837.866C839.271 0.555206 842.131 0.555206 844.991 0.555206C847.901 0.555206 850.761 0.555206 853.621 0.555206C856.481 0.555206 859.341 0.555206 862.201 0.555206C865.06 0.555206 867.97 0.555206 870.83 0.555206C873.69 0.555206 876.55 0.555206 879.41 0.555206C882.27 0.555206 885.13 0.555206 888.04 0.555206C890.9 0.555206 893.76 0.555206 895.164 0.555206H896.619V9.5864Z" fill="#07ACEC"/>
<path fill-rule="evenodd" clip-rule="evenodd" d="M1378.13 9.5864L1376.67 10.7906C1375.27 11.9947 1372.41 14.403 1369.55 13.1989C1366.64 11.9947 1363.78 7.17808 1360.92 5.37184C1358.06 3.5656 1355.2 4.76976 1352.34 7.17808C1349.48 9.5864 1346.57 13.1989 1343.71 15.0051C1340.85 16.8114 1337.99 16.8114 1335.13 15.0051C1332.27 13.1989 1329.41 9.5864 1326.5 8.38224C1323.64 7.17808 1320.78 8.38224 1319.38 8.98432L1317.92 9.5864V0.555206H1319.38C1320.78 0.555206 1323.64 0.555206 1326.5 0.555206C1329.41 0.555206 1332.27 0.555206 1335.13 0.555206C1337.99 0.555206 1340.85 0.555206 1343.71 0.555206C1346.57 0.555206 1349.48 0.555206 1352.34 0.555206C1355.2 0.555206 1358.06 0.555206 1360.92 0.555206C1363.78 0.555206 1366.64 0.555206 1369.55 0.555206C1372.41 0.555206 1375.27 0.555206 1376.67 0.555206H1378.13V9.5864Z" fill="#07ACEC"/>
<path fill-rule="evenodd" clip-rule="evenodd" d="M414.956 9.5864L413.501 10.7906C412.096 11.9947 409.236 14.403 406.376 13.1989C403.466 11.9947 400.606 7.17808 397.746 5.37184C394.886 3.5656 392.027 4.76976 389.167 7.17808C386.307 9.5864 383.397 13.1989 380.537 15.0051C377.677 16.8114 374.817 16.8114 371.957 15.0051C369.097 13.1989 366.238 9.5864 363.327 8.38224C360.468 7.17808 357.608 8.38224 356.203 8.98432L354.748 9.5864V0.555206H356.203C357.608 0.555206 360.468 0.555206 363.327 0.555206C366.238 0.555206 369.097 0.555206 371.957 0.555206C374.817 0.555206 377.677 0.555206 380.537 0.555206C383.397 0.555206 386.307 0.555206 389.167 0.555206C392.027 0.555206 394.886 0.555206 397.746 0.555206C400.606 0.555206 403.466 0.555206 406.376 0.555206C409.236 0.555206 412.096 0.555206 413.501 0.555206H414.956V9.5864Z" fill="#07ACEC"/>
<path fill-rule="evenodd" clip-rule="evenodd" d="M1739.38 9.5864L1737.92 10.7906C1736.52 11.9947 1733.66 14.403 1730.8 13.1989C1727.89 11.9947 1725.03 7.17808 1722.17 5.37184C1719.31 3.5656 1716.45 4.76976 1713.59 7.17808C1710.73 9.5864 1707.82 13.1989 1704.96 15.0051C1702.1 16.8114 1699.24 16.8114 1696.38 15.0051C1693.52 13.1989 1690.66 9.5864 1687.75 8.38224C1684.89 7.17808 1682.03 8.38224 1680.62 8.98432L1679.17 9.5864V0.555206H1680.62C1682.03 0.555206 1684.89 0.555206 1687.75 0.555206C1690.66 0.555206 1693.52 0.555206 1696.38 0.555206C1699.24 0.555206 1702.1 0.555206 1704.96 0.555206C1707.82 0.555206 1710.73 0.555206 1713.59 0.555206C1716.45 0.555206 1719.31 0.555206 1722.17 0.555206C1725.03 0.555206 1727.89 0.555206 1730.8 0.555206C1733.66 0.555206 1736.52 0.555206 1737.92 0.555206H1739.38V9.5864Z" fill="#07ACEC"/>
<path fill-rule="evenodd" clip-rule="evenodd" d="M776.203 9.5864L774.748 10.7906C773.344 11.9947 770.484 14.403 767.624 13.1989C764.714 11.9947 761.854 7.17808 758.994 5.37184C756.134 3.5656 753.274 4.76976 750.414 7.17808C747.555 9.5864 744.644 13.1989 741.785 15.0051C738.925 16.8114 736.065 16.8114 733.205 15.0051C730.345 13.1989 727.485 9.5864 724.575 8.38224C721.715 7.17808 718.855 8.38224 717.451 8.98432L715.996 9.5864V0.555206H717.451C718.855 0.555206 721.715 0.555206 724.575 0.555206C727.485 0.555206 730.345 0.555206 733.205 0.555206C736.065 0.555206 738.925 0.555206 741.785 0.555206C744.644 0.555206 747.555 0.555206 750.414 0.555206C753.274 0.555206 756.134 0.555206 758.994 0.555206C761.854 0.555206 764.714 0.555206 767.624 0.555206C770.484 0.555206 773.344 0.555206 774.748 0.555206H776.203V9.5864Z" fill="#07ACEC"/>
<path fill-rule="evenodd" clip-rule="evenodd" d="M1257.71 9.5864L1256.26 10.7906C1254.85 11.9947 1251.99 14.403 1249.13 13.1989C1246.22 11.9947 1243.36 7.17808 1240.5 5.37184C1237.64 3.5656 1234.78 4.76976 1231.92 7.17808C1229.06 9.5864 1226.15 13.1989 1223.29 15.0051C1220.43 16.8114 1217.57 16.8114 1214.71 15.0051C1211.85 13.1989 1208.99 9.5864 1206.08 8.38224C1203.22 7.17808 1200.36 8.38224 1198.96 8.98432L1197.5 9.5864V0.555206H1198.96C1200.36 0.555206 1203.22 0.555206 1206.08 0.555206C1208.99 0.555206 1211.85 0.555206 1214.71 0.555206C1217.57 0.555206 1220.43 0.555206 1223.29 0.555206C1226.15 0.555206 1229.06 0.555206 1231.92 0.555206C1234.78 0.555206 1237.64 0.555206 1240.5 0.555206C1243.36 0.555206 1246.22 0.555206 1249.13 0.555206C1251.99 0.555206 1254.85 0.555206 1256.26 0.555206H1257.71V9.5864Z" fill="#07ACEC"/>
<path fill-rule="evenodd" clip-rule="evenodd" d="M294.54 9.5864L293.085 10.7906C291.68 11.9947 288.82 14.403 285.96 13.1989C283.05 11.9947 280.19 7.17808 277.33 5.37184C274.47 3.5656 271.611 4.76976 268.751 7.17808C265.891 9.5864 262.981 13.1989 260.121 15.0051C257.261 16.8114 254.401 16.8114 251.541 15.0051C248.681 13.1989 245.822 9.5864 242.911 8.38224C240.052 7.17808 237.192 8.38224 235.787 8.98432L234.332 9.5864V0.555206H235.787C237.192 0.555206 240.052 0.555206 242.911 0.555206C245.822 0.555206 248.681 0.555206 251.541 0.555206C254.401 0.555206 257.261 0.555206 260.121 0.555206C262.981 0.555206 265.891 0.555206 268.751 0.555206C271.611 0.555206 274.47 0.555206 277.33 0.555206C280.19 0.555206 283.05 0.555206 285.96 0.555206C288.82 0.555206 291.68 0.555206 293.085 0.555206H294.54V9.5864Z" fill="#07ACEC"/>
<path fill-rule="evenodd" clip-rule="evenodd" d="M1618.96 9.5864L1617.51 10.7906C1616.1 11.9947 1613.24 14.403 1610.38 13.1989C1607.47 11.9947 1604.61 7.17808 1601.75 5.37184C1598.89 3.5656 1596.03 4.76976 1593.17 7.17808C1590.31 9.5864 1587.4 13.1989 1584.54 15.0051C1581.68 16.8114 1578.82 16.8114 1575.96 15.0051C1573.1 13.1989 1570.24 9.5864 1567.33 8.38224C1564.47 7.17808 1561.61 8.38224 1560.21 8.98432L1558.75 9.5864V0.555206H1560.21C1561.61 0.555206 1564.47 0.555206 1567.33 0.555206C1570.24 0.555206 1573.1 0.555206 1575.96 0.555206C1578.82 0.555206 1581.68 0.555206 1584.54 0.555206C1587.4 0.555206 1590.31 0.555206 1593.17 0.555206C1596.03 0.555206 1598.89 0.555206 1601.75 0.555206C1604.61 0.555206 1607.47 0.555206 1610.38 0.555206C1613.24 0.555206 1616.1 0.555206 1617.51 0.555206H1618.96V9.5864Z" fill="#07ACEC"/>
<path fill-rule="evenodd" clip-rule="evenodd" d="M655.788 9.5864L654.333 10.7906C652.928 11.9947 650.068 14.403 647.208 13.1989C644.298 11.9947 641.438 7.17808 638.578 5.37184C635.718 3.5656 632.858 4.76976 629.999 7.17808C627.139 9.5864 624.229 13.1989 621.369 15.0051C618.509 16.8114 615.649 16.8114 612.789 15.0051C609.929 13.1989 607.069 9.5864 604.159 8.38224C601.299 7.17808 598.44 8.38224 597.035 8.98432L595.58 9.5864V0.555206H597.035C598.44 0.555206 601.299 0.555206 604.159 0.555206C607.069 0.555206 609.929 0.555206 612.789 0.555206C615.649 0.555206 618.509 0.555206 621.369 0.555206C624.229 0.555206 627.139 0.555206 629.999 0.555206C632.858 0.555206 635.718 0.555206 638.578 0.555206C641.438 0.555206 644.298 0.555206 647.208 0.555206C650.068 0.555206 652.928 0.555206 654.333 0.555206H655.788V9.5864Z" fill="#07ACEC"/>
<path fill-rule="evenodd" clip-rule="evenodd" d="M1137.3 9.5864L1135.84 10.7906C1134.44 11.9947 1131.58 14.403 1128.72 13.1989C1125.81 11.9947 1122.95 7.17808 1120.09 5.37184C1117.23 3.5656 1114.37 4.76976 1111.51 7.17808C1108.65 9.5864 1105.74 13.1989 1102.88 15.0051C1100.02 16.8114 1097.16 16.8114 1094.3 15.0051C1091.44 13.1989 1088.58 9.5864 1085.67 8.38224C1082.81 7.17808 1079.95 8.38224 1078.54 8.98432L1077.09 9.5864V0.555206H1078.54C1079.95 0.555206 1082.81 0.555206 1085.67 0.555206C1088.58 0.555206 1091.44 0.555206 1094.3 0.555206C1097.16 0.555206 1100.02 0.555206 1102.88 0.555206C1105.74 0.555206 1108.65 0.555206 1111.51 0.555206C1114.37 0.555206 1117.23 0.555206 1120.09 0.555206C1122.95 0.555206 1125.81 0.555206 1128.72 0.555206C1131.58 0.555206 1134.44 0.555206 1135.84 0.555206H1137.3V9.5864Z" fill="#07ACEC"/>
<path fill-rule="evenodd" clip-rule="evenodd" d="M174.124 9.5864L172.669 10.7906C171.264 11.9947 168.404 14.403 165.544 13.1989C162.634 11.9947 159.774 7.17808 156.914 5.37184C154.055 3.5656 151.195 4.76976 148.335 7.17808C145.475 9.5864 142.565 13.1989 139.705 15.0051C136.845 16.8114 133.985 16.8114 131.125 15.0051C128.266 13.1989 125.406 9.5864 122.496 8.38224C119.636 7.17808 116.776 8.38224 115.371 8.98432L113.916 9.5864V0.555206H115.371C116.776 0.555206 119.636 0.555206 122.496 0.555206C125.406 0.555206 128.266 0.555206 131.125 0.555206C133.985 0.555206 136.845 0.555206 139.705 0.555206C142.565 0.555206 145.475 0.555206 148.335 0.555206C151.195 0.555206 154.055 0.555206 156.914 0.555206C159.774 0.555206 162.634 0.555206 165.544 0.555206C168.404 0.555206 171.264 0.555206 172.669 0.555206H174.124V9.5864Z" fill="#07ACEC"/>
<path fill-rule="evenodd" clip-rule="evenodd" d="M1498.54 9.5864L1497.09 10.7906C1495.68 11.9947 1492.82 14.403 1489.96 13.1989C1487.05 11.9947 1484.19 7.17808 1481.33 5.37184C1478.48 3.5656 1475.62 4.76976 1472.76 7.17808C1469.9 9.5864 1466.99 13.1989 1464.13 15.0051C1461.27 16.8114 1458.41 16.8114 1455.55 15.0051C1452.69 13.1989 1449.83 9.5864 1446.92 8.38224C1444.06 7.17808 1441.2 8.38224 1439.79 8.98432L1438.34 9.5864V0.555206H1439.79C1441.2 0.555206 1444.06 0.555206 1446.92 0.555206C1449.83 0.555206 1452.69 0.555206 1455.55 0.555206C1458.41 0.555206 1461.27 0.555206 1464.13 0.555206C1466.99 0.555206 1469.9 0.555206 1472.76 0.555206C1475.62 0.555206 1478.48 0.555206 1481.33 0.555206C1484.19 0.555206 1487.05 0.555206 1489.96 0.555206C1492.82 0.555206 1495.68 0.555206 1497.09 0.555206H1498.54V9.5864Z" fill="#07ACEC"/>
<path fill-rule="evenodd" clip-rule="evenodd" d="M535.372 9.5864L533.917 10.7906C532.512 11.9947 529.652 14.403 526.792 13.1989C523.882 11.9947 521.022 7.17808 518.162 5.37184C515.302 3.5656 512.443 4.76976 509.583 7.17808C506.723 9.5864 503.813 13.1989 500.953 15.0051C498.093 16.8114 495.233 16.8114 492.373 15.0051C489.513 13.1989 486.653 9.5864 483.743 8.38224C480.884 7.17808 478.024 8.38224 476.619 8.98432L475.164 9.5864V0.555206H476.619C478.024 0.555206 480.884 0.555206 483.743 0.555206C486.653 0.555206 489.513 0.555206 492.373 0.555206C495.233 0.555206 498.093 0.555206 500.953 0.555206C503.813 0.555206 506.723 0.555206 509.583 0.555206C512.443 0.555206 515.302 0.555206 518.162 0.555206C521.022 0.555206 523.882 0.555206 526.792 0.555206C529.652 0.555206 532.512 0.555206 533.917 0.555206H535.372V9.5864Z" fill="#07ACEC"/>
<path fill-rule="evenodd" clip-rule="evenodd" d="M1016.88 9.5864L1015.43 10.7906C1014.02 11.9947 1011.16 14.403 1008.3 13.1989C1005.39 11.9947 1002.53 7.17808 999.671 5.37184C996.811 3.5656 993.952 4.76976 991.092 7.17808C988.232 9.5864 985.322 13.1989 982.462 15.0051C979.602 16.8114 976.742 16.8114 973.882 15.0051C971.022 13.1989 968.163 9.5864 965.252 8.38224C962.393 7.17808 959.533 8.38224 958.128 8.98432L956.673 9.5864V0.555206H958.128C959.533 0.555206 962.393 0.555206 965.252 0.555206C968.163 0.555206 971.022 0.555206 973.882 0.555206C976.742 0.555206 979.602 0.555206 982.462 0.555206C985.322 0.555206 988.232 0.555206 991.092 0.555206C993.952 0.555206 996.811 0.555206 999.671 0.555206C1002.53 0.555206 1005.39 0.555206 1008.3 0.555206C1011.16 0.555206 1014.02 0.555206 1015.43 0.555206H1016.88V9.5864Z" fill="#07ACEC"/>
<path fill-rule="evenodd" clip-rule="evenodd" d="M53.708 9.5864L52.253 10.7906C50.731 11.9589 47.9883 14.403 45.1284 13.1989C42.2183 11.9947 39.3584 7.17808 36.4986 5.37184C33.6387 3.5656 30.7788 4.76976 27.9189 7.17808C25.0591 9.5864 22.149 13.1989 19.2891 15.0051C16.4293 16.8114 13.5694 16.8114 10.7095 15.0051C7.84962 13.1989 4.98974 9.5864 2.07969 8.38224C-0.780186 7.17808 -3.64006 8.38224 -5.04491 8.98432L-6.49994 9.5864V0.555206H-5.04491C-3.64006 0.555206 -0.780186 0.555206 2.07969 0.555206C4.98974 0.555206 7.84962 0.555206 10.7095 0.555206C13.5694 0.555206 16.4293 0.555206 19.2891 0.555206C22.149 0.555206 25.0591 0.555206 27.9189 0.555206C30.7788 0.555206 33.6387 0.555206 36.4986 0.555206C39.3584 0.555206 42.2183 0.555206 45.1284 0.555206C47.9883 0.555206 50.8481 0.555206 52.253 0.555206H53.708V9.5864Z" fill="#07ACEC"/>
</svg>
