<svg width="1920" height="17" viewBox="0 0 1920 17" fill="none" xmlns="http://www.w3.org/2000/svg">
<path fill-rule="evenodd" clip-rule="evenodd" d="M60.8564 9.81595L59.4014 11.0201C57.8795 12.1885 55.1367 14.6326 52.2768 13.4284C49.3668 12.2243 46.5069 7.40763 43.647 5.6014C40.7871 3.79516 37.9272 4.99932 35.0674 7.40763C32.2075 9.81595 29.2974 13.4284 26.4376 15.2347C23.5777 17.0409 20.7178 17.0409 17.8579 15.2347C14.9981 13.4284 12.1382 9.81595 9.22813 8.61179C6.36826 7.40763 3.50604 8.40251 1.99153 9.03638C0.477024 9.67025 -7.62939e-06 10.2062 -7.62939e-06 10.2062L0.0873756 0.78476H2.10352C3.50837 0.78476 6.36826 0.78476 9.22813 0.78476C12.1382 0.78476 14.9981 0.78476 17.8579 0.78476C20.7178 0.78476 23.5777 0.78476 26.4376 0.78476C29.2974 0.78476 32.2075 0.78476 35.0674 0.78476C37.9272 0.78476 40.7871 0.78476 43.647 0.78476C46.5069 0.78476 49.3668 0.78476 52.2768 0.78476C55.1367 0.78476 57.9966 0.78476 59.4014 0.78476H60.8564V9.81595Z" fill="#07ACEC"/>
<path fill-rule="evenodd" clip-rule="evenodd" d="M121.233 9.81595L119.778 11.0201C118.256 12.1885 115.513 14.6326 112.653 13.4284C109.743 12.2243 106.883 7.40763 104.023 5.6014C101.164 3.79516 98.3037 4.99932 95.4438 7.40763C92.584 9.81595 89.6739 13.4284 86.814 15.2347C83.9542 17.0409 81.0943 17.0409 78.2344 15.2347C75.3745 13.4284 72.5146 9.81595 69.6046 8.61179C66.7447 7.40763 63.8825 8.40251 62.368 9.03638C60.8535 9.67025 60.3765 10.2062 60.3765 10.2062L60.4638 0.78476H62.48C63.8848 0.78476 66.7447 0.78476 69.6046 0.78476C72.5146 0.78476 75.3745 0.78476 78.2344 0.78476C81.0943 0.78476 83.9542 0.78476 86.814 0.78476C89.6739 0.78476 92.584 0.78476 95.4438 0.78476C98.3037 0.78476 101.164 0.78476 104.023 0.78476C106.883 0.78476 109.743 0.78476 112.653 0.78476C115.513 0.78476 118.373 0.78476 119.778 0.78476H121.233V9.81595Z" fill="#07ACEC"/>
<path fill-rule="evenodd" clip-rule="evenodd" d="M181.609 9.81595L180.154 11.0201C178.632 12.1885 175.89 14.6326 173.03 13.4284C170.12 12.2243 167.26 7.40763 164.4 5.6014C161.54 3.79516 158.68 4.99932 155.82 7.40763C152.96 9.81595 150.05 13.4284 147.191 15.2347C144.331 17.0409 141.471 17.0409 138.611 15.2347C135.751 13.4284 132.891 9.81595 129.981 8.61179C127.121 7.40763 124.259 8.40251 122.744 9.03638C121.23 9.67025 120.753 10.2062 120.753 10.2062L120.84 0.78476H122.856C124.261 0.78476 127.121 0.78476 129.981 0.78476C132.891 0.78476 135.751 0.78476 138.611 0.78476C141.471 0.78476 144.331 0.78476 147.191 0.78476C150.05 0.78476 152.96 0.78476 155.82 0.78476C158.68 0.78476 161.54 0.78476 164.4 0.78476C167.26 0.78476 170.12 0.78476 173.03 0.78476C175.89 0.78476 178.749 0.78476 180.154 0.78476H181.609V9.81595Z" fill="#07ACEC"/>
<path fill-rule="evenodd" clip-rule="evenodd" d="M241.986 9.81595L240.531 11.0201C239.009 12.1885 236.266 14.6326 233.406 13.4284C230.496 12.2243 227.636 7.40763 224.776 5.6014C221.917 3.79516 219.057 4.99932 216.197 7.40763C213.337 9.81595 210.427 13.4284 207.567 15.2347C204.707 17.0409 201.847 17.0409 198.987 15.2347C196.127 13.4284 193.268 9.81595 190.358 8.61179C187.498 7.40763 184.635 8.40251 183.121 9.03638C181.606 9.67025 181.129 10.2062 181.129 10.2062L181.217 0.78476H183.233C184.638 0.78476 187.498 0.78476 190.358 0.78476C193.268 0.78476 196.127 0.78476 198.987 0.78476C201.847 0.78476 204.707 0.78476 207.567 0.78476C210.427 0.78476 213.337 0.78476 216.197 0.78476C219.057 0.78476 221.917 0.78476 224.776 0.78476C227.636 0.78476 230.496 0.78476 233.406 0.78476C236.266 0.78476 239.126 0.78476 240.531 0.78476H241.986V9.81595Z" fill="#07ACEC"/>
<path fill-rule="evenodd" clip-rule="evenodd" d="M302.362 9.81595L300.907 11.0201C299.385 12.1885 296.643 14.6326 293.783 13.4284C290.873 12.2243 288.013 7.40763 285.153 5.6014C282.293 3.79516 279.433 4.99932 276.573 7.40763C273.713 9.81595 270.803 13.4284 267.943 15.2347C265.084 17.0409 262.224 17.0409 259.364 15.2347C256.504 13.4284 253.644 9.81595 250.734 8.61179C247.874 7.40763 245.012 8.40251 243.497 9.03638C241.983 9.67025 241.506 10.2062 241.506 10.2062L241.593 0.78476H243.609C245.014 0.78476 247.874 0.78476 250.734 0.78476C253.644 0.78476 256.504 0.78476 259.364 0.78476C262.224 0.78476 265.084 0.78476 267.943 0.78476C270.803 0.78476 273.713 0.78476 276.573 0.78476C279.433 0.78476 282.293 0.78476 285.153 0.78476C288.013 0.78476 290.873 0.78476 293.783 0.78476C296.643 0.78476 299.502 0.78476 300.907 0.78476H302.362V9.81595Z" fill="#07ACEC"/>
<path fill-rule="evenodd" clip-rule="evenodd" d="M362.739 9.81595L361.284 11.0201C359.762 12.1885 357.019 14.6326 354.159 13.4284C351.249 12.2243 348.389 7.40763 345.529 5.6014C342.669 3.79516 339.81 4.99932 336.95 7.40763C334.09 9.81595 331.18 13.4284 328.32 15.2347C325.46 17.0409 322.6 17.0409 319.74 15.2347C316.88 13.4284 314.021 9.81595 311.11 8.61179C308.251 7.40763 305.388 8.40251 303.874 9.03638C302.359 9.67025 301.882 10.2062 301.882 10.2062L301.97 0.78476H303.986C305.391 0.78476 308.251 0.78476 311.11 0.78476C314.021 0.78476 316.88 0.78476 319.74 0.78476C322.6 0.78476 325.46 0.78476 328.32 0.78476C331.18 0.78476 334.09 0.78476 336.95 0.78476C339.81 0.78476 342.669 0.78476 345.529 0.78476C348.389 0.78476 351.249 0.78476 354.159 0.78476C357.019 0.78476 359.879 0.78476 361.284 0.78476H362.739V9.81595Z" fill="#07ACEC"/>
<path fill-rule="evenodd" clip-rule="evenodd" d="M423.115 9.81595L421.66 11.0201C420.138 12.1885 417.395 14.6326 414.536 13.4284C411.626 12.2243 408.766 7.40763 405.906 5.6014C403.046 3.79516 400.186 4.99932 397.326 7.40763C394.466 9.81595 391.556 13.4284 388.696 15.2347C385.836 17.0409 382.977 17.0409 380.117 15.2347C377.257 13.4284 374.397 9.81595 371.487 8.61179C368.627 7.40763 365.765 8.40251 364.25 9.03638C362.736 9.67025 362.259 10.2062 362.259 10.2062L362.346 0.78476H364.362C365.767 0.78476 368.627 0.78476 371.487 0.78476C374.397 0.78476 377.257 0.78476 380.117 0.78476C382.977 0.78476 385.836 0.78476 388.696 0.78476C391.556 0.78476 394.466 0.78476 397.326 0.78476C400.186 0.78476 403.046 0.78476 405.906 0.78476C408.766 0.78476 411.626 0.78476 414.536 0.78476C417.395 0.78476 420.255 0.78476 421.66 0.78476H423.115V9.81595Z" fill="#07ACEC"/>
<path fill-rule="evenodd" clip-rule="evenodd" d="M483.492 9.81595L482.037 11.0201C480.515 12.1885 477.772 14.6326 474.912 13.4284C472.002 12.2243 469.142 7.40763 466.282 5.6014C463.422 3.79516 460.563 4.99932 457.703 7.40763C454.843 9.81595 451.933 13.4284 449.073 15.2347C446.213 17.0409 443.353 17.0409 440.493 15.2347C437.633 13.4284 434.773 9.81595 431.863 8.61179C429.004 7.40763 426.141 8.40251 424.627 9.03638C423.112 9.67025 422.635 10.2062 422.635 10.2062L422.723 0.78476H424.739C426.144 0.78476 429.004 0.78476 431.863 0.78476C434.773 0.78476 437.633 0.78476 440.493 0.78476C443.353 0.78476 446.213 0.78476 449.073 0.78476C451.933 0.78476 454.843 0.78476 457.703 0.78476C460.563 0.78476 463.422 0.78476 466.282 0.78476C469.142 0.78476 472.002 0.78476 474.912 0.78476C477.772 0.78476 480.632 0.78476 482.037 0.78476H483.492V9.81595Z" fill="#07ACEC"/>
<path fill-rule="evenodd" clip-rule="evenodd" d="M543.868 9.81595L542.413 11.0201C540.891 12.1885 538.148 14.6326 535.289 13.4284C532.378 12.2243 529.519 7.40763 526.659 5.6014C523.799 3.79516 520.939 4.99932 518.079 7.40763C515.219 9.81595 512.309 13.4284 509.449 15.2347C506.589 17.0409 503.73 17.0409 500.87 15.2347C498.01 13.4284 495.15 9.81595 492.24 8.61179C489.38 7.40763 486.518 8.40251 485.003 9.03638C483.489 9.67025 483.012 10.2062 483.012 10.2062L483.099 0.78476H485.115C486.52 0.78476 489.38 0.78476 492.24 0.78476C495.15 0.78476 498.01 0.78476 500.87 0.78476C503.73 0.78476 506.589 0.78476 509.449 0.78476C512.309 0.78476 515.219 0.78476 518.079 0.78476C520.939 0.78476 523.799 0.78476 526.659 0.78476C529.519 0.78476 532.378 0.78476 535.289 0.78476C538.148 0.78476 541.008 0.78476 542.413 0.78476H543.868V9.81595Z" fill="#07ACEC"/>
<path fill-rule="evenodd" clip-rule="evenodd" d="M604.245 9.81595L602.79 11.0201C601.268 12.1885 598.525 14.6326 595.665 13.4284C592.755 12.2243 589.895 7.40763 587.035 5.6014C584.175 3.79516 581.315 4.99932 578.456 7.40763C575.596 9.81595 572.686 13.4284 569.826 15.2347C566.966 17.0409 564.106 17.0409 561.246 15.2347C558.386 13.4284 555.526 9.81595 552.616 8.61179C549.756 7.40763 546.894 8.40251 545.38 9.03638C543.865 9.67025 543.388 10.2062 543.388 10.2062L543.476 0.78476H545.492C546.897 0.78476 549.756 0.78476 552.616 0.78476C555.526 0.78476 558.386 0.78476 561.246 0.78476C564.106 0.78476 566.966 0.78476 569.826 0.78476C572.686 0.78476 575.596 0.78476 578.456 0.78476C581.315 0.78476 584.175 0.78476 587.035 0.78476C589.895 0.78476 592.755 0.78476 595.665 0.78476C598.525 0.78476 601.385 0.78476 602.79 0.78476H604.245V9.81595Z" fill="#07ACEC"/>
<path fill-rule="evenodd" clip-rule="evenodd" d="M664.621 9.81595L663.166 11.0201C661.644 12.1885 658.901 14.6326 656.041 13.4284C653.131 12.2243 650.272 7.40763 647.412 5.6014C644.552 3.79516 641.692 4.99932 638.832 7.40763C635.972 9.81595 633.062 13.4284 630.202 15.2347C627.342 17.0409 624.482 17.0409 621.623 15.2347C618.763 13.4284 615.903 9.81595 612.993 8.61179C610.133 7.40763 607.271 8.40251 605.756 9.03638C604.242 9.67025 603.765 10.2062 603.765 10.2062L603.852 0.78476H605.868C607.273 0.78476 610.133 0.78476 612.993 0.78476C615.903 0.78476 618.763 0.78476 621.623 0.78476C624.482 0.78476 627.342 0.78476 630.202 0.78476C633.062 0.78476 635.972 0.78476 638.832 0.78476C641.692 0.78476 644.552 0.78476 647.412 0.78476C650.272 0.78476 653.131 0.78476 656.041 0.78476C658.901 0.78476 661.761 0.78476 663.166 0.78476H664.621V9.81595Z" fill="#07ACEC"/>
<path fill-rule="evenodd" clip-rule="evenodd" d="M724.998 9.81595L723.543 11.0201C722.021 12.1885 719.278 14.6326 716.418 13.4284C713.508 12.2243 710.648 7.40763 707.788 5.6014C704.928 3.79516 702.068 4.99932 699.208 7.40763C696.349 9.81595 693.439 13.4284 690.579 15.2347C687.719 17.0409 684.859 17.0409 681.999 15.2347C679.139 13.4284 676.279 9.81595 673.369 8.61179C670.509 7.40763 667.647 8.40251 666.133 9.03638C664.618 9.67025 664.141 10.2062 664.141 10.2062L664.228 0.78476H666.245C667.649 0.78476 670.509 0.78476 673.369 0.78476C676.279 0.78476 679.139 0.78476 681.999 0.78476C684.859 0.78476 687.719 0.78476 690.579 0.78476C693.439 0.78476 696.349 0.78476 699.208 0.78476C702.068 0.78476 704.928 0.78476 707.788 0.78476C710.648 0.78476 713.508 0.78476 716.418 0.78476C719.278 0.78476 722.138 0.78476 723.543 0.78476H724.998V9.81595Z" fill="#07ACEC"/>
<path fill-rule="evenodd" clip-rule="evenodd" d="M785.374 9.81595L783.919 11.0201C782.397 12.1885 779.654 14.6326 776.794 13.4284C773.884 12.2243 771.024 7.40763 768.165 5.6014C765.305 3.79516 762.445 4.99932 759.585 7.40763C756.725 9.81595 753.815 13.4284 750.955 15.2347C748.095 17.0409 745.235 17.0409 742.376 15.2347C739.516 13.4284 736.656 9.81595 733.746 8.61179C730.886 7.40763 728.024 8.40251 726.509 9.03638C724.995 9.67025 724.518 10.2062 724.518 10.2062L724.605 0.78476H726.621C728.026 0.78476 730.886 0.78476 733.746 0.78476C736.656 0.78476 739.516 0.78476 742.376 0.78476C745.235 0.78476 748.095 0.78476 750.955 0.78476C753.815 0.78476 756.725 0.78476 759.585 0.78476C762.445 0.78476 765.305 0.78476 768.165 0.78476C771.024 0.78476 773.884 0.78476 776.794 0.78476C779.654 0.78476 782.514 0.78476 783.919 0.78476H785.374V9.81595Z" fill="#07ACEC"/>
<path fill-rule="evenodd" clip-rule="evenodd" d="M845.75 9.81595L844.295 11.0201C842.774 12.1885 840.031 14.6326 837.171 13.4284C834.261 12.2243 831.401 7.40763 828.541 5.6014C825.681 3.79516 822.821 4.99932 819.961 7.40763C817.102 9.81595 814.191 13.4284 811.332 15.2347C808.472 17.0409 805.612 17.0409 802.752 15.2347C799.892 13.4284 797.032 9.81595 794.122 8.61179C791.262 7.40763 788.4 8.40251 786.886 9.03638C785.371 9.67025 784.894 10.2062 784.894 10.2062L784.981 0.78476H786.998C788.402 0.78476 791.262 0.78476 794.122 0.78476C797.032 0.78476 799.892 0.78476 802.752 0.78476C805.612 0.78476 808.472 0.78476 811.332 0.78476C814.191 0.78476 817.102 0.78476 819.961 0.78476C822.821 0.78476 825.681 0.78476 828.541 0.78476C831.401 0.78476 834.261 0.78476 837.171 0.78476C840.031 0.78476 842.891 0.78476 844.295 0.78476H845.75V9.81595Z" fill="#07ACEC"/>
<path fill-rule="evenodd" clip-rule="evenodd" d="M906.127 9.81595L904.672 11.0201C903.15 12.1885 900.407 14.6326 897.547 13.4284C894.637 12.2243 891.777 7.40763 888.918 5.6014C886.058 3.79516 883.198 4.99932 880.338 7.40763C877.478 9.81595 874.568 13.4284 871.708 15.2347C868.848 17.0409 865.988 17.0409 863.128 15.2347C860.269 13.4284 857.409 9.81595 854.499 8.61179C851.639 7.40763 848.777 8.40251 847.262 9.03638C845.748 9.67025 845.271 10.2062 845.271 10.2062L845.358 0.78476H847.374C848.779 0.78476 851.639 0.78476 854.499 0.78476C857.409 0.78476 860.269 0.78476 863.128 0.78476C865.988 0.78476 868.848 0.78476 871.708 0.78476C874.568 0.78476 877.478 0.78476 880.338 0.78476C883.198 0.78476 886.058 0.78476 888.918 0.78476C891.777 0.78476 894.637 0.78476 897.547 0.78476C900.407 0.78476 903.267 0.78476 904.672 0.78476H906.127V9.81595Z" fill="#07ACEC"/>
<path fill-rule="evenodd" clip-rule="evenodd" d="M966.503 9.81595L965.048 11.0201C963.526 12.1885 960.784 14.6326 957.924 13.4284C955.014 12.2243 952.154 7.40763 949.294 5.6014C946.434 3.79516 943.574 4.99932 940.714 7.40763C937.854 9.81595 934.944 13.4284 932.085 15.2347C929.225 17.0409 926.365 17.0409 923.505 15.2347C920.645 13.4284 917.785 9.81595 914.875 8.61179C912.015 7.40763 909.153 8.40251 907.639 9.03638C906.124 9.67025 905.647 10.2062 905.647 10.2062L905.734 0.78476H907.75C909.155 0.78476 912.015 0.78476 914.875 0.78476C917.785 0.78476 920.645 0.78476 923.505 0.78476C926.365 0.78476 929.225 0.78476 932.085 0.78476C934.944 0.78476 937.854 0.78476 940.714 0.78476C943.574 0.78476 946.434 0.78476 949.294 0.78476C952.154 0.78476 955.014 0.78476 957.924 0.78476C960.784 0.78476 963.644 0.78476 965.048 0.78476H966.503V9.81595Z" fill="#07ACEC"/>
<path fill-rule="evenodd" clip-rule="evenodd" d="M1026.88 9.81595L1025.42 11.0201C1023.9 12.1885 1021.16 14.6326 1018.3 13.4284C1015.39 12.2243 1012.53 7.40763 1009.67 5.6014C1006.81 3.79516 1003.95 4.99932 1001.09 7.40763C998.231 9.81595 995.321 13.4284 992.461 15.2347C989.601 17.0409 986.741 17.0409 983.881 15.2347C981.021 13.4284 978.162 9.81595 975.252 8.61179C972.392 7.40763 969.529 8.40251 968.015 9.03638C966.5 9.67025 966.023 10.2062 966.023 10.2062L966.111 0.78476H968.127C969.532 0.78476 972.392 0.78476 975.252 0.78476C978.162 0.78476 981.021 0.78476 983.881 0.78476C986.741 0.78476 989.601 0.78476 992.461 0.78476C995.321 0.78476 998.231 0.78476 1001.09 0.78476C1003.95 0.78476 1006.81 0.78476 1009.67 0.78476C1012.53 0.78476 1015.39 0.78476 1018.3 0.78476C1021.16 0.78476 1024.02 0.78476 1025.42 0.78476H1026.88V9.81595Z" fill="#07ACEC"/>
<path fill-rule="evenodd" clip-rule="evenodd" d="M1087.26 9.81595L1085.8 11.0201C1084.28 12.1885 1081.54 14.6326 1078.68 13.4284C1075.77 12.2243 1072.91 7.40763 1070.05 5.6014C1067.19 3.79516 1064.33 4.99932 1061.47 7.40763C1058.61 9.81595 1055.7 13.4284 1052.84 15.2347C1049.98 17.0409 1047.12 17.0409 1044.26 15.2347C1041.4 13.4284 1038.54 9.81595 1035.63 8.61179C1032.77 7.40763 1029.91 8.40251 1028.39 9.03638C1026.88 9.67025 1026.4 10.2062 1026.4 10.2062L1026.49 0.78476H1028.5C1029.91 0.78476 1032.77 0.78476 1035.63 0.78476C1038.54 0.78476 1041.4 0.78476 1044.26 0.78476C1047.12 0.78476 1049.98 0.78476 1052.84 0.78476C1055.7 0.78476 1058.61 0.78476 1061.47 0.78476C1064.33 0.78476 1067.19 0.78476 1070.05 0.78476C1072.91 0.78476 1075.77 0.78476 1078.68 0.78476C1081.54 0.78476 1084.4 0.78476 1085.8 0.78476H1087.26V9.81595Z" fill="#07ACEC"/>
<path fill-rule="evenodd" clip-rule="evenodd" d="M1147.63 9.81595L1146.18 11.0201C1144.66 12.1885 1141.91 14.6326 1139.05 13.4284C1136.14 12.2243 1133.28 7.40763 1130.42 5.6014C1127.56 3.79516 1124.7 4.99932 1121.84 7.40763C1118.98 9.81595 1116.07 13.4284 1113.21 15.2347C1110.35 17.0409 1107.49 17.0409 1104.63 15.2347C1101.77 13.4284 1098.91 9.81595 1096 8.61179C1093.14 7.40763 1090.28 8.40251 1088.77 9.03638C1087.25 9.67025 1086.78 10.2062 1086.78 10.2062L1086.86 0.78476H1088.88C1090.28 0.78476 1093.14 0.78476 1096 0.78476C1098.91 0.78476 1101.77 0.78476 1104.63 0.78476C1107.49 0.78476 1110.35 0.78476 1113.21 0.78476C1116.07 0.78476 1118.98 0.78476 1121.84 0.78476C1124.7 0.78476 1127.56 0.78476 1130.42 0.78476C1133.28 0.78476 1136.14 0.78476 1139.05 0.78476C1141.91 0.78476 1144.77 0.78476 1146.18 0.78476H1147.63V9.81595Z" fill="#07ACEC"/>
<path fill-rule="evenodd" clip-rule="evenodd" d="M1208.01 9.81595L1206.55 11.0201C1205.03 12.1885 1202.29 14.6326 1199.43 13.4284C1196.52 12.2243 1193.66 7.40763 1190.8 5.6014C1187.94 3.79516 1185.08 4.99932 1182.22 7.40763C1179.36 9.81595 1176.45 13.4284 1173.59 15.2347C1170.73 17.0409 1167.87 17.0409 1165.01 15.2347C1162.15 13.4284 1159.29 9.81595 1156.38 8.61179C1153.52 7.40763 1150.66 8.40251 1149.14 9.03638C1147.63 9.67025 1147.15 10.2062 1147.15 10.2062L1147.24 0.78476H1149.26C1150.66 0.78476 1153.52 0.78476 1156.38 0.78476C1159.29 0.78476 1162.15 0.78476 1165.01 0.78476C1167.87 0.78476 1170.73 0.78476 1173.59 0.78476C1176.45 0.78476 1179.36 0.78476 1182.22 0.78476C1185.08 0.78476 1187.94 0.78476 1190.8 0.78476C1193.66 0.78476 1196.52 0.78476 1199.43 0.78476C1202.29 0.78476 1205.15 0.78476 1206.55 0.78476H1208.01V9.81595Z" fill="#07ACEC"/>
<path fill-rule="evenodd" clip-rule="evenodd" d="M1268.39 9.81595L1266.93 11.0201C1265.41 12.1885 1262.67 14.6326 1259.81 13.4284C1256.9 12.2243 1254.04 7.40763 1251.18 5.6014C1248.32 3.79516 1245.46 4.99932 1242.6 7.40763C1239.74 9.81595 1236.83 13.4284 1233.97 15.2347C1231.11 17.0409 1228.25 17.0409 1225.39 15.2347C1222.53 13.4284 1219.67 9.81595 1216.76 8.61179C1213.9 7.40763 1211.04 8.40251 1209.52 9.03638C1208.01 9.67025 1207.53 10.2062 1207.53 10.2062L1207.62 0.78476H1209.63C1211.04 0.78476 1213.9 0.78476 1216.76 0.78476C1219.67 0.78476 1222.53 0.78476 1225.39 0.78476C1228.25 0.78476 1231.11 0.78476 1233.97 0.78476C1236.83 0.78476 1239.74 0.78476 1242.6 0.78476C1245.46 0.78476 1248.32 0.78476 1251.18 0.78476C1254.04 0.78476 1256.9 0.78476 1259.81 0.78476C1262.67 0.78476 1265.53 0.78476 1266.93 0.78476H1268.39V9.81595Z" fill="#07ACEC"/>
<path fill-rule="evenodd" clip-rule="evenodd" d="M1328.76 9.81595L1327.31 11.0201C1325.79 12.1885 1323.04 14.6326 1320.18 13.4284C1317.27 12.2243 1314.41 7.40763 1311.55 5.6014C1308.69 3.79516 1305.83 4.99932 1302.97 7.40763C1300.11 9.81595 1297.2 13.4284 1294.34 15.2347C1291.48 17.0409 1288.62 17.0409 1285.76 15.2347C1282.9 13.4284 1280.04 9.81595 1277.13 8.61179C1274.27 7.40763 1271.41 8.40251 1269.9 9.03638C1268.38 9.67025 1267.91 10.2062 1267.91 10.2062L1267.99 0.78476H1270.01C1271.41 0.78476 1274.27 0.78476 1277.13 0.78476C1280.04 0.78476 1282.9 0.78476 1285.76 0.78476C1288.62 0.78476 1291.48 0.78476 1294.34 0.78476C1297.2 0.78476 1300.11 0.78476 1302.97 0.78476C1305.83 0.78476 1308.69 0.78476 1311.55 0.78476C1314.41 0.78476 1317.27 0.78476 1320.18 0.78476C1323.04 0.78476 1325.9 0.78476 1327.31 0.78476H1328.76V9.81595Z" fill="#07ACEC"/>
<path fill-rule="evenodd" clip-rule="evenodd" d="M1389.14 9.81595L1387.68 11.0201C1386.16 12.1885 1383.42 14.6326 1380.56 13.4284C1377.65 12.2243 1374.79 7.40763 1371.93 5.6014C1369.07 3.79516 1366.21 4.99932 1363.35 7.40763C1360.49 9.81595 1357.58 13.4284 1354.72 15.2347C1351.86 17.0409 1349 17.0409 1346.14 15.2347C1343.28 13.4284 1340.42 9.81595 1337.51 8.61179C1334.65 7.40763 1331.79 8.40251 1330.27 9.03638C1328.76 9.67025 1328.28 10.2062 1328.28 10.2062L1328.37 0.78476H1330.39C1331.79 0.78476 1334.65 0.78476 1337.51 0.78476C1340.42 0.78476 1343.28 0.78476 1346.14 0.78476C1349 0.78476 1351.86 0.78476 1354.72 0.78476C1357.58 0.78476 1360.49 0.78476 1363.35 0.78476C1366.21 0.78476 1369.07 0.78476 1371.93 0.78476C1374.79 0.78476 1377.65 0.78476 1380.56 0.78476C1383.42 0.78476 1386.28 0.78476 1387.68 0.78476H1389.14V9.81595Z" fill="#07ACEC"/>
<path fill-rule="evenodd" clip-rule="evenodd" d="M1449.52 9.81595L1448.06 11.0201C1446.54 12.1885 1443.8 14.6326 1440.94 13.4284C1438.03 12.2243 1435.17 7.40763 1432.31 5.6014C1429.45 3.79516 1426.59 4.99932 1423.73 7.40763C1420.87 9.81595 1417.96 13.4284 1415.1 15.2347C1412.24 17.0409 1409.38 17.0409 1406.52 15.2347C1403.66 13.4284 1400.8 9.81595 1397.89 8.61179C1395.03 7.40763 1392.16 8.40251 1390.65 9.03638C1389.14 9.67025 1388.66 10.2062 1388.66 10.2062L1388.75 0.78476H1390.76C1392.17 0.78476 1395.03 0.78476 1397.89 0.78476C1400.8 0.78476 1403.66 0.78476 1406.52 0.78476C1409.38 0.78476 1412.24 0.78476 1415.1 0.78476C1417.96 0.78476 1420.87 0.78476 1423.73 0.78476C1426.59 0.78476 1429.45 0.78476 1432.31 0.78476C1435.17 0.78476 1438.03 0.78476 1440.94 0.78476C1443.8 0.78476 1446.66 0.78476 1448.06 0.78476H1449.52V9.81595Z" fill="#07ACEC"/>
<path fill-rule="evenodd" clip-rule="evenodd" d="M1509.89 9.81595L1508.44 11.0201C1506.91 12.1885 1504.17 14.6326 1501.31 13.4284C1498.4 12.2243 1495.54 7.40763 1492.68 5.6014C1489.82 3.79516 1486.96 4.99932 1484.1 7.40763C1481.24 9.81595 1478.33 13.4284 1475.47 15.2347C1472.61 17.0409 1469.75 17.0409 1466.89 15.2347C1464.03 13.4284 1461.17 9.81595 1458.26 8.61179C1455.4 7.40763 1452.54 8.40251 1451.03 9.03638C1449.51 9.67025 1449.04 10.2062 1449.04 10.2062L1449.12 0.78476H1451.14C1452.54 0.78476 1455.4 0.78476 1458.26 0.78476C1461.17 0.78476 1464.03 0.78476 1466.89 0.78476C1469.75 0.78476 1472.61 0.78476 1475.47 0.78476C1478.33 0.78476 1481.24 0.78476 1484.1 0.78476C1486.96 0.78476 1489.82 0.78476 1492.68 0.78476C1495.54 0.78476 1498.4 0.78476 1501.31 0.78476C1504.17 0.78476 1507.03 0.78476 1508.44 0.78476H1509.89V9.81595Z" fill="#07ACEC"/>
<path fill-rule="evenodd" clip-rule="evenodd" d="M1570.27 9.81595L1568.81 11.0201C1567.29 12.1885 1564.55 14.6326 1561.69 13.4284C1558.78 12.2243 1555.92 7.40763 1553.06 5.6014C1550.2 3.79516 1547.34 4.99932 1544.48 7.40763C1541.62 9.81595 1538.71 13.4284 1535.85 15.2347C1532.99 17.0409 1530.13 17.0409 1527.27 15.2347C1524.41 13.4284 1521.55 9.81595 1518.64 8.61179C1515.78 7.40763 1512.92 8.40251 1511.4 9.03638C1509.89 9.67025 1509.41 10.2062 1509.41 10.2062L1509.5 0.78476H1511.52C1512.92 0.78476 1515.78 0.78476 1518.64 0.78476C1521.55 0.78476 1524.41 0.78476 1527.27 0.78476C1530.13 0.78476 1532.99 0.78476 1535.85 0.78476C1538.71 0.78476 1541.62 0.78476 1544.48 0.78476C1547.34 0.78476 1550.2 0.78476 1553.06 0.78476C1555.92 0.78476 1558.78 0.78476 1561.69 0.78476C1564.55 0.78476 1567.41 0.78476 1568.81 0.78476H1570.27V9.81595Z" fill="#07ACEC"/>
<path fill-rule="evenodd" clip-rule="evenodd" d="M1630.64 9.81595L1629.19 11.0201C1627.67 12.1885 1624.92 14.6326 1622.06 13.4284C1619.15 12.2243 1616.29 7.40763 1613.44 5.6014C1610.58 3.79516 1607.72 4.99932 1604.86 7.40763C1602 9.81595 1599.09 13.4284 1596.23 15.2347C1593.37 17.0409 1590.51 17.0409 1587.65 15.2347C1584.79 13.4284 1581.93 9.81595 1579.02 8.61179C1576.16 7.40763 1573.29 8.40251 1571.78 9.03638C1570.27 9.67025 1569.79 10.2062 1569.79 10.2062L1569.88 0.78476H1571.89C1573.3 0.78476 1576.16 0.78476 1579.02 0.78476C1581.93 0.78476 1584.79 0.78476 1587.65 0.78476C1590.51 0.78476 1593.37 0.78476 1596.23 0.78476C1599.09 0.78476 1602 0.78476 1604.86 0.78476C1607.72 0.78476 1610.58 0.78476 1613.44 0.78476C1616.29 0.78476 1619.15 0.78476 1622.06 0.78476C1624.92 0.78476 1627.78 0.78476 1629.19 0.78476H1630.64V9.81595Z" fill="#07ACEC"/>
<path fill-rule="evenodd" clip-rule="evenodd" d="M1691.02 9.81595L1689.57 11.0201C1688.04 12.1885 1685.3 14.6326 1682.44 13.4284C1679.53 12.2243 1676.67 7.40763 1673.81 5.6014C1670.95 3.79516 1668.09 4.99932 1665.23 7.40763C1662.37 9.81595 1659.46 13.4284 1656.6 15.2347C1653.74 17.0409 1650.88 17.0409 1648.02 15.2347C1645.16 13.4284 1642.3 9.81595 1639.39 8.61179C1636.53 7.40763 1633.67 8.40251 1632.16 9.03638C1630.64 9.67025 1630.16 10.2062 1630.16 10.2062L1630.25 0.78476H1632.27C1633.67 0.78476 1636.53 0.78476 1639.39 0.78476C1642.3 0.78476 1645.16 0.78476 1648.02 0.78476C1650.88 0.78476 1653.74 0.78476 1656.6 0.78476C1659.46 0.78476 1662.37 0.78476 1665.23 0.78476C1668.09 0.78476 1670.95 0.78476 1673.81 0.78476C1676.67 0.78476 1679.53 0.78476 1682.44 0.78476C1685.3 0.78476 1688.16 0.78476 1689.57 0.78476H1691.02V9.81595Z" fill="#07ACEC"/>
<path fill-rule="evenodd" clip-rule="evenodd" d="M1751.4 9.81595L1749.94 11.0201C1748.42 12.1885 1745.68 14.6326 1742.82 13.4284C1739.91 12.2243 1737.05 7.40763 1734.19 5.6014C1731.33 3.79516 1728.47 4.99932 1725.61 7.40763C1722.75 9.81595 1719.84 13.4284 1716.98 15.2347C1714.12 17.0409 1711.26 17.0409 1708.4 15.2347C1705.54 13.4284 1702.68 9.81595 1699.77 8.61179C1696.91 7.40763 1694.05 8.40251 1692.53 9.03638C1691.02 9.67025 1690.54 10.2062 1690.54 10.2062L1690.63 0.78476H1692.64C1694.05 0.78476 1696.91 0.78476 1699.77 0.78476C1702.68 0.78476 1705.54 0.78476 1708.4 0.78476C1711.26 0.78476 1714.12 0.78476 1716.98 0.78476C1719.84 0.78476 1722.75 0.78476 1725.61 0.78476C1728.47 0.78476 1731.33 0.78476 1734.19 0.78476C1737.05 0.78476 1739.91 0.78476 1742.82 0.78476C1745.68 0.78476 1748.54 0.78476 1749.94 0.78476H1751.4V9.81595Z" fill="#07ACEC"/>
<path fill-rule="evenodd" clip-rule="evenodd" d="M1811.77 9.81595L1810.32 11.0201C1808.8 12.1885 1806.05 14.6326 1803.19 13.4284C1800.28 12.2243 1797.42 7.40763 1794.56 5.6014C1791.7 3.79516 1788.84 4.99932 1785.98 7.40763C1783.12 9.81595 1780.21 13.4284 1777.36 15.2347C1774.5 17.0409 1771.64 17.0409 1768.78 15.2347C1765.92 13.4284 1763.06 9.81595 1760.15 8.61179C1757.29 7.40763 1754.42 8.40251 1752.91 9.03638C1751.39 9.67025 1750.92 10.2062 1750.92 10.2062L1751 0.78476H1753.02C1754.43 0.78476 1757.29 0.78476 1760.15 0.78476C1763.06 0.78476 1765.92 0.78476 1768.78 0.78476C1771.64 0.78476 1774.5 0.78476 1777.36 0.78476C1780.21 0.78476 1783.12 0.78476 1785.98 0.78476C1788.84 0.78476 1791.7 0.78476 1794.56 0.78476C1797.42 0.78476 1800.28 0.78476 1803.19 0.78476C1806.05 0.78476 1808.91 0.78476 1810.32 0.78476H1811.77V9.81595Z" fill="#07ACEC"/>
<path fill-rule="evenodd" clip-rule="evenodd" d="M1872.15 9.81595L1870.7 11.0201C1869.17 12.1885 1866.43 14.6326 1863.57 13.4284C1860.66 12.2243 1857.8 7.40763 1854.94 5.6014C1852.08 3.79516 1849.22 4.99932 1846.36 7.40763C1843.5 9.81595 1840.59 13.4284 1837.73 15.2347C1834.87 17.0409 1832.01 17.0409 1829.15 15.2347C1826.29 13.4284 1823.43 9.81595 1820.52 8.61179C1817.66 7.40763 1814.8 8.40251 1813.29 9.03638C1811.77 9.67025 1811.29 10.2062 1811.29 10.2062L1811.38 0.78476H1813.4C1814.8 0.78476 1817.66 0.78476 1820.52 0.78476C1823.43 0.78476 1826.29 0.78476 1829.15 0.78476C1832.01 0.78476 1834.87 0.78476 1837.73 0.78476C1840.59 0.78476 1843.5 0.78476 1846.36 0.78476C1849.22 0.78476 1852.08 0.78476 1854.94 0.78476C1857.8 0.78476 1860.66 0.78476 1863.57 0.78476C1866.43 0.78476 1869.29 0.78476 1870.7 0.78476H1872.15V9.81595Z" fill="#07ACEC"/>
<path fill-rule="evenodd" clip-rule="evenodd" d="M1932.53 9.81595L1931.07 11.0201C1929.55 12.1885 1926.81 14.6326 1923.95 13.4284C1921.04 12.2243 1918.18 7.40763 1915.32 5.6014C1912.46 3.79516 1909.6 4.99932 1906.74 7.40763C1903.88 9.81595 1900.97 13.4284 1898.11 15.2347C1895.25 17.0409 1892.39 17.0409 1889.53 15.2347C1886.67 13.4284 1883.81 9.81595 1880.9 8.61179C1878.04 7.40763 1875.18 8.40251 1873.66 9.03638C1872.15 9.67025 1871.67 10.2062 1871.67 10.2062L1871.76 0.78476H1873.77C1875.18 0.78476 1878.04 0.78476 1880.9 0.78476C1883.81 0.78476 1886.67 0.78476 1889.53 0.78476C1892.39 0.78476 1895.25 0.78476 1898.11 0.78476C1900.97 0.78476 1903.88 0.78476 1906.74 0.78476C1909.6 0.78476 1912.46 0.78476 1915.32 0.78476C1918.18 0.78476 1921.04 0.78476 1923.95 0.78476C1926.81 0.78476 1929.67 0.78476 1931.07 0.78476H1932.53V9.81595Z" fill="#07ACEC"/>
</svg>
