<svg width="19" height="14" viewBox="0 0 19 14" fill="none" xmlns="http://www.w3.org/2000/svg">
<path d="M18.1002 6.32264C18.4455 6.84904 18.4455 7.50984 18.1002 8.03624C17.0126 9.69404 14.1823 13.1794 9.60928 13.1794C5.03628 13.1794 2.20598 9.69404 1.11836 8.03624C0.773048 7.50984 0.773048 6.84904 1.11836 6.32264C2.20598 4.66479 5.03628 1.17944 9.60928 1.17944C14.1823 1.17944 17.0126 4.66479 18.1002 6.32264Z" stroke="#ABABAB" stroke-width="1.25" stroke-linecap="round"/>
<path d="M12.6093 7.17944C12.6093 8.83634 11.2661 10.1794 9.60928 10.1794C7.95238 10.1794 6.60925 8.83634 6.60925 7.17944C6.60925 5.52254 7.95238 4.17944 9.60928 4.17944C11.2661 4.17944 12.6093 5.52254 12.6093 7.17944Z" stroke="#ABABAB" stroke-width="1.25" stroke-linecap="round"/>
</svg>
