<svg width="93" height="15" viewBox="0 0 93 15" fill="none" xmlns="http://www.w3.org/2000/svg">
<path d="M5.81138 12.3286H7.83138V0.745605H4.89338C1.93938 0.745605 0.386385 2.26261 0.386385 4.49561C0.386385 6.27861 1.23738 7.32861 2.75638 8.41261L0.119385 12.3286H2.30638L5.24438 7.94561L4.22638 7.26261C2.98938 6.42861 2.38938 5.77861 2.38938 4.37861C2.38938 3.14561 3.25738 2.31261 4.91038 2.31261H5.81138V12.3286ZM32.3374 11.7626V10.1456C31.7194 10.5626 30.6854 10.9286 29.7174 10.9286C28.2644 10.9286 27.7134 10.2456 27.6304 8.84561H32.4204V7.79561C32.4204 4.87861 31.1354 3.77861 29.1494 3.77861C26.7294 3.77861 25.5764 5.62861 25.5764 8.16261C25.5764 11.0786 27.0124 12.4956 29.5494 12.4956C30.8194 12.4956 31.7534 12.1626 32.3374 11.7626ZM44.7574 12.4956C45.6754 12.4956 46.3274 12.3286 46.8104 11.9786V10.3626C46.3104 10.7126 45.7094 10.9286 44.8744 10.9286C43.4554 10.9286 42.8714 9.82861 42.8714 8.09561C42.8714 6.27861 43.5884 5.34561 44.8914 5.34561C45.6584 5.34561 46.4104 5.61261 46.8114 5.86261V4.17861C46.3934 3.94561 45.6584 3.77861 44.6744 3.77861C42.1364 3.77861 40.8174 5.59561 40.8174 8.14561C40.8174 10.9456 42.1034 12.4956 44.7574 12.4956ZM14.1414 3.94561V7.26261H11.4874V3.94561H9.50138V12.3286H11.4874V8.82861H14.1414V12.3286H16.1284V3.94561H14.1414ZM25.0924 10.7626H24.2084V3.94561H18.4154V4.66261C18.4154 6.71261 18.2814 9.36261 17.5804 10.7626H16.9634V14.2456H18.7994V12.3286H23.2564V14.2456H25.0924V10.7626ZM38.6814 12.3286H40.9344L37.7464 7.81261L40.5494 3.94561H38.5464L35.7424 7.81261V3.94561H33.7554V12.3286H35.7424V8.21261L38.6814 12.3286ZM29.1154 5.34561C30.1004 5.34561 30.4014 6.16261 30.4014 7.21261V7.37861H27.6294C27.6794 6.04561 28.1644 5.34561 29.1154 5.34561ZM22.2214 10.7626H19.4164C19.9674 9.49561 20.1184 7.21261 20.1184 5.76261V5.51261H22.2214V10.7626ZM57.0614 12.3286H59.4154L55.2754 6.22861L59.1494 0.745605H57.1464L53.3894 6.07861V0.745605H51.3694V12.3286H53.3894V6.89561L57.0614 12.3286ZM66.1134 6.61261C66.1134 4.57861 65.0784 3.81261 62.9754 3.81261C61.9405 3.80675 60.9221 4.07077 60.0204 4.57861V6.22861C60.5544 5.82861 61.7234 5.39561 62.7414 5.39561C63.6934 5.39561 64.1274 5.72861 64.1274 6.62861V7.09561H63.8094C60.7714 7.09561 59.4194 8.09561 59.4194 9.79561C59.4194 11.4956 60.4544 12.4456 61.9894 12.4456C63.1594 12.4456 63.6594 12.0626 64.0434 11.6626H64.1274C64.1434 11.8786 64.2104 12.1626 64.2774 12.3286H66.2134C66.1474 11.6456 66.1134 10.9626 66.1134 10.2786V6.61261ZM64.1274 10.3286C63.8774 10.6956 63.4094 10.9956 62.7074 10.9956C61.8734 10.9956 61.4564 10.4956 61.4564 9.74561C61.4564 8.76261 62.1404 8.41261 63.8434 8.41261H64.1274V10.3286ZM69.4884 3.94561H67.6524V14.7456H69.6384V11.3456C70.1394 12.0956 70.8734 12.4956 71.7254 12.4956C73.6614 12.4956 74.9974 10.9456 74.9974 8.12861C74.9974 5.32861 73.6954 3.77861 71.8254 3.77861C70.8904 3.77861 70.1224 4.21261 69.5884 5.02861L69.4884 3.94561ZM71.2244 10.9286C70.1724 10.9286 69.6384 10.0786 69.6384 8.14561C69.6384 6.19561 70.2064 5.34561 71.3244 5.34561C72.4094 5.34561 72.9444 6.19561 72.9444 8.12861C72.9444 10.0786 72.3764 10.9286 71.2244 10.9286ZM81.9204 5.51261V3.94561H75.2604V5.51261H77.5974V12.3286H79.5834V5.51261H81.9204ZM83.0384 3.94561V12.3286H86.0594C88.0124 12.3286 89.3984 11.3286 89.3984 9.36261C89.3984 7.49561 88.1634 6.51261 86.0934 6.51261H85.0244V3.94561H83.0384ZM90.1324 3.94561V12.3286H92.1194V3.94561H90.1324ZM85.9424 10.7626H85.0244V8.07861H85.9934C86.8434 8.07861 87.3454 8.46261 87.3454 9.42861C87.3454 10.3956 86.7944 10.7626 85.9424 10.7626Z" fill="#ABABAB"/>
</svg>
